M48
; DRILL file {KiCad 9.0.3} date 2026-02-17T05:23:11-0700
; FORMAT={-:-/ absolute / metric / decimal}
; #@! TF.CreationDate,2026-02-17T05:23:11-07:00
; #@! TF.GenerationSoftware,Kicad,Pcbnew,9.0.3
; #@! TF.FileFunction,Plated,1,4,PTH
FMAT,2
METRIC
; #@! TA.AperFunction,Plated,PTH,ViaDrill
T1C0.203
; #@! TA.AperFunction,Plated,PTH,ViaDrill
T2C0.254
; #@! TA.AperFunction,Plated,PTH,ViaDrill
T3C0.300
; #@! TA.AperFunction,Plated,PTH,ViaDrill
T4C0.508
; #@! TA.AperFunction,Plated,PTH,ComponentDrill
T5C0.657
; #@! TA.AperFunction,Plated,PTH,ComponentDrill
T6C0.750
; #@! TA.AperFunction,Plated,PTH,ComponentDrill
T7C0.800
; #@! TA.AperFunction,Plated,PTH,ComponentDrill
T8C1.000
; #@! TA.AperFunction,Plated,PTH,ComponentDrill
T9C1.016
; #@! TA.AperFunction,Plated,PTH,ComponentDrill
T10C1.020
; #@! TA.AperFunction,Plated,PTH,ComponentDrill
T11C1.100
; #@! TA.AperFunction,Plated,PTH,ComponentDrill
T12C1.110
; #@! TA.AperFunction,Plated,PTH,ComponentDrill
T13C1.150
; #@! TA.AperFunction,Plated,PTH,ComponentDrill
T14C1.200
; #@! TA.AperFunction,Plated,PTH,ComponentDrill
T15C1.270
; #@! TA.AperFunction,Plated,PTH,ComponentDrill
T16C1.290
; #@! TA.AperFunction,Plated,PTH,ComponentDrill
T17C1.300
; #@! TA.AperFunction,Plated,PTH,ComponentDrill
T18C1.400
; #@! TA.AperFunction,Plated,PTH,ComponentDrill
T19C2.400
%
G90
G05
T1
X53.95Y-221.336
X54.153Y-73.0
X54.153Y-86.563
X54.204Y-88.697
X54.305Y-90.678
X54.407Y-76.556
X54.61Y-82.652
X54.762Y-94.336
X54.864Y-79.451
X56.083Y-221.437
X58.064Y-82.652
X58.318Y-221.488
X58.369Y-206.197
X58.42Y-195.58
X58.42Y-198.12
X58.471Y-200.609
X58.522Y-192.532
X58.522Y-204.876
X58.572Y-190.602
X58.623Y-219.456
X58.674Y-189.281
X58.776Y-188.011
X58.826Y-181.864
X58.826Y-184.099
X58.877Y-178.918
X60.655Y-197.256
X61.214Y-168.097
X61.468Y-184.861
X61.62Y-95.199
X61.62Y-204.775
X61.976Y-176.886
X62.687Y-213.157
X63.043Y-210.769
X63.094Y-195.529
X63.144Y-198.425
X63.348Y-208.483
X63.5Y-206.705
X63.957Y-203.81
X64.719Y-113.03
X64.821Y-184.048
X65.075Y-200.965
X65.126Y-97.13
X66.599Y-199.949
X67.208Y-224.384
X67.513Y-190.246
X67.666Y-205.943
X67.767Y-204.47
X68.072Y-95.047
X68.275Y-114.859
X68.377Y-131.369
X68.377Y-218.135
X68.58Y-210.16
X68.631Y-208.737
X69.088Y-204.876
X69.291Y-194.005
X69.291Y-203.708
X69.342Y-187.147
X69.647Y-132.232
X69.774Y-114.523
X69.799Y-192.075
X70.561Y-208.432
X70.561Y-210.769
X70.764Y-122.834
X70.764Y-213.512
X71.069Y-217.932
X71.323Y-180.594
X71.425Y-96.876
X71.679Y-222.453
X72.06Y-115.799
X73.304Y-193.599
X73.406Y-191.668
X73.66Y-216.306
X73.711Y-218.186
X73.863Y-213.563
X73.965Y-211.176
X74.016Y-222.148
X74.27Y-166.065
X74.422Y-174.955
X74.727Y-132.283
X75.692Y-118.415
X75.946Y-201.32
X76.048Y-96.926
X76.2Y-221.894
X76.556Y-124.917
X77.267Y-180.899
X77.546Y-167.488
X77.673Y-207.315
X77.775Y-95.047
X77.826Y-186.436
X78.08Y-201.93
X78.232Y-213.919
X78.283Y-174.955
X78.334Y-210.007
X78.334Y-215.443
X78.384Y-184.556
X78.384Y-221.691
X78.842Y-122.758
X80.213Y-181.915
X80.264Y-116.078
X80.823Y-184.556
X81.077Y-175.108
X81.89Y-97.587
X81.991Y-178.613
X82.042Y-100.127
X82.55Y-186.538
X82.702Y-181.915
X83.464Y-96.418
X83.718Y-99.416
X84.099Y-116.459
X85.547Y-117.043
X85.801Y-175.209
X86.055Y-186.741
X86.309Y-87.427
X86.36Y-99.771
X86.411Y-89.916
X86.716Y-184.201
X86.766Y-80.264
X86.919Y-82.448
X87.173Y-75.692
X87.224Y-77.724
X87.376Y-73.457
X87.579Y-166.014
X87.63Y-113.132
X87.706Y-114.605
X87.833Y-178.308
X88.748Y-175.412
X89.51Y-107.188
X89.56Y-64.567
X90.018Y-66.751
X90.018Y-69.291
X90.119Y-71.476
X90.627Y-87.224
X91.465Y-167.437
X91.694Y-181.356
X92.354Y-169.621
X93.624Y-165.964
X94.158Y-123.063
X95.25Y-87.63
X95.301Y-90.373
X95.58Y-167.005
X95.961Y-180.467
X97.003Y-167.589
X97.18Y-173.914
X97.384Y-164.44
X97.485Y-175.618
X97.536Y-93.98
X98.298Y-173.736
X98.412Y-122.999
X99.568Y-90.322
X100.533Y-95.606
X100.94Y-98.45
X101.346Y-87.884
X101.498Y-83.058
X102.133Y-155.626
X102.21Y-92.812
X102.362Y-72.288
X102.413Y-64.465
X102.413Y-69.24
X102.464Y-112.801
X102.464Y-116.357
X102.667Y-66.65
X102.819Y-76.048
X102.997Y-127.356
X103.022Y-175.768
X103.378Y-88.748
X103.556Y-175.209
X103.632Y-180.543
X103.886Y-184.099
X103.937Y-187.249
X104.496Y-155.727
X105.283Y-110.082
X105.359Y-179.832
X105.639Y-116.513
X105.842Y-166.421
X106.07Y-177.394
X106.832Y-122.657
X107.061Y-182.702
X107.112Y-172.669
X107.544Y-69.494
X107.747Y-170.739
X108.153Y-178.359
X108.61Y-71.831
X108.61Y-82.144
X108.712Y-176.327
X108.712Y-182.194
X108.814Y-185.369
X108.814Y-187.554
X108.864Y-183.134
X109.017Y-87.173
X109.195Y-180.188
X109.271Y-75.641
X109.322Y-80.112
X110.058Y-158.115
X110.084Y-156.261
X110.236Y-125.578
X110.795Y-127.559
X110.846Y-84.074
X110.998Y-113.36
X110.998Y-189.535
X111.176Y-125.705
X112.42Y-77.318
X112.471Y-192.888
X112.471Y-197.307
X112.522Y-195.275
X112.573Y-190.652
X112.624Y-182.016
X113.335Y-202.184
X113.767Y-122.555
X113.843Y-155.397
X113.894Y-199.898
X113.944Y-204.216
X113.995Y-205.892
X114.198Y-215.138
X114.325Y-127.076
X114.376Y-125.832
X114.402Y-208.534
X114.402Y-212.141
X114.452Y-210.363
X114.503Y-217.932
X114.91Y-180.289
X115.214Y-178.562
X115.214Y-184.048
X115.418Y-112.192
X115.519Y-197.104
X115.951Y-125.705
X116.027Y-127.254
X116.205Y-119.939
X116.561Y-129.692
X116.637Y-154.584
X117.145Y-125.654
X117.246Y-127.229
X117.246Y-208.585
X117.297Y-213.106
X117.399Y-183.896
X117.475Y-128.905
X117.551Y-186.538
X117.602Y-204.267
X118.008Y-159.563
X118.313Y-88.443
X118.44Y-130.505
X118.516Y-91.186
X118.669Y-208.686
X118.821Y-194.513
X118.872Y-192.684
X118.872Y-196.545
X118.923Y-84.887
X119.329Y-206.299
X119.939Y-129.134
X120.015Y-120.675
X120.193Y-214.02
X120.701Y-184.252
X120.701Y-198.628
X121.717Y-182.88
X122.58Y-116.332
X122.758Y-113.284
X122.834Y-184.099
X122.936Y-71.171
X123.139Y-68.224
X123.393Y-82.093
X123.393Y-85.446
X124.104Y-182.88
X124.562Y-181.305
X124.765Y-218.44
X126.289Y-210.414
X126.314Y-114.63
X126.39Y-215.392
X126.746Y-212.801
X127.305Y-208.686
X127.305Y-222.91
X127.406Y-89.814
X128.321Y-218.44
X128.575Y-205.13
X129.032Y-210.769
X129.489Y-206.502
X130.658Y-111.506
X131.166Y-124.917
X131.826Y-220.828
X131.928Y-198.78
X131.978Y-159.715
X132.588Y-119.888
X133.02Y-125.247
X133.147Y-212.801
X133.452Y-201.676
X133.452Y-214.325
X133.655Y-185.979
X133.858Y-84.531
X134.163Y-82.956
X134.366Y-108.433
X134.925Y-194.818
X135.077Y-67.92
X135.077Y-69.698
X135.128Y-120.142
X135.128Y-219.354
X135.179Y-71.933
X135.585Y-76.251
X135.636Y-187.096
X135.839Y-189.332
X135.992Y-207.772
X136.144Y-212.446
X136.246Y-215.036
X136.855Y-187.35
X137.516Y-167.691
X137.516Y-170.739
X137.693Y-108.407
X138.074Y-126.746
X138.43Y-75.489
X139.141Y-195.123
X139.395Y-67.208
X139.446Y-185.979
X139.497Y-173.914
X140.005Y-71.272
X140.132Y-155.321
X140.284Y-116.891
X140.462Y-78.13
X140.538Y-174.092
X140.691Y-114.579
X140.97Y-116.303
X141.427Y-155.372
X141.681Y-160.172
X142.189Y-162.662
X142.24Y-114.605
X142.672Y-155.321
X142.85Y-173.835
X143.053Y-118.186
X143.129Y-108.407
X143.485Y-117.526
X143.51Y-106.426
X143.561Y-112.979
X143.662Y-158.293
X144.729Y-156.87
X145.313Y-173.348
X145.542Y-81.382
X145.567Y-195.758
X145.593Y-110.592
X146.05Y-72.847
X146.05Y-76.352
X146.863Y-125.654
X147.015Y-105.715
X147.015Y-107.036
X147.117Y-134.468
X147.117Y-170.739
X147.531Y-116.692
X147.726Y-108.636
X147.879Y-112.268
X147.879Y-153.721
X148.361Y-118.643
X148.692Y-138.125
X148.793Y-170.739
X148.793Y-175.514
X148.844Y-93.777
X149.276Y-118.364
X149.809Y-142.138
X150.063Y-153.924
X150.368Y-112.319
X150.978Y-113.233
X151.486Y-162.611
X151.613Y-116.713
X151.638Y-170.739
X151.841Y-85.039
X151.994Y-79.4
X152.4Y-77.318
X152.705Y-71.526
X152.857Y-170.739
X153.187Y-118.288
X153.67Y-123.266
X153.746Y-86.131
X153.822Y-171.882
X154.178Y-114.935
X154.178Y-145.999
X154.584Y-141.884
X154.598Y-173.348
X154.635Y-70.256
X154.635Y-138.582
X155.042Y-144.17
X155.143Y-121.945
X155.727Y-174.015
X155.854Y-160.426
X156.312Y-81.077
X156.718Y-85.242
X156.718Y-140.564
X156.718Y-169.926
X156.87Y-143.561
X156.87Y-150.622
X156.921Y-161.544
X156.972Y-158.344
X157.277Y-101.981
X157.277Y-111.963
X157.302Y-107.036
X157.886Y-121.92
X157.886Y-173.507
X158.039Y-111.61
X158.394Y-116.713
X158.598Y-171.907
X158.75Y-137.668
X158.75Y-161.595
X158.953Y-114.884
X159.137Y-113.518
X159.791Y-112.09
X159.817Y-89.306
X160.477Y-91.237
X160.553Y-114.884
X160.579Y-112.014
X160.579Y-175.311
X160.63Y-139.598
X161.188Y-89.56
X161.239Y-150.063
X161.595Y-173.838
X161.747Y-86.716
X161.925Y-113.538
X162.103Y-135.382
X162.255Y-153.111
X162.357Y-115.976
X162.458Y-140.868
X163.22Y-173.584
X163.22Y-175.362
X163.83Y-89.306
X163.83Y-117.45
X164.059Y-115.976
X164.287Y-109.271
X164.44Y-123.342
X164.541Y-122.022
X164.541Y-173.533
X164.744Y-113.614
X164.948Y-149.301
X165.1Y-89.154
X165.252Y-136.5
X165.354Y-165.202
X165.862Y-108.788
X166.268Y-137.566
X166.522Y-126.39
X166.522Y-159.918
X166.853Y-107.264
X166.878Y-89.154
X167.234Y-154.686
X167.386Y-79.35
X167.462Y-145.618
X167.589Y-90.259
X167.691Y-170.942
X168.453Y-142.999
X168.504Y-141.811
X168.707Y-89.154
X168.808Y-122.733
X169.266Y-133.909
X169.52Y-143.459
X169.672Y-137.516
X170.047Y-140.564
X170.231Y-216.51
X170.332Y-167.742
X170.485Y-139.205
X170.5Y-140.059
X170.586Y-206.553
X170.598Y-157.441
X170.739Y-201.066
X170.84Y-163.881
X171.094Y-115.545
X171.348Y-153.924
X171.45Y-123.19
X171.679Y-111.43
X171.806Y-131.724
X171.856Y-188.062
X172.034Y-114.148
X172.11Y-164.948
X172.364Y-162.357
X172.669Y-155.499
X172.974Y-65.583
X173.025Y-170.942
X173.279Y-71.933
X173.33Y-183.54
X173.431Y-80.366
X173.685Y-163.373
X173.736Y-116.637
X173.787Y-202.133
X173.939Y-112.446
X173.954Y-153.111
X174.346Y-148.082
X175.108Y-157.683
X175.666Y-191.618
X175.666Y-214.376
X175.717Y-159.715
X175.819Y-76.81
X175.87Y-188.112
X175.92Y-71.222
X176.124Y-198.171
X176.479Y-109.118
X176.581Y-79.146
X176.581Y-195.224
X176.682Y-210.566
X176.784Y-184.252
X177.292Y-61.62
X177.292Y-212.446
X177.394Y-208.077
X177.546Y-132.182
X177.546Y-142.596
X177.597Y-200.0
X177.8Y-202.692
X177.82Y-156.566
X177.851Y-140.411
X177.902Y-137.922
X178.765Y-176.936
X179.654Y-118.262
X179.832Y-143.053
X180.696Y-158.496
X180.696Y-164.135
X181.254Y-172.974
X181.254Y-176.936
X181.458Y-118.262
X182.042Y-162.027
X182.118Y-137.465
X182.143Y-158.09
X182.474Y-165.659
X182.651Y-131.902
X182.931Y-139.04
X183.236Y-208.788
X183.54Y-176.987
X183.718Y-117.831
X183.998Y-141.173
X184.023Y-152.527
X184.76Y-186.182
X185.014Y-135.687
X185.039Y-111.404
X185.369Y-160.02
X185.471Y-110.007
X185.725Y-91.897
X185.877Y-69.19
X186.08Y-59.334
X186.131Y-62.078
X186.131Y-66.142
X186.284Y-99.111
X186.284Y-115.367
X186.385Y-209.753
X186.411Y-151.308
X186.944Y-57.048
X187.198Y-142.646
X187.604Y-197.917
X187.706Y-139.395
X187.706Y-199.339
X187.706Y-202.59
X187.858Y-136.042
X187.858Y-169.316
X187.96Y-130.404
X188.468Y-99.466
X188.62Y-212.09
X188.671Y-215.138
X188.773Y-54.864
X188.773Y-207.366
X189.027Y-219.253
X189.281Y-172.974
X189.738Y-141.783
X189.738Y-183.591
X189.789Y-119.329
X189.789Y-151.333
X190.398Y-100.635
X190.551Y-136.347
X190.952Y-160.306
X190.957Y-162.357
X191.11Y-62.078
X191.364Y-72.695
X191.414Y-66.142
X191.465Y-70.358
X191.516Y-160.68
X191.719Y-185.877
X191.77Y-93.726
X191.872Y-120.548
X192.156Y-160.887
X192.481Y-163.779
X192.532Y-176.682
X192.989Y-54.61
X193.04Y-208.382
X193.497Y-122.276
X193.548Y-178.41
X193.548Y-179.476
X193.599Y-183.744
X193.853Y-76.759
X193.853Y-163.068
X193.904Y-214.274
X194.005Y-120.396
X194.259Y-217.373
X194.564Y-119.304
X194.615Y-176.936
X194.869Y-211.48
X195.224Y-162.357
X195.428Y-61.824
X195.529Y-154.483
X195.529Y-220.878
X195.732Y-58.979
X195.732Y-175.362
X195.986Y-54.356
X196.317Y-155.423
X196.647Y-77.064
X196.698Y-142.799
X196.901Y-60.35
X197.51Y-160.884
X198.044Y-122.631
X198.069Y-175.412
X198.12Y-179.883
X198.196Y-118.923
X198.323Y-126.721
X199.136Y-151.714
X199.695Y-60.452
X199.949Y-175.26
X200.025Y-148.692
X200.05Y-72.136
X200.304Y-54.356
X200.812Y-177.495
X201.066Y-179.578
X201.27Y-154.229
X201.524Y-138.684
X201.574Y-183.032
X201.676Y-143.002
X201.727Y-60.452
X201.778Y-140.208
X201.93Y-80.489
X201.981Y-151.74
X202.438Y-73.101
X202.438Y-174.955
X202.489Y-117.246
X202.997Y-125.679
X203.098Y-121.615
X203.098Y-140.868
X203.302Y-93.726
X203.403Y-69.444
X203.606Y-148.692
X203.657Y-54.254
X203.657Y-146.533
X203.708Y-159.969
X203.86Y-66.446
X204.013Y-131.064
X204.165Y-58.877
X204.165Y-141.884
X204.165Y-154.127
X204.216Y-137.008
X204.927Y-146.558
X205.435Y-133.452
X205.486Y-73.152
X205.486Y-178.003
X205.537Y-174.955
X205.74Y-181.508
X205.892Y-69.393
X206.146Y-65.329
X206.197Y-54.204
X206.604Y-151.968
X206.807Y-160.63
X207.137Y-82.448
X207.569Y-175.362
X207.924Y-190.094
X208.331Y-61.062
X208.331Y-185.928
X208.382Y-160.63
X208.432Y-63.094
X208.636Y-54.305
X208.788Y-177.089
X209.144Y-75.057
X209.144Y-179.527
X209.398Y-73.203
X209.448Y-174.904
X209.804Y-69.19
X209.906Y-99.72
X210.566Y-73.508
X210.769Y-173.025
X210.922Y-177.698
X211.226Y-180.848
X211.379Y-168.097
X211.43Y-175.209
X212.573Y-83.718
X213.055Y-89.744
X213.208Y-57.658
X213.411Y-73.304
X213.69Y-93.65
X214.02Y-81.178
X214.224Y-60.858
X214.732Y-69.291
X214.833Y-58.166
X214.884Y-91.237
X214.986Y-156.718
X215.697Y-156.718
X216.256Y-91.415
X216.306Y-106.07
X216.306Y-171.145
X216.662Y-156.261
X216.662Y-157.988
X216.992Y-86.258
X217.297Y-99.238
X217.627Y-156.718
X217.907Y-88.367
X218.135Y-69.494
X218.338Y-77.775
X218.338Y-156.718
X218.389Y-166.243
X218.592Y-72.542
X218.592Y-82.499
X219.558Y-67.513
X220.116Y-155.956
X220.472Y-100.381
X220.701Y-167.157
X221.132Y-55.778
X221.183Y-136.246
X221.437Y-61.57
X221.488Y-95.885
X221.971Y-83.49
X221.996Y-58.826
X222.25Y-72.695
X222.479Y-91.618
X222.555Y-169.164
X223.063Y-175.59
X223.114Y-134.214
X223.139Y-96.393
X223.164Y-99.314
X223.215Y-177.902
X223.469Y-174.346
X223.52Y-55.016
X223.977Y-61.925
X224.282Y-72.238
X224.587Y-87.884
X224.942Y-159.918
X225.196Y-91.796
X225.45Y-59.436
X225.806Y-72.441
X226.187Y-76.657
X226.568Y-74.371
X226.67Y-177.851
X226.72Y-168.656
X226.771Y-130.607
X226.797Y-174.93
X226.822Y-171.399
X227.228Y-54.915
X227.279Y-62.078
X227.584Y-159.868
X227.787Y-59.436
X227.889Y-223.52
X228.397Y-93.777
X228.854Y-54.915
X229.337Y-91.491
X229.413Y-62.789
X229.921Y-160.553
X230.505Y-167.742
X230.835Y-58.877
X231.242Y-126.035
X231.343Y-168.427
X231.623Y-169.85
X231.826Y-171.907
X231.902Y-54.762
X232.308Y-75.336
X232.359Y-69.393
X233.07Y-65.278
X233.375Y-74.066
X233.629Y-127.61
X234.188Y-211.074
X234.34Y-214.732
X234.391Y-208.432
X234.747Y-205.537
X234.848Y-73.609
X235.179Y-170.205
X235.991Y-160.528
X236.017Y-219.405
X236.22Y-222.098
X236.576Y-55.27
X236.626Y-71.933
X237.642Y-214.224
X237.896Y-210.464
X238.252Y-160.579
X238.608Y-69.291
X238.76Y-67.208
X238.76Y-77.826
X238.811Y-56.947
X238.862Y-61.62
X239.014Y-59.182
X239.217Y-127.0
X239.827Y-209.55
X240.335Y-180.442
X240.995Y-144.78
X241.452Y-207.162
X241.656Y-177.394
X241.783Y-81.509
X241.91Y-217.627
X241.935Y-160.553
X241.96Y-215.138
X242.164Y-180.289
X242.316Y-118.364
X243.738Y-123.038
X245.618Y-180.34
X245.974Y-211.43
X246.177Y-147.472
X246.888Y-112.979
X247.142Y-172.085
X247.244Y-165.481
X247.294Y-119.329
X248.666Y-78.13
X248.717Y-187.401
X249.225Y-209.093
X249.428Y-183.439
X249.53Y-218.034
X250.241Y-129.489
X250.292Y-210.21
X250.698Y-186.487
X250.901Y-114.452
X251.257Y-222.91
X251.46Y-108.052
X251.536Y-164.998
X252.171Y-217.119
X252.425Y-186.639
X252.527Y-212.395
X253.39Y-126.136
X253.975Y-72.974
X254.508Y-104.953
X255.27Y-183.337
X255.676Y-222.555
X256.184Y-110.236
X256.642Y-102.819
X256.692Y-186.995
X257.15Y-184.252
X257.15Y-208.636
X257.2Y-178.41
X257.734Y-77.165
X258.47Y-178.41
X258.775Y-121.463
X259.385Y-99.67
X262.839Y-115.265
X263.042Y-181.153
X263.347Y-185.877
X264.363Y-182.27
X265.074Y-77.318
X265.836Y-184.15
X266.294Y-201.219
X267.157Y-198.628
X267.665Y-185.217
X267.919Y-90.983
X268.326Y-196.596
X270.256Y-186.538
X270.307Y-163.754
X270.993Y-159.461
X272.186Y-187.503
X272.644Y-194.513
X273.355Y-197.206
X273.456Y-199.492
X273.558Y-189.23
X273.66Y-191.872
X276.809Y-196.85
X277.063Y-193.904
X288.392Y-64.364
X290.576Y-180.848
X290.932Y-154.127
X292.354Y-174.346
X295.097Y-185.42
X296.367Y-197.561
X297.028Y-75.946
X297.434Y-176.174
X299.466Y-202.133
X300.584Y-75.692
X301.193Y-193.904
X307.188Y-218.542
X307.95Y-202.235
X315.57Y-214.986
X323.444Y-198.628
X323.85Y-193.167
X323.85Y-194.183
X324.358Y-213.766
X324.612Y-192.532
X333.985Y-131.039
T2
X48.768Y-203.454
X49.403Y-188.468
X49.403Y-189.357
X49.53Y-185.928
X49.53Y-186.944
X50.038Y-205.232
X50.851Y-183.794
X50.927Y-185.928
X50.927Y-186.944
X50.927Y-188.468
X51.054Y-189.357
X51.562Y-204.216
X52.73Y-183.947
X53.34Y-205.232
X53.467Y-208.788
X54.254Y-175.565
X54.356Y-209.677
X54.813Y-183.998
X55.22Y-163.576
X55.575Y-68.783
X55.88Y-207.772
X56.185Y-202.387
X56.388Y-191.872
X56.388Y-197.46
X56.49Y-188.011
X56.54Y-182.372
X56.896Y-207.772
X57.76Y-120.65
X58.217Y-214.782
X58.268Y-210.769
X58.318Y-80.264
X58.318Y-217.17
X58.42Y-164.694
X58.42Y-208.432
X58.522Y-213.157
X58.928Y-122.377
X59.182Y-87.122
X59.538Y-144.628
X59.842Y-138.227
X60.198Y-125.222
X60.198Y-178.41
X60.325Y-101.092
X60.325Y-102.108
X61.316Y-79.4
X61.341Y-101.092
X61.341Y-102.108
X61.671Y-110.795
X61.976Y-71.12
X62.027Y-125.527
X62.179Y-225.4
X62.738Y-110.134
X62.848Y-90.534
X63.119Y-72.644
X63.144Y-112.319
X63.246Y-87.376
X63.551Y-160.325
X63.703Y-175.819
X63.856Y-111.303
X63.856Y-125.583
X64.008Y-192.278
X64.516Y-84.074
X64.516Y-84.963
X64.831Y-78.232
X65.024Y-192.278
X65.024Y-210.312
X65.329Y-124.968
X66.04Y-115.265
X66.04Y-210.312
X66.497Y-125.374
X66.558Y-118.473
X66.675Y-89.027
X66.904Y-163.627
X67.107Y-139.446
X67.437Y-75.184
X67.437Y-76.2
X67.462Y-175.412
X68.682Y-116.434
X68.834Y-72.517
X69.342Y-156.413
X69.85Y-125.374
X70.206Y-81.077
X70.612Y-175.362
X70.866Y-80.264
X70.866Y-143.662
X70.866Y-198.882
X71.755Y-187.833
X71.882Y-88.138
X71.882Y-198.882
X72.215Y-125.476
X72.339Y-225.298
X72.542Y-157.582
X73.304Y-205.232
X73.406Y-99.695
X73.533Y-102.235
X73.66Y-100.711
X75.286Y-138.43
X76.149Y-55.88
X76.454Y-188.595
X76.556Y-126.035
X77.089Y-177.165
X77.673Y-204.876
X78.638Y-105.512
X79.096Y-128.524
X79.502Y-191.77
X79.502Y-192.786
X80.061Y-143.002
X80.772Y-221.844
X80.975Y-217.221
X81.178Y-208.331
X81.178Y-213.512
X81.229Y-144.374
X81.28Y-119.278
X81.28Y-225.196
X81.331Y-84.734
X81.839Y-76.454
X81.866Y-125.808
X81.89Y-70.714
X82.194Y-157.429
X82.194Y-201.879
X82.347Y-90.068
X82.347Y-145.796
X82.652Y-80.975
X82.855Y-154.432
X82.965Y-109.002
X83.121Y-103.663
X83.159Y-107.697
X83.185Y-104.47
X83.548Y-108.43
X84.226Y-128.727
X84.328Y-84.836
X84.328Y-89.357
X84.455Y-208.28
X84.455Y-210.058
X84.887Y-79.604
X85.09Y-177.038
X85.09Y-192.151
X85.09Y-193.421
X85.141Y-70.866
X85.192Y-74.981
X85.344Y-146.253
X85.649Y-113.335
X85.722Y-109.699
X85.75Y-140.411
X85.852Y-156.921
X85.903Y-208.636
X85.94Y-104.408
X86.046Y-106.341
X86.106Y-182.88
X86.351Y-110.209
X86.36Y-188.468
X86.36Y-189.23
X86.411Y-91.897
X86.462Y-105.647
X86.462Y-107.036
X86.462Y-112.776
X86.512Y-103.835
X86.868Y-210.185
X86.995Y-206.502
X87.071Y-110.744
X87.122Y-125.628
X87.274Y-112.014
X87.376Y-195.199
X87.427Y-203.657
X88.011Y-197.231
X88.036Y-164.033
X88.036Y-208.229
X88.392Y-157.836
X89.027Y-195.199
X89.281Y-207.518
X89.281Y-209.296
X90.678Y-172.611
X90.78Y-189.789
X90.932Y-191.77
X90.932Y-195.199
X91.059Y-193.548
X91.186Y-203.073
X91.186Y-204.089
X91.44Y-183.083
X91.542Y-225.958
X91.694Y-186.284
X91.796Y-137.008
X92.202Y-203.073
X92.202Y-204.089
X92.507Y-173.272
X93.066Y-155.702
X93.066Y-160.528
X93.091Y-203.073
X93.091Y-204.089
X93.203Y-121.783
X93.32Y-81.737
X93.32Y-164.236
X94.234Y-64.389
X94.234Y-69.342
X94.488Y-124.155
X94.539Y-117.094
X94.615Y-193.167
X94.691Y-157.328
X94.793Y-168.707
X95.047Y-162.052
X95.098Y-125.628
X95.098Y-130.302
X95.199Y-166.319
X95.301Y-165.354
X95.377Y-71.755
X95.504Y-163.22
X95.555Y-118.262
X95.809Y-137.973
X95.809Y-175.887
X95.86Y-178.46
X96.139Y-64.389
X96.311Y-174.572
X96.393Y-84.582
X96.52Y-83.566
X96.774Y-77.47
X96.774Y-166.218
X96.926Y-163.22
X97.13Y-162.052
X97.18Y-222.098
X97.333Y-168.859
X97.409Y-192.278
X97.409Y-193.167
X97.536Y-68.326
X97.688Y-137.363
X97.79Y-69.723
X97.942Y-152.908
X98.171Y-203.073
X98.171Y-204.089
X98.425Y-192.278
X98.425Y-193.167
X98.806Y-121.768
X99.06Y-196.596
X99.187Y-99.441
X99.187Y-100.33
X99.314Y-202.946
X99.416Y-107.798
X99.441Y-204.089
X99.517Y-136.703
X99.746Y-173.94
X99.949Y-104.521
X99.949Y-105.791
X99.949Y-192.278
X99.949Y-193.167
X100.076Y-178.054
X100.203Y-99.441
X100.203Y-100.33
X100.584Y-71.374
X100.889Y-165.354
X100.965Y-192.278
X100.965Y-193.167
X101.27Y-169.799
X101.346Y-109.068
X102.057Y-79.959
X102.819Y-171.247
X103.022Y-171.958
X103.124Y-79.248
X103.251Y-193.294
X103.276Y-186.182
X103.632Y-138.989
X104.013Y-101.473
X104.013Y-102.362
X104.013Y-103.378
X104.216Y-174.572
X104.584Y-93.027
X104.902Y-101.473
X104.902Y-102.362
X104.902Y-103.378
X105.004Y-80.975
X105.512Y-168.605
X105.537Y-194.183
X105.537Y-195.072
X105.537Y-196.342
X105.867Y-106.528
X105.994Y-198.857
X106.299Y-204.216
X106.299Y-205.105
X106.299Y-205.994
X106.578Y-157.328
X106.985Y-222.148
X107.137Y-135.382
X107.315Y-204.216
X107.315Y-205.105
X107.315Y-205.994
X107.442Y-62.484
X107.848Y-198.857
X108.585Y-60.96
X108.585Y-63.754
X108.585Y-209.677
X108.585Y-210.693
X108.814Y-56.185
X109.728Y-209.677
X109.728Y-210.693
X110.084Y-153.213
X110.287Y-139.954
X111.15Y-222.047
X111.252Y-104.394
X111.252Y-106.045
X112.268Y-155.499
X112.37Y-130.2
X112.42Y-86.258
X112.649Y-163.449
X112.776Y-79.451
X112.878Y-70.764
X112.928Y-120.244
X114.148Y-120.802
X114.224Y-139.594
X114.402Y-175.514
X114.808Y-187.706
X115.418Y-225.552
X115.697Y-105.918
X115.951Y-104.521
X115.976Y-175.362
X116.205Y-162.687
X116.205Y-163.83
X116.205Y-164.846
X117.094Y-84.201
X117.221Y-82.169
X117.221Y-162.687
X117.221Y-163.83
X117.221Y-164.846
X117.399Y-86.258
X118.059Y-80.569
X118.313Y-154.584
X118.618Y-83.185
X118.872Y-162.56
X118.872Y-163.703
X118.872Y-164.846
X118.923Y-74.625
X119.126Y-133.045
X119.482Y-135.484
X119.507Y-97.536
X119.507Y-98.552
X119.888Y-101.473
X119.888Y-102.362
X119.888Y-103.378
X120.015Y-162.56
X120.015Y-163.703
X120.015Y-164.846
X120.244Y-70.358
X120.396Y-97.536
X120.396Y-98.552
X120.396Y-209.804
X120.777Y-101.473
X120.777Y-102.362
X120.777Y-103.378
X121.412Y-209.804
X121.971Y-196.494
X122.555Y-91.313
X122.809Y-101.473
X122.809Y-102.362
X122.809Y-103.378
X122.987Y-225.552
X123.698Y-101.473
X123.698Y-102.362
X123.698Y-103.378
X124.587Y-112.776
X125.984Y-80.416
X125.984Y-112.776
X126.035Y-193.294
X126.086Y-87.478
X126.187Y-77.826
X126.238Y-198.501
X127.254Y-198.501
X127.457Y-192.227
X127.635Y-73.152
X127.635Y-74.295
X127.762Y-112.776
X128.524Y-201.168
X129.083Y-196.24
X129.159Y-82.55
X129.159Y-83.439
X129.388Y-190.754
X129.667Y-88.392
X129.921Y-98.298
X130.175Y-69.342
X130.175Y-162.433
X130.175Y-163.449
X130.175Y-164.465
X130.302Y-168.656
X130.404Y-184.861
X130.861Y-182.321
X131.191Y-162.433
X131.191Y-163.449
X131.191Y-164.465
X131.318Y-88.519
X131.47Y-193.497
X131.826Y-73.279
X131.826Y-74.168
X132.715Y-162.433
X132.715Y-163.449
X132.715Y-164.592
X133.223Y-70.866
X133.502Y-208.382
X133.731Y-162.433
X133.731Y-163.449
X133.731Y-164.592
X133.807Y-217.373
X134.061Y-106.68
X134.493Y-176.149
X134.493Y-177.038
X134.976Y-79.197
X135.077Y-225.247
X135.128Y-191.262
X135.128Y-192.024
X135.28Y-74.879
X135.509Y-176.149
X135.509Y-177.038
X135.89Y-78.486
X136.271Y-181.356
X136.398Y-102.489
X136.398Y-185.42
X136.525Y-99.949
X136.525Y-176.149
X136.525Y-177.038
X137.414Y-181.356
X137.414Y-185.42
X137.541Y-83.185
X137.541Y-84.963
X137.566Y-80.264
X137.617Y-121.717
X138.151Y-135.484
X138.379Y-120.955
X138.684Y-215.9
X138.684Y-217.043
X139.065Y-84.963
X139.319Y-103.632
X139.319Y-201.422
X139.319Y-202.946
X139.446Y-215.9
X139.446Y-217.043
X139.497Y-119.837
X140.335Y-112.776
X140.589Y-201.422
X140.589Y-203.073
X140.868Y-83.718
X140.868Y-122.123
X141.122Y-166.04
X141.351Y-82.931
X141.376Y-192.634
X141.478Y-106.324
X141.605Y-112.776
X141.605Y-180.975
X141.63Y-70.053
X141.732Y-176.251
X141.846Y-118.326
X141.884Y-86.766
X142.037Y-73.609
X142.037Y-157.719
X142.24Y-187.198
X142.24Y-188.214
X142.24Y-213.741
X142.24Y-214.63
X142.291Y-79.756
X142.494Y-122.682
X142.545Y-126.898
X142.564Y-121.383
X142.621Y-180.975
X142.748Y-161.646
X142.9Y-120.091
X143.002Y-213.741
X143.002Y-214.63
X143.51Y-159.893
X143.815Y-109.931
X143.84Y-114.579
X143.891Y-122.555
X143.98Y-177.0
X144.475Y-192.583
X144.526Y-86.614
X144.526Y-148.641
X144.78Y-111.252
X145.034Y-160.528
X145.136Y-114.583
X145.415Y-122.555
X145.999Y-152.07
X146.411Y-103.741
X146.431Y-84.709
X146.507Y-163.22
X146.914Y-104.464
X146.964Y-109.271
X147.168Y-152.984
X147.193Y-93.116
X147.251Y-140.399
X147.32Y-161.9
X147.447Y-123.317
X147.574Y-95.352
X147.955Y-152.146
X148.324Y-107.909
X148.641Y-139.594
X148.641Y-164.694
X148.946Y-107.391
X148.971Y-210.947
X148.971Y-211.963
X149.248Y-141.379
X149.352Y-161.544
X149.392Y-150.662
X149.555Y-151.486
X149.635Y-106.811
X149.708Y-113.436
X149.789Y-104.544
X149.911Y-167.234
X149.962Y-105.766
X149.968Y-103.755
X150.241Y-206.502
X150.317Y-150.876
X150.368Y-94.132
X150.622Y-96.571
X150.724Y-137.262
X150.774Y-155.346
X150.978Y-168.554
X151.13Y-207.137
X151.181Y-90.576
X151.282Y-138.176
X151.536Y-86.817
X151.994Y-138.938
X152.146Y-199.898
X152.146Y-201.168
X152.146Y-207.645
X152.248Y-82.042
X152.273Y-202.565
X152.298Y-169.316
X152.4Y-75.59
X152.4Y-172.517
X152.451Y-164.744
X152.502Y-112.166
X152.641Y-145.606
X152.654Y-125.222
X152.857Y-106.832
X152.908Y-115.214
X153.06Y-140.056
X153.416Y-69.342
X153.416Y-199.771
X153.416Y-200.914
X153.67Y-170.18
X153.768Y-145.288
X153.924Y-161.798
X154.076Y-141.072
X154.737Y-118.466
X154.737Y-135.026
X154.94Y-171.552
X155.028Y-145.926
X155.194Y-168.685
X155.215Y-142.422
X155.346Y-115.011
X155.575Y-134.214
X155.681Y-137.232
X155.956Y-142.951
X155.971Y-157.719
X156.566Y-149.098
X156.582Y-138.134
X156.769Y-122.987
X157.226Y-195.326
X157.277Y-109.22
X157.548Y-139.099
X157.632Y-165.811
X157.632Y-168.097
X157.861Y-150.617
X157.861Y-202.565
X157.886Y-148.996
X158.115Y-97.917
X158.242Y-187.325
X158.242Y-188.214
X158.496Y-140.056
X158.496Y-184.023
X158.496Y-184.912
X158.75Y-202.565
X159.004Y-77.47
X159.004Y-201.422
X159.055Y-80.213
X159.055Y-160.528
X159.207Y-122.885
X159.207Y-152.883
X159.258Y-108.966
X159.258Y-146.558
X159.258Y-187.325
X159.258Y-188.214
X159.512Y-184.023
X159.512Y-184.912
X159.512Y-219.71
X159.58Y-141.131
X159.893Y-201.422
X159.969Y-186.131
X160.147Y-173.482
X160.223Y-135.026
X160.274Y-187.325
X160.274Y-188.214
X160.528Y-184.023
X160.528Y-184.912
X160.528Y-200.533
X160.621Y-142.172
X160.709Y-135.685
X160.884Y-153.14
X161.188Y-106.985
X161.369Y-142.92
X161.595Y-163.271
X161.671Y-109.22
X161.696Y-132.232
X161.696Y-172.415
X161.747Y-171.298
X161.798Y-170.383
X161.9Y-169.57
X161.925Y-82.55
X161.925Y-83.439
X162.484Y-122.05
X162.611Y-168.808
X162.916Y-145.603
X163.068Y-127.232
X163.093Y-164.567
X163.22Y-109.118
X163.652Y-165.227
X163.678Y-154.635
X163.693Y-135.265
X163.881Y-168.729
X164.01Y-138.987
X164.084Y-160.753
X164.099Y-153.787
X164.124Y-166.664
X164.287Y-125.07
X164.338Y-101.092
X164.338Y-102.235
X164.338Y-199.644
X164.48Y-136.053
X164.592Y-137.058
X164.592Y-197.104
X164.592Y-219.837
X164.719Y-73.025
X164.719Y-73.914
X164.719Y-187.452
X164.719Y-188.341
X165.049Y-151.441
X165.202Y-160.934
X165.227Y-200.406
X165.354Y-101.092
X165.354Y-102.235
X165.481Y-197.866
X165.608Y-164.389
X165.659Y-139.243
X165.735Y-187.452
X165.735Y-188.341
X165.862Y-133.96
X166.116Y-131.369
X166.472Y-165.228
X166.497Y-132.842
X166.624Y-140.056
X166.685Y-121.971
X166.726Y-115.164
X166.776Y-109.372
X166.841Y-137.108
X166.99Y-138.267
X167.081Y-141.072
X167.132Y-166.522
X167.437Y-134.62
X167.464Y-174.572
X167.57Y-141.717
X167.742Y-137.109
X167.894Y-78.486
X167.894Y-158.09
X168.097Y-135.28
X168.097Y-147.698
X168.148Y-154.689
X168.707Y-136.804
X168.758Y-166.492
X168.91Y-135.89
X169.418Y-132.464
X169.469Y-109.271
X169.545Y-97.663
X169.545Y-99.06
X169.799Y-183.769
X169.799Y-185.039
X169.799Y-186.182
X169.853Y-145.846
X170.078Y-209.144
X170.129Y-213.665
X170.434Y-133.807
X170.485Y-145.237
X170.485Y-203.759
X170.486Y-135.658
X170.68Y-146.905
X170.688Y-196.545
X170.815Y-121.793
X170.891Y-192.329
X170.993Y-219.304
X171.145Y-113.538
X171.363Y-160.391
X171.552Y-130.251
X171.601Y-166.492
X171.806Y-182.118
X172.263Y-63.297
X172.822Y-115.062
X172.923Y-122.225
X173.025Y-106.528
X173.228Y-138.43
X173.279Y-127.102
X173.33Y-69.596
X173.33Y-161.544
X173.403Y-136.985
X173.482Y-144.399
X173.533Y-142.748
X173.533Y-146.205
X173.584Y-77.572
X173.6Y-151.705
X173.64Y-148.748
X174.03Y-153.858
X174.041Y-61.214
X174.142Y-138.379
X174.196Y-136.824
X174.396Y-146.205
X174.498Y-169.57
X174.728Y-153.349
X174.757Y-159.741
X174.854Y-108.814
X174.854Y-110.659
X175.36Y-152.7
X175.508Y-129.921
X175.511Y-137.917
X175.768Y-85.496
X175.799Y-146.589
X175.819Y-135.658
X176.073Y-161.95
X176.143Y-142.161
X176.149Y-131.318
X176.682Y-168.046
X176.682Y-225.298
X176.886Y-69.037
X176.886Y-91.034
X176.93Y-139.122
X177.089Y-138.328
X177.14Y-82.601
X177.19Y-73.406
X177.394Y-76.302
X177.521Y-160.503
X177.597Y-165.71
X177.731Y-145.545
X177.902Y-126.644
X177.978Y-135.966
X178.054Y-131.216
X178.054Y-144.399
X178.156Y-158.62
X178.257Y-167.234
X178.562Y-129.921
X178.968Y-109.118
X179.07Y-159.41
X179.324Y-142.161
X179.324Y-210.312
X179.349Y-117.246
X179.375Y-119.228
X179.629Y-172.771
X180.086Y-163.17
X180.34Y-210.312
X180.761Y-156.703
X180.848Y-84.201
X180.899Y-134.925
X181.0Y-144.17
X181.087Y-135.723
X181.102Y-82.804
X181.127Y-131.75
X181.204Y-124.003
X181.229Y-197.104
X181.269Y-151.704
X181.356Y-129.667
X181.356Y-153.924
X181.356Y-198.755
X181.429Y-141.529
X181.477Y-122.46
X181.61Y-130.937
X181.61Y-139.065
X181.737Y-163.801
X181.966Y-170.383
X181.966Y-171.298
X182.067Y-119.228
X182.118Y-117.196
X182.118Y-140.868
X182.135Y-172.089
X182.137Y-156.291
X182.474Y-146.66
X182.626Y-127.203
X182.626Y-151.66
X182.829Y-152.444
X183.126Y-139.983
X183.185Y-136.246
X183.388Y-163.83
X183.744Y-165.71
X183.744Y-137.798
X183.794Y-150.619
X183.861Y-158.717
X183.947Y-113.233
X184.252Y-139.119
X184.277Y-194.945
X184.33Y-128.878
X184.404Y-193.802
X184.506Y-159.207
X184.556Y-92.459
X184.556Y-169.062
X184.861Y-127.965
X184.912Y-79.756
X184.912Y-80.772
X184.912Y-81.661
X184.912Y-153.797
X185.166Y-199.898
X185.217Y-137.595
X185.217Y-139.119
X185.42Y-147.523
X185.623Y-120.752
X185.744Y-128.524
X185.877Y-135.23
X186.026Y-139.119
X186.055Y-79.756
X186.055Y-80.772
X186.055Y-81.661
X186.08Y-144.882
X186.284Y-108.712
X186.284Y-122.377
X186.334Y-92.405
X186.334Y-160.071
X186.385Y-170.332
X186.436Y-126.238
X186.641Y-171.1
X186.995Y-91.288
X186.995Y-105.867
X187.096Y-122.53
X187.096Y-171.856
X187.198Y-225.298
X187.517Y-151.573
X187.554Y-157.001
X187.579Y-79.883
X187.579Y-80.772
X187.579Y-81.788
X187.604Y-152.603
X187.669Y-172.429
X187.677Y-116.267
X187.808Y-104.038
X187.909Y-117.043
X187.909Y-127.051
X187.91Y-160.811
X188.229Y-90.947
X188.417Y-131.42
X188.57Y-144.205
X188.595Y-79.883
X188.595Y-80.772
X188.595Y-81.788
X188.824Y-103.988
X188.824Y-142.121
X188.824Y-160.63
X188.824Y-205.74
X189.232Y-156.462
X189.244Y-136.042
X189.281Y-90.932
X189.484Y-165.681
X189.535Y-85.801
X189.535Y-169.113
X189.636Y-137.595
X189.885Y-156.941
X189.992Y-195.961
X190.043Y-126.136
X190.297Y-160.731
X190.349Y-159.89
X190.398Y-165.71
X190.398Y-169.113
X190.602Y-135.23
X190.602Y-141.703
X190.612Y-152.897
X190.754Y-118.821
X191.135Y-193.548
X191.313Y-147.523
X191.364Y-146.079
X191.567Y-165.738
X191.618Y-151.384
X191.618Y-163.474
X191.668Y-156.515
X191.673Y-149.882
X191.872Y-139.192
X191.922Y-141.834
X192.122Y-147.941
X192.122Y-149.205
X192.532Y-114.402
X192.913Y-194.183
X193.142Y-162.458
X193.192Y-205.334
X193.396Y-83.741
X193.599Y-165.681
X193.802Y-195.58
X194.615Y-154.991
X194.716Y-142.705
X194.945Y-123.571
X195.124Y-144.148
X195.326Y-91.186
X195.326Y-136.55
X195.453Y-131.572
X195.478Y-150.876
X195.478Y-163.424
X195.58Y-192.278
X195.58Y-193.294
X195.732Y-166.951
X195.834Y-86.411
X195.834Y-135.026
X195.834Y-177.343
X196.079Y-143.193
X196.139Y-136.652
X196.139Y-138.941
X196.16Y-140.411
X196.161Y-151.636
X196.19Y-162.712
X196.545Y-74.879
X196.545Y-152.349
X196.713Y-138.139
X196.748Y-139.573
X196.901Y-162.074
X197.14Y-158.481
X197.207Y-150.644
X197.409Y-133.248
X197.46Y-142.313
X197.46Y-153.06
X197.51Y-145.412
X197.561Y-167.03
X197.612Y-117.856
X198.11Y-151.547
X198.12Y-159.664
X198.224Y-154.658
X199.034Y-83.721
X199.136Y-167.03
X199.223Y-158.837
X199.593Y-156.921
X199.695Y-138.328
X199.746Y-147.446
X199.771Y-87.884
X199.771Y-88.773
X199.796Y-146.406
X199.847Y-111.608
X199.949Y-140.513
X200.0Y-150.644
X200.255Y-153.692
X200.406Y-120.193
X200.558Y-156.21
X200.711Y-138.532
X200.787Y-87.884
X200.787Y-88.773
X200.812Y-83.089
X200.812Y-134.671
X200.914Y-192.913
X200.914Y-194.183
X201.041Y-151.13
X201.041Y-210.693
X201.117Y-110.693
X201.32Y-159.918
X202.057Y-211.582
X202.111Y-159.156
X202.438Y-88.138
X202.54Y-110.541
X202.562Y-130.404
X202.641Y-136.877
X202.743Y-143.561
X202.743Y-148.71
X202.743Y-156.21
X202.946Y-188.976
X202.946Y-189.738
X202.946Y-193.929
X203.073Y-210.693
X203.317Y-137.551
X203.327Y-88.138
X203.375Y-154.649
X203.403Y-151.13
X203.505Y-155.448
X203.657Y-131.928
X203.911Y-136.246
X204.114Y-129.845
X204.343Y-212.979
X204.343Y-213.868
X204.46Y-151.191
X204.521Y-148.71
X204.8Y-153.416
X204.826Y-138.328
X205.08Y-129.692
X205.13Y-86.36
X205.145Y-139.38
X205.283Y-127.406
X205.359Y-211.582
X205.384Y-143.459
X205.486Y-148.71
X205.486Y-151.384
X205.994Y-159.788
X206.004Y-156.555
X206.118Y-147.422
X206.375Y-210.693
X206.375Y-213.868
X206.677Y-138.227
X206.807Y-85.141
X207.01Y-89.154
X207.213Y-154.33
X207.518Y-205.232
X207.518Y-206.121
X207.569Y-111.506
X207.62Y-138.582
X207.645Y-210.82
X207.772Y-122.123
X207.874Y-143.256
X208.407Y-208.661
X208.407Y-209.55
X208.534Y-205.232
X208.534Y-206.121
X208.661Y-211.709
X208.89Y-157.023
X208.915Y-87.63
X209.093Y-119.329
X209.357Y-131.917
X209.423Y-141.351
X209.55Y-205.232
X209.55Y-206.121
X209.677Y-210.82
X210.094Y-160.645
X210.335Y-120.038
X210.439Y-208.661
X210.439Y-209.55
X210.566Y-133.35
X210.566Y-195.453
X210.566Y-197.231
X210.82Y-117.5
X210.922Y-148.387
X211.176Y-143.256
X211.201Y-201.168
X211.48Y-65.075
X211.48Y-65.837
X211.709Y-198.755
X211.785Y-151.108
X212.09Y-75.946
X212.344Y-145.412
X212.471Y-201.295
X212.725Y-141.735
X212.903Y-79.908
X213.614Y-142.999
X213.868Y-119.329
X213.995Y-138.811
X214.02Y-148.793
X214.071Y-89.433
X214.122Y-193.421
X214.122Y-194.31
X214.274Y-78.13
X214.376Y-201.93
X214.63Y-168.046
X214.846Y-178.171
X214.849Y-175.663
X215.087Y-77.114
X215.116Y-143.562
X215.138Y-133.477
X215.138Y-193.421
X215.138Y-194.31
X215.163Y-88.875
X215.24Y-130.353
X215.265Y-149.123
X215.392Y-206.629
X215.443Y-171.769
X215.497Y-79.846
X215.544Y-175.006
X215.748Y-122.631
X216.027Y-211.455
X216.154Y-142.545
X216.256Y-149.047
X216.535Y-193.294
X216.535Y-194.183
X216.535Y-208.661
X217.084Y-141.773
X217.17Y-182.372
X217.322Y-166.675
X217.551Y-193.294
X217.551Y-194.183
X217.678Y-138.811
X217.805Y-137.16
X217.907Y-169.799
X218.313Y-132.715
X218.389Y-41.656
X218.567Y-205.359
X219.1Y-130.912
X219.1Y-137.871
X219.187Y-148.981
X219.304Y-178.054
X219.862Y-49.682
X220.015Y-136.5
X220.091Y-198.501
X220.116Y-150.012
X220.167Y-79.604
X220.269Y-139.598
X220.345Y-87.757
X220.37Y-134.214
X220.421Y-41.656
X220.472Y-115.316
X220.589Y-143.119
X220.726Y-144.653
X220.726Y-210.693
X220.726Y-211.582
X220.853Y-203.2
X221.132Y-49.733
X221.234Y-196.088
X221.234Y-197.866
X221.361Y-167.894
X221.59Y-180.238
X221.615Y-188.087
X221.615Y-189.357
X221.615Y-190.627
X221.625Y-166.029
X221.996Y-137.82
X222.098Y-170.891
X222.123Y-153.591
X222.453Y-87.986
X222.656Y-41.656
X222.758Y-130.556
X223.058Y-179.634
X223.266Y-195.707
X223.266Y-197.231
X223.52Y-127.559
X223.647Y-208.534
X223.901Y-148.082
X223.901Y-210.566
X223.901Y-211.455
X224.028Y-156.972
X224.155Y-115.443
X224.155Y-116.459
X224.155Y-117.475
X225.044Y-165.227
X225.171Y-115.443
X225.171Y-116.459
X225.171Y-117.475
X225.298Y-148.59
X225.552Y-129.667
X225.679Y-78.994
X225.679Y-80.899
X225.806Y-197.358
X226.568Y-181.0
X226.695Y-160.02
X226.822Y-115.443
X226.822Y-116.459
X226.822Y-117.348
X226.949Y-81.026
X227.076Y-78.867
X227.381Y-173.177
X227.736Y-139.7
X227.838Y-115.443
X227.838Y-116.459
X227.838Y-117.348
X227.838Y-156.972
X227.838Y-192.532
X227.838Y-193.421
X227.99Y-136.398
X228.092Y-189.865
X228.092Y-190.754
X228.346Y-146.406
X228.431Y-159.851
X228.752Y-182.829
X228.854Y-104.267
X228.854Y-192.532
X228.854Y-193.421
X229.108Y-148.59
X229.108Y-189.865
X229.108Y-190.754
X229.108Y-204.724
X229.108Y-205.613
X229.235Y-208.407
X229.235Y-209.296
X229.743Y-192.532
X229.743Y-193.421
X229.997Y-189.865
X229.997Y-190.754
X230.073Y-126.289
X230.124Y-183.845
X230.124Y-204.724
X230.124Y-205.613
X230.251Y-208.407
X230.251Y-209.296
X230.632Y-157.226
X230.632Y-164.846
X230.683Y-225.349
X230.886Y-201.168
X231.102Y-181.905
X231.648Y-114.173
X231.712Y-134.175
X231.775Y-112.395
X231.902Y-164.592
X231.902Y-201.168
X232.791Y-157.988
X232.918Y-96.571
X232.918Y-199.339
X232.943Y-171.475
X233.045Y-201.041
X234.061Y-136.525
X235.077Y-139.7
X235.077Y-165.608
X235.331Y-142.875
X236.22Y-151.511
X236.347Y-138.811
X236.474Y-166.878
X236.677Y-39.116
X236.728Y-136.55
X237.109Y-84.582
X237.236Y-150.495
X237.236Y-178.181
X237.617Y-139.827
X237.642Y-147.93
X237.693Y-134.417
X237.871Y-152.908
X237.998Y-84.582
X238.379Y-168.148
X238.847Y-152.233
X239.065Y-39.116
X239.814Y-136.563
X239.903Y-86.106
X240.03Y-178.308
X240.219Y-87.949
X240.894Y-159.868
X241.173Y-146.558
X241.351Y-152.298
X241.554Y-149.098
X242.189Y-142.875
X242.316Y-133.829
X242.697Y-148.082
X242.824Y-157.861
X243.586Y-193.294
X243.586Y-210.82
X243.751Y-130.086
X244.094Y-160.528
X244.157Y-146.368
X244.602Y-193.294
X244.602Y-210.82
X244.78Y-144.396
X245.059Y-140.36
X245.11Y-145.796
X245.3Y-130.874
X245.516Y-136.5
X245.77Y-153.289
X245.974Y-224.993
X247.091Y-134.163
X247.777Y-192.532
X249.254Y-198.882
X249.733Y-135.534
X249.733Y-188.163
X249.936Y-198.882
X250.825Y-138.176
X252.324Y-44.856
X252.628Y-38.811
X252.832Y-205.892
X252.857Y-157.734
X253.39Y-134.264
X254.457Y-139.243
X254.508Y-156.718
X254.762Y-193.548
X255.397Y-155.575
X255.524Y-164.465
X255.651Y-143.002
X255.778Y-165.481
X256.667Y-193.167
X257.099Y-142.545
X257.708Y-205.334
X258.115Y-160.985
X258.216Y-188.925
X259.436Y-222.352
X259.486Y-210.972
X259.537Y-216.56
X259.639Y-38.913
X259.842Y-196.088
X259.893Y-208.839
X260.096Y-199.085
X260.909Y-201.524
X261.112Y-192.532
X261.112Y-193.294
X261.112Y-205.334
X262.026Y-197.206
X262.28Y-44.298
X262.28Y-171.145
X262.763Y-177.673
X263.017Y-88.519
X263.144Y-74.041
X263.271Y-69.596
X263.271Y-71.247
X263.614Y-108.293
X263.754Y-160.934
X264.033Y-80.899
X264.16Y-82.931
X264.363Y-52.476
X265.198Y-86.157
X265.938Y-212.852
X266.649Y-39.421
X266.7Y-109.83
X266.7Y-192.405
X266.827Y-194.31
X266.827Y-212.852
X267.208Y-84.277
X267.716Y-192.405
X267.97Y-194.183
X268.224Y-79.375
X268.478Y-188.722
X268.478Y-189.484
X269.621Y-77.851
X270.129Y-207.137
X270.129Y-208.026
X270.383Y-210.312
X270.383Y-211.201
X270.51Y-71.12
X270.51Y-194.31
X270.637Y-68.199
X271.145Y-207.137
X271.145Y-208.026
X271.272Y-82.931
X271.323Y-129.743
X271.399Y-210.312
X271.399Y-211.201
X271.526Y-68.199
X271.526Y-71.12
X271.907Y-87.122
X272.034Y-207.137
X272.034Y-208.026
X272.288Y-210.312
X272.288Y-211.201
X272.339Y-173.634
X273.812Y-80.264
X274.523Y-134.112
X274.574Y-176.632
X276.098Y-83.185
X276.098Y-88.519
X277.063Y-178.054
X278.13Y-179.832
X278.892Y-98.298
X281.483Y-141.732
X281.483Y-143.713
X281.483Y-145.593
X281.483Y-147.523
X282.194Y-156.171
X282.321Y-152.107
X283.007Y-148.184
X284.785Y-148.234
X285.242Y-156.171
X285.369Y-171.03
X285.496Y-166.458
X285.623Y-161.632
X285.623Y-164.299
X286.639Y-171.03
X286.664Y-148.184
X286.766Y-166.458
X286.893Y-161.505
X287.02Y-156.171
X287.02Y-164.299
X287.401Y-98.171
X287.401Y-101.092
X287.782Y-131.915
X287.782Y-133.184
X287.782Y-136.613
X287.782Y-138.264
X287.909Y-104.013
X287.909Y-105.791
X288.036Y-130.429
X288.417Y-148.133
X288.798Y-109.093
X288.798Y-110.49
X288.798Y-160.998
X288.798Y-166.116
X289.306Y-99.822
X289.306Y-101.346
X289.306Y-130.429
X289.865Y-163.17
X289.941Y-109.093
X289.941Y-110.49
X290.322Y-99.822
X290.322Y-101.346
X291.186Y-169.723
X292.1Y-135.47
X292.1Y-136.487
X292.1Y-137.375
X292.227Y-92.329
X292.481Y-160.998
X292.964Y-143.344
X292.964Y-144.106
X292.989Y-138.772
X292.989Y-139.661
X293.116Y-107.188
X293.116Y-108.61
X293.497Y-90.932
X293.751Y-133.184
X293.751Y-134.073
X293.853Y-143.344
X293.853Y-144.106
X293.98Y-111.404
X294.513Y-133.184
X294.513Y-134.073
X294.767Y-104.775
X294.767Y-105.664
X295.021Y-73.914
X295.021Y-77.851
X295.097Y-163.017
X295.148Y-85.471
X295.351Y-112.37
X295.783Y-104.775
X295.783Y-105.664
X295.91Y-125.933
X296.418Y-72.644
X297.053Y-79.121
X297.18Y-131.406
X297.434Y-105.283
X297.434Y-139.407
X297.688Y-97.384
X297.688Y-156.425
X297.815Y-161.124
X298.323Y-74.676
X298.323Y-110.363
X298.323Y-111.379
X298.348Y-124.206
X298.577Y-106.934
X298.577Y-108.966
X298.704Y-68.707
X298.831Y-103.124
X298.831Y-158.076
X298.958Y-153.772
X299.161Y-100.736
X299.212Y-80.772
X299.339Y-85.217
X299.822Y-160.376
X300.101Y-156.171
X300.177Y-169.723
X300.33Y-95.555
X300.482Y-104.267
X300.685Y-160.325
X301.117Y-139.534
X301.549Y-121.92
X301.752Y-104.267
X301.904Y-85.192
X302.768Y-68.199
X302.768Y-73.406
X302.895Y-131.66
X303.149Y-111.379
X303.479Y-83.464
X303.655Y-152.4
X303.655Y-154.178
X303.657Y-78.232
X303.682Y-93.472
X303.784Y-72.39
X303.911Y-139.534
X304.292Y-189.992
X304.544Y-157.226
X304.544Y-159.512
X304.698Y-87.884
X304.8Y-76.2
X305.511Y-173.533
X305.689Y-78.613
X306.197Y-131.787
X306.451Y-67.31
X306.832Y-78.613
X307.188Y-159.766
X307.467Y-65.151
X307.467Y-76.2
X307.599Y-140.296
X307.853Y-132.549
X307.975Y-72.39
X307.975Y-73.66
X308.864Y-107.696
X308.991Y-111.379
X309.118Y-103.251
X309.728Y-176.987
X309.751Y-159.893
X309.982Y-83.109
X310.388Y-152.019
X310.388Y-156.591
X310.896Y-93.599
X311.023Y-97.917
X313.309Y-80.264
X313.436Y-72.771
X314.071Y-75.311
X314.706Y-77.851
X314.757Y-88.341
X314.858Y-82.855
X315.595Y-192.532
X316.992Y-111.811
X317.094Y-107.899
X317.144Y-115.214
X317.246Y-76.708
X317.449Y-85.954
X317.449Y-101.346
X317.5Y-92.761
X317.881Y-193.294
X317.881Y-196.977
X317.957Y-187.985
X318.389Y-79.248
X318.389Y-81.28
X318.643Y-191.516
X318.643Y-198.374
X318.668Y-115.164
X319.075Y-72.39
X319.075Y-73.279
X319.151Y-175.895
X319.532Y-172.466
X319.913Y-197.063
X319.997Y-188.029
X320.316Y-193.145
X320.497Y-115.164
X321.691Y-197.485
X322.072Y-198.882
X322.58Y-186.182
X322.58Y-187.198
X322.58Y-188.087
X322.707Y-191.897
X323.494Y-105.613
X323.647Y-96.012
X323.85Y-68.199
X323.977Y-74.168
X324.002Y-89.865
X324.053Y-81.94
X324.993Y-68.199
X325.882Y-74.168
X326.136Y-68.199
X326.238Y-115.164
X327.533Y-175.514
X327.914Y-72.517
X328.574Y-115.113
X329.819Y-74.549
X330.657Y-115.062
X330.86Y-111.912
X330.962Y-101.651
X331.114Y-85.852
X331.114Y-91.338
X331.597Y-74.549
X331.724Y-77.851
X331.724Y-81.407
T3
X148.717Y-179.959
X166.243Y-191.723
X167.259Y-191.723
X168.148Y-191.723
X273.177Y-203.708
X273.939Y-202.819
X275.082Y-202.819
X275.59Y-203.708
X278.638Y-210.185
X278.638Y-211.201
X278.638Y-212.217
T4
X51.867Y-196.85
X64.712Y-186.611
X67.718Y-202.641
X75.311Y-103.378
X77.622Y-54.712
X78.486Y-77.165
X79.807Y-100.635
X81.026Y-110.846
X83.312Y-102.21
X88.975Y-89.136
X92.531Y-91.192
X94.996Y-74.803
X95.86Y-183.998
X99.67Y-183.998
X103.53Y-85.491
X106.934Y-188.468
X110.134Y-182.372
X110.338Y-54.254
X110.846Y-72.796
X113.03Y-176.53
X119.407Y-181.61
X120.65Y-186.69
X120.904Y-200.406
X121.261Y-187.741
X123.952Y-178.308
X125.07Y-186.995
X127.762Y-68.58
X128.118Y-188.57
X128.626Y-186.944
X129.54Y-76.708
X139.141Y-165.608
X143.104Y-100.381
X143.183Y-163.879
X144.729Y-71.73
X146.812Y-101.752
X154.686Y-91.948
X159.766Y-68.834
X159.766Y-87.63
X162.306Y-76.454
X168.91Y-91.186
X176.022Y-202.946
X180.023Y-187.544
X180.379Y-188.814
X183.782Y-206.238
X184.658Y-213.106
X184.849Y-188.509
X192.024Y-178.562
X193.131Y-188.661
X198.397Y-181.905
X201.422Y-77.826
X203.962Y-176.276
X209.105Y-134.048
X209.296Y-78.283
X212.242Y-61.722
X213.055Y-82.448
X213.642Y-78.921
X214.732Y-184.506
X216.408Y-52.832
X217.424Y-124.308
X219.431Y-184.455
X220.726Y-127.152
X227.076Y-185.674
X227.482Y-220.218
X232.359Y-220.574
X233.426Y-179.324
X233.807Y-184.404
X240.284Y-197.358
X244.49Y-187.645
X244.49Y-189.017
X248.049Y-206.416
X248.07Y-181.854
X248.158Y-214.122
X248.455Y-42.502
X252.222Y-183.134
X255.27Y-188.214
X256.159Y-167.386
X256.43Y-41.842
X257.937Y-168.656
X258.953Y-167.386
X264.363Y-105.664
X264.871Y-84.988
X266.802Y-83.058
X278.638Y-168.783
X278.765Y-165.735
X293.445Y-124.167
X294.471Y-126.962
X294.95Y-95.377
X295.631Y-124.167
X295.976Y-98.933
X297.053Y-95.377
X299.212Y-127.088
X300.355Y-99.06
X320.548Y-198.247
X320.675Y-191.643
X321.946Y-193.294
T5
X184.302Y-97.485
X184.302Y-105.105
X199.542Y-97.485
X199.542Y-105.105
T6
X261.901Y-55.964
X272.601Y-55.964
T7
X263.39Y-59.114
X263.39Y-66.734
X265.93Y-59.114
X265.93Y-66.734
X268.47Y-59.114
X268.47Y-66.734
X271.01Y-59.114
X271.01Y-66.734
T8
X205.638Y-104.771
X205.638Y-109.271
X212.138Y-104.771
X212.138Y-109.271
T9
X237.236Y-86.411
X237.236Y-88.951
X237.236Y-91.491
X237.236Y-94.031
X237.236Y-96.571
X237.236Y-99.111
X237.236Y-101.651
X237.236Y-104.191
X237.236Y-106.731
X237.236Y-109.271
X237.236Y-111.811
X237.236Y-114.351
X237.236Y-116.891
X237.236Y-119.431
T10
X46.228Y-195.707
X46.228Y-198.247
X47.142Y-79.4
X47.193Y-87.708
X47.396Y-95.809
X47.498Y-103.48
X48.463Y-159.12
X48.463Y-164.72
X48.463Y-170.32
X48.463Y-175.92
X49.53Y-136.362
X49.53Y-141.962
X49.53Y-147.562
X49.53Y-153.162
X49.682Y-79.4
X49.733Y-87.708
X49.936Y-95.809
X50.038Y-103.48
X50.749Y-118.11
X50.749Y-124.003
X50.749Y-130.048
X50.851Y-112.37
X51.003Y-159.12
X51.003Y-164.72
X51.003Y-170.32
X51.003Y-175.92
X52.07Y-136.362
X52.07Y-141.962
X52.07Y-147.562
X52.07Y-153.162
X53.289Y-118.11
X53.289Y-124.003
X53.289Y-130.048
X53.391Y-112.37
X57.785Y-172.593
X57.785Y-175.133
X64.465Y-220.98
X67.005Y-220.98
X67.234Y-112.09
X68.453Y-179.959
X68.453Y-182.499
X68.961Y-100.076
X68.961Y-102.616
X69.774Y-112.09
X70.155Y-171.831
X72.314Y-140.843
X72.695Y-171.831
X74.168Y-180.086
X74.168Y-182.626
X74.651Y-109.423
X74.778Y-153.162
X74.854Y-140.843
X75.336Y-162.204
X76.556Y-198.222
X76.962Y-116.459
X76.962Y-118.999
X77.191Y-109.423
X77.318Y-153.162
X77.876Y-162.204
X78.029Y-171.882
X79.096Y-198.222
X80.569Y-171.882
X82.956Y-83.541
X82.956Y-86.081
X83.312Y-40.742
X83.312Y-43.282
X83.312Y-55.829
X83.312Y-58.369
X83.414Y-63.5
X83.414Y-66.04
X83.464Y-48.158
X83.464Y-50.698
X83.617Y-162.204
X84.709Y-212.09
X84.709Y-214.63
X85.369Y-171.755
X86.157Y-162.204
X87.909Y-171.755
X88.392Y-222.199
X90.805Y-95.377
X90.932Y-222.199
X92.1Y-153.162
X93.345Y-95.377
X94.64Y-153.162
X100.152Y-119.837
X100.584Y-199.771
X100.584Y-202.311
X100.838Y-215.392
X100.838Y-217.932
X102.692Y-119.837
X103.378Y-225.171
X105.867Y-128.143
X105.918Y-225.171
X106.401Y-153.34
X106.401Y-155.88
X107.899Y-192.481
X107.899Y-195.021
X108.407Y-128.143
X108.585Y-164.338
X108.585Y-166.878
X109.855Y-112.649
X112.395Y-112.649
X114.808Y-75.286
X114.808Y-77.826
X114.808Y-97.409
X114.808Y-99.949
X116.027Y-62.992
X116.027Y-65.532
X116.078Y-40.691
X116.078Y-43.231
X116.078Y-48.108
X116.078Y-50.648
X116.078Y-55.524
X116.078Y-58.064
X118.11Y-176.149
X119.532Y-221.691
X120.65Y-176.149
X122.072Y-221.691
X130.581Y-195.047
X130.581Y-197.587
X131.318Y-176.657
X131.318Y-179.197
X131.445Y-149.352
X132.918Y-91.669
X132.918Y-94.209
X133.985Y-149.352
X134.671Y-105.156
X135.331Y-130.973
X135.331Y-133.513
X136.906Y-198.374
X137.211Y-105.156
X139.065Y-218.694
X139.065Y-221.234
X139.446Y-198.374
X139.751Y-167.869
X140.056Y-150.012
X142.291Y-167.869
X142.596Y-150.012
X144.729Y-117.856
X147.269Y-117.856
X148.082Y-87.046
X148.082Y-89.586
X148.463Y-74.93
X148.463Y-77.47
X148.539Y-55.524
X148.539Y-58.064
X148.539Y-62.84
X148.539Y-65.38
X148.59Y-40.538
X148.59Y-43.078
X148.59Y-48.108
X148.59Y-50.648
X149.327Y-122.707
X151.867Y-122.707
X152.171Y-193.573
X152.171Y-196.113
X154.051Y-204.343
X156.591Y-204.343
X156.972Y-215.011
X156.972Y-217.551
X165.405Y-117.246
X167.64Y-185.293
X167.64Y-187.833
X167.945Y-117.246
X175.031Y-121.234
X177.571Y-121.234
X177.673Y-101.346
X177.673Y-103.886
X181.305Y-55.575
X181.305Y-58.115
X181.305Y-63.043
X181.305Y-65.583
X181.356Y-40.488
X181.356Y-43.028
X181.356Y-47.803
X181.356Y-50.343
X182.321Y-220.726
X183.134Y-183.947
X184.658Y-71.882
X184.861Y-220.726
X185.674Y-183.947
X187.198Y-71.882
X191.567Y-110.261
X191.567Y-112.801
X192.176Y-199.847
X192.811Y-124.181
X192.811Y-126.721
X194.716Y-199.847
X201.295Y-214.63
X201.295Y-217.17
X202.489Y-185.776
X205.003Y-168.58
X205.029Y-185.776
X205.359Y-196.469
X207.366Y-96.672
X207.543Y-168.58
X207.899Y-196.469
X207.899Y-224.663
X209.906Y-96.672
X209.931Y-127.0
X210.439Y-224.663
X212.471Y-127.0
X217.297Y-95.123
X218.44Y-103.53
X219.837Y-95.123
X220.472Y-214.503
X220.472Y-217.043
X220.98Y-103.53
X222.377Y-224.536
X224.917Y-224.536
X224.968Y-169.062
X224.968Y-171.602
X225.831Y-97.13
X225.831Y-99.67
X229.387Y-82.626
X229.845Y-169.012
X229.845Y-171.552
X231.216Y-92.202
X231.216Y-94.742
X231.699Y-159.918
X231.927Y-82.626
X234.239Y-159.918
X236.804Y-74.397
X239.344Y-74.397
X241.833Y-165.506
X241.833Y-170.307
X243.281Y-220.878
X243.332Y-183.515
X244.221Y-68.732
X244.373Y-165.506
X244.373Y-170.307
X245.44Y-73.533
X245.745Y-80.823
X245.821Y-220.878
X245.872Y-183.515
X246.304Y-59.055
X246.761Y-68.732
X247.142Y-159.08
X247.98Y-73.533
X248.285Y-80.823
X248.844Y-59.055
X249.682Y-159.08
X250.139Y-166.929
X251.206Y-171.653
X251.587Y-178.308
X252.679Y-166.929
X253.746Y-171.653
X254.127Y-178.308
X254.356Y-198.882
X256.159Y-225.044
X256.261Y-94.742
X256.896Y-198.882
X258.699Y-225.044
X258.801Y-94.742
X260.008Y-181.803
X260.008Y-184.343
X266.319Y-216.916
X266.319Y-219.456
X270.891Y-95.504
X273.431Y-95.504
X283.21Y-124.548
X283.21Y-127.088
X286.385Y-173.444
X286.512Y-114.935
X288.925Y-173.444
X289.052Y-114.935
X320.548Y-203.581
X320.751Y-210.668
X323.088Y-203.581
X323.291Y-210.668
X328.168Y-61.595
X329.108Y-210.515
X329.311Y-203.581
X329.59Y-192.938
X329.59Y-195.478
X330.708Y-61.595
X330.708Y-70.231
X330.708Y-72.771
X331.648Y-210.515
X331.851Y-203.581
X332.08Y-175.209
X332.08Y-177.749
T11
X57.607Y-134.061
X57.658Y-148.92
X60.147Y-134.061
X60.198Y-148.92
X62.687Y-134.061
X62.738Y-148.92
X65.227Y-134.061
X65.278Y-148.92
X67.767Y-134.061
X67.818Y-148.92
X70.307Y-134.061
X70.358Y-148.92
X72.847Y-134.061
X72.898Y-148.92
X75.387Y-134.061
X75.438Y-148.92
X77.927Y-134.061
X77.978Y-148.92
X80.467Y-134.061
X80.518Y-148.92
X83.007Y-134.061
X83.058Y-148.92
X85.547Y-134.061
X85.598Y-148.92
X88.087Y-134.061
X88.138Y-148.92
X90.627Y-134.061
X90.678Y-148.92
X93.167Y-134.061
X93.218Y-148.92
X95.707Y-134.061
X95.758Y-148.92
X98.247Y-134.061
X98.298Y-148.92
X100.787Y-134.061
X100.838Y-148.92
X103.327Y-134.061
X103.378Y-148.92
X105.867Y-134.061
X105.918Y-148.92
X108.407Y-134.061
X108.458Y-148.92
X110.947Y-134.061
X110.998Y-148.92
X113.487Y-134.061
X113.538Y-148.92
X116.027Y-134.061
X116.078Y-148.92
X323.407Y-112.716
X323.407Y-115.256
X323.407Y-117.796
X323.407Y-120.336
X323.407Y-158.436
X323.407Y-160.976
X323.407Y-163.516
T12
X299.466Y-62.738
X302.006Y-62.738
X304.546Y-62.738
X307.086Y-62.738
X309.626Y-62.738
X312.166Y-62.738
X314.706Y-62.738
X317.246Y-62.738
X319.786Y-62.738
T13
X144.018Y-224.536
X146.558Y-224.536
X149.098Y-224.536
X151.638Y-224.536
X156.921Y-224.536
X159.461Y-224.536
X162.001Y-224.536
X164.541Y-224.536
X272.136Y-113.995
X272.136Y-116.535
X272.136Y-119.075
X272.136Y-121.615
X272.491Y-140.411
X272.491Y-142.951
X272.491Y-145.491
X272.491Y-148.031
X273.253Y-224.384
X275.793Y-224.384
X278.333Y-224.384
X280.873Y-224.384
X281.534Y-62.433
X284.074Y-62.433
X286.614Y-62.433
X287.376Y-224.536
X289.154Y-62.433
X289.916Y-224.536
X292.456Y-224.536
X294.996Y-224.536
X305.156Y-224.536
X307.696Y-224.536
X310.236Y-224.536
X312.776Y-224.536
X318.77Y-224.536
X321.31Y-224.536
X323.85Y-224.536
X326.39Y-224.536
T14
X58.489Y-48.67
X59.639Y-62.07
X62.939Y-54.07
X66.939Y-58.27
X70.739Y-54.07
X72.039Y-62.07
X74.339Y-49.97
X75.339Y-54.07
X91.289Y-48.695
X92.439Y-62.095
X95.739Y-54.095
X99.739Y-58.295
X103.539Y-54.095
X104.839Y-62.095
X107.139Y-49.995
X108.139Y-54.095
X123.939Y-48.595
X125.089Y-61.995
X128.389Y-53.995
X132.389Y-58.195
X136.189Y-53.995
X137.489Y-61.995
X139.789Y-49.895
X140.789Y-53.995
X156.489Y-48.495
X157.639Y-61.895
X160.939Y-53.895
X164.939Y-58.095
X168.739Y-53.895
X170.039Y-61.895
X172.339Y-49.795
X173.339Y-53.895
T15
X124.155Y-117.856
X126.695Y-117.856
X129.235Y-117.856
X131.775Y-117.856
X134.315Y-117.856
X142.24Y-132.969
X144.78Y-132.969
X147.32Y-132.969
X149.86Y-132.969
X152.4Y-132.969
X153.924Y-178.054
X156.464Y-178.054
X159.004Y-178.054
X161.544Y-178.054
X164.084Y-178.054
X174.879Y-176.022
X177.419Y-176.022
X179.959Y-176.022
X182.499Y-176.022
X185.039Y-176.022
X197.739Y-42.291
X198.12Y-115.316
X200.279Y-42.291
X200.66Y-115.316
X202.819Y-42.291
X203.2Y-115.316
X205.359Y-42.291
X205.74Y-115.316
X207.899Y-42.291
X208.28Y-115.316
T16
X51.689Y-206.756
X51.689Y-209.296
X51.689Y-211.836
X53.174Y-186.436
X53.174Y-188.976
X53.174Y-191.516
X63.754Y-101.6
X63.754Y-104.14
X63.754Y-106.68
X89.447Y-201.067
X89.447Y-203.607
X89.447Y-206.147
X95.377Y-190.588
X97.917Y-190.588
X100.457Y-190.588
X101.981Y-99.861
X104.521Y-99.861
X106.807Y-207.645
X106.807Y-210.185
X106.807Y-212.725
X107.061Y-99.861
X114.173Y-160.655
X116.713Y-160.655
X119.253Y-160.655
X120.65Y-99.949
X123.19Y-99.949
X125.73Y-99.949
X128.143Y-160.616
X130.683Y-160.616
X133.223Y-160.616
X136.906Y-178.943
X139.446Y-178.943
X141.986Y-178.943
X144.692Y-208.947
X144.692Y-211.487
X144.692Y-214.027
X159.766Y-103.886
X162.306Y-103.886
X162.687Y-185.293
X162.687Y-187.833
X162.687Y-190.373
X162.775Y-197.485
X162.775Y-200.025
X162.775Y-202.565
X164.846Y-103.886
X183.007Y-77.812
X185.547Y-77.812
X188.087Y-77.812
X197.739Y-86.36
X200.279Y-86.36
X202.819Y-86.36
X205.74Y-203.2
X205.74Y-205.74
X205.74Y-208.28
X211.963Y-191.731
X212.979Y-155.067
X214.503Y-191.731
X215.519Y-155.067
X217.043Y-191.731
X218.059Y-155.067
X222.123Y-119.214
X224.663Y-119.214
X227.203Y-119.214
X227.457Y-206.248
X227.457Y-208.788
X227.457Y-211.328
X231.521Y-190.373
X231.521Y-192.913
X231.521Y-195.453
X268.136Y-205.105
X268.136Y-207.645
X268.136Y-210.185
T17
X226.873Y-39.776
X231.873Y-49.776
X234.373Y-39.776
X236.873Y-49.776
X241.873Y-39.776
X255.553Y-39.738
X260.553Y-49.738
X263.053Y-39.738
X265.553Y-49.738
X270.553Y-39.738
T18
X60.689Y-57.67
X73.189Y-58.27
X93.489Y-57.695
X105.989Y-58.295
X126.139Y-57.595
X138.639Y-58.195
X158.689Y-57.495
X171.189Y-58.095
T19
X226.873Y-44.776
X241.873Y-44.776
X255.553Y-44.738
X270.553Y-44.738
M30
