%TF.GenerationSoftware,KiCad,Pcbnew,9.0.3*%
%TF.CreationDate,2026-02-17T05:22:53-07:00*%
%TF.ProjectId,The_Fx_Box,5468655f-4678-45f4-926f-782e6b696361,rev?*%
%TF.SameCoordinates,Original*%
%TF.FileFunction,Soldermask,Bot*%
%TF.FilePolarity,Negative*%
%FSLAX46Y46*%
G04 Gerber Fmt 4.6, Leading zero omitted, Abs format (unit mm)*
G04 Created by KiCad (PCBNEW 9.0.3) date 2026-02-17 05:22:53*
%MOMM*%
%LPD*%
G01*
G04 APERTURE LIST*
G04 Aperture macros list*
%AMRoundRect*
0 Rectangle with rounded corners*
0 $1 Rounding radius*
0 $2 $3 $4 $5 $6 $7 $8 $9 X,Y pos of 4 corners*
0 Add a 4 corners polygon primitive as box body*
4,1,4,$2,$3,$4,$5,$6,$7,$8,$9,$2,$3,0*
0 Add four circle primitives for the rounded corners*
1,1,$1+$1,$2,$3*
1,1,$1+$1,$4,$5*
1,1,$1+$1,$6,$7*
1,1,$1+$1,$8,$9*
0 Add four rect primitives between the rounded corners*
20,1,$1+$1,$2,$3,$4,$5,0*
20,1,$1+$1,$4,$5,$6,$7,0*
20,1,$1+$1,$6,$7,$8,$9,0*
20,1,$1+$1,$8,$9,$2,$3,0*%
G04 Aperture macros list end*
%ADD10RoundRect,0.102000X-0.582500X0.582500X-0.582500X-0.582500X0.582500X-0.582500X0.582500X0.582500X0*%
%ADD11C,1.369000*%
%ADD12R,1.530000X1.530000*%
%ADD13C,1.530000*%
%ADD14R,1.150000X1.150000*%
%ADD15C,1.150000*%
%ADD16C,1.600000*%
%ADD17R,2.100000X2.100000*%
%ADD18C,2.100000*%
%ADD19C,1.800000*%
%ADD20R,1.935000X1.935000*%
%ADD21C,1.935000*%
%ADD22R,1.725000X1.725000*%
%ADD23C,1.725000*%
%ADD24R,1.950000X1.950000*%
%ADD25C,1.950000*%
%ADD26C,3.600000*%
%ADD27R,1.905000X1.905000*%
%ADD28C,1.905000*%
%ADD29C,3.200000*%
%ADD30C,1.650000*%
%ADD31C,1.524000*%
%ADD32R,1.500000X1.500000*%
%ADD33C,1.500000*%
%ADD34R,1.650000X1.650000*%
%ADD35R,1.200000X1.200000*%
%ADD36C,1.200000*%
%ADD37RoundRect,0.250000X-0.625000X0.312500X-0.625000X-0.312500X0.625000X-0.312500X0.625000X0.312500X0*%
%ADD38RoundRect,0.250000X-0.650000X0.325000X-0.650000X-0.325000X0.650000X-0.325000X0.650000X0.325000X0*%
%ADD39RoundRect,0.250000X0.337500X0.475000X-0.337500X0.475000X-0.337500X-0.475000X0.337500X-0.475000X0*%
%ADD40RoundRect,0.250000X-0.337500X-0.475000X0.337500X-0.475000X0.337500X0.475000X-0.337500X0.475000X0*%
%ADD41RoundRect,0.250000X0.650000X-0.325000X0.650000X0.325000X-0.650000X0.325000X-0.650000X-0.325000X0*%
%ADD42RoundRect,0.250000X-0.475000X0.337500X-0.475000X-0.337500X0.475000X-0.337500X0.475000X0.337500X0*%
%ADD43R,1.470000X0.970000*%
%ADD44RoundRect,0.250000X0.475000X-0.337500X0.475000X0.337500X-0.475000X0.337500X-0.475000X-0.337500X0*%
G04 APERTURE END LIST*
D10*
%TO.C,Y1*%
X199542400Y-97485400D03*
D11*
X184302400Y-97485400D03*
X184302400Y-105105400D03*
X199542400Y-105105400D03*
%TD*%
D12*
%TO.C,J127*%
X112395000Y-112649000D03*
D13*
X109855000Y-112649000D03*
%TD*%
D14*
%TO.C,D1*%
X272600800Y-55964500D03*
D15*
X261900800Y-55964500D03*
%TD*%
D12*
%TO.C,J100*%
X184658000Y-71882000D03*
D13*
X187198000Y-71882000D03*
%TD*%
D12*
%TO.C,J92*%
X100584000Y-199771000D03*
D13*
X100584000Y-202311000D03*
%TD*%
D12*
%TO.C,J105*%
X49936400Y-95808800D03*
D13*
X47396400Y-95808800D03*
%TD*%
D12*
%TO.C,J74*%
X106400600Y-155879800D03*
D13*
X106400600Y-153339800D03*
%TD*%
D16*
%TO.C,J62*%
X95239200Y-44495200D03*
X104239200Y-44495200D03*
D17*
X93489200Y-57695200D03*
D18*
X105989200Y-58295200D03*
D19*
X99739200Y-58295200D03*
X91289200Y-48695200D03*
X95739200Y-54095200D03*
X92439200Y-62095200D03*
X107139200Y-49995200D03*
X103539200Y-54095200D03*
X108139200Y-54095200D03*
X104839200Y-62095200D03*
%TD*%
D16*
%TO.C,J57*%
X62439200Y-44470200D03*
X71439200Y-44470200D03*
D17*
X60689200Y-57670200D03*
D18*
X73189200Y-58270200D03*
D19*
X66939200Y-58270200D03*
X58489200Y-48670200D03*
X62939200Y-54070200D03*
X59639200Y-62070200D03*
X74339200Y-49970200D03*
X70739200Y-54070200D03*
X75339200Y-54070200D03*
X72039200Y-62070200D03*
%TD*%
D12*
%TO.C,J121*%
X92100400Y-153162000D03*
D13*
X94640400Y-153162000D03*
%TD*%
D12*
%TO.C,J53*%
X83413600Y-66040000D03*
D13*
X83413600Y-63500000D03*
%TD*%
D12*
%TO.C,J76*%
X330708000Y-72771000D03*
D13*
X330708000Y-70231000D03*
%TD*%
D12*
%TO.C,J143*%
X132918200Y-94208600D03*
D13*
X132918200Y-91668600D03*
%TD*%
D12*
%TO.C,J141*%
X218440000Y-103530400D03*
D13*
X220980000Y-103530400D03*
%TD*%
D12*
%TO.C,J59*%
X116078000Y-58064400D03*
D13*
X116078000Y-55524400D03*
%TD*%
D12*
%TO.C,J124*%
X229844600Y-171551600D03*
D13*
X229844600Y-169011600D03*
%TD*%
D12*
%TO.C,J152*%
X77190600Y-109423200D03*
D13*
X74650600Y-109423200D03*
%TD*%
D20*
%TO.C,IC5*%
X205740000Y-203200000D03*
D21*
X205740000Y-205740000D03*
X205740000Y-208280000D03*
%TD*%
D12*
%TO.C,J113*%
X53390800Y-112369600D03*
D13*
X50850800Y-112369600D03*
%TD*%
D12*
%TO.C,J155*%
X80568800Y-171881800D03*
D13*
X78028800Y-171881800D03*
%TD*%
D12*
%TO.C,J104*%
X53289200Y-124002800D03*
D13*
X50749200Y-124002800D03*
%TD*%
D12*
%TO.C,J10*%
X201295000Y-214630000D03*
D13*
X201295000Y-217170000D03*
%TD*%
D12*
%TO.C,J90*%
X243332000Y-183515000D03*
D13*
X245872000Y-183515000D03*
%TD*%
D12*
%TO.C,J80*%
X332079600Y-175209200D03*
D13*
X332079600Y-177749200D03*
%TD*%
D12*
%TO.C,J116*%
X51003200Y-164720400D03*
D13*
X48463200Y-164720400D03*
%TD*%
D12*
%TO.C,J142*%
X82956400Y-86080600D03*
D13*
X82956400Y-83540600D03*
%TD*%
D12*
%TO.C,J27*%
X254355600Y-198882000D03*
D13*
X256895600Y-198882000D03*
%TD*%
D12*
%TO.C,J86*%
X93345000Y-95377000D03*
D13*
X90805000Y-95377000D03*
%TD*%
D12*
%TO.C,J69*%
X181305200Y-58115200D03*
D13*
X181305200Y-55575200D03*
%TD*%
D12*
%TO.C,J162*%
X100152200Y-119837200D03*
D13*
X102692200Y-119837200D03*
%TD*%
D22*
%TO.C,J44*%
X272491200Y-140411200D03*
D23*
X272491200Y-142951200D03*
X272491200Y-145491200D03*
X272491200Y-148031200D03*
%TD*%
D24*
%TO.C,J34*%
X270552800Y-39737700D03*
D25*
X263052800Y-39737700D03*
X255552800Y-39737700D03*
X260552800Y-49737700D03*
X265552800Y-49737700D03*
D26*
X270552800Y-44737700D03*
X255552800Y-44737700D03*
%TD*%
D12*
%TO.C,J146*%
X144729200Y-117856000D03*
D13*
X147269200Y-117856000D03*
%TD*%
D12*
%TO.C,J126*%
X224967800Y-171602400D03*
D13*
X224967800Y-169062400D03*
%TD*%
D12*
%TO.C,J147*%
X245440200Y-73533000D03*
D13*
X247980200Y-73533000D03*
%TD*%
D20*
%TO.C,IC43*%
X95377000Y-190588000D03*
D21*
X97917000Y-190588000D03*
X100457000Y-190588000D03*
%TD*%
D12*
%TO.C,J107*%
X53289200Y-118110000D03*
D13*
X50749200Y-118110000D03*
%TD*%
D12*
%TO.C,J16*%
X107899200Y-192481200D03*
D13*
X107899200Y-195021200D03*
%TD*%
D12*
%TO.C,J148*%
X108407200Y-128143000D03*
D13*
X105867200Y-128143000D03*
%TD*%
D12*
%TO.C,J165*%
X205003400Y-168579800D03*
D13*
X207543400Y-168579800D03*
%TD*%
D12*
%TO.C,J3*%
X329107800Y-210515200D03*
D13*
X331647800Y-210515200D03*
%TD*%
D12*
%TO.C,J60*%
X116078000Y-43230800D03*
D13*
X116078000Y-40690800D03*
%TD*%
D12*
%TO.C,J120*%
X75336400Y-162204400D03*
D13*
X77876400Y-162204400D03*
%TD*%
D12*
%TO.C,J130*%
X67233800Y-112090200D03*
D13*
X69773800Y-112090200D03*
%TD*%
D27*
%TO.C,J77*%
X134315200Y-117856000D03*
D28*
X131775200Y-117856000D03*
X129235200Y-117856000D03*
X126695200Y-117856000D03*
X124155200Y-117856000D03*
%TD*%
D12*
%TO.C,J132*%
X225831400Y-99669600D03*
D13*
X225831400Y-97129600D03*
%TD*%
D29*
%TO.C,REF2*%
X327202800Y-43891200D03*
%TD*%
D12*
%TO.C,J88*%
X131318000Y-176657000D03*
D13*
X131318000Y-179197000D03*
%TD*%
D12*
%TO.C,J61*%
X116078000Y-50647600D03*
D13*
X116078000Y-48107600D03*
%TD*%
D20*
%TO.C,IC51*%
X183007000Y-77812000D03*
D21*
X185547000Y-77812000D03*
X188087000Y-77812000D03*
%TD*%
D12*
%TO.C,J144*%
X246303800Y-59055000D03*
D13*
X248843800Y-59055000D03*
%TD*%
D12*
%TO.C,J18*%
X74168000Y-180086000D03*
D13*
X74168000Y-182626000D03*
%TD*%
D12*
%TO.C,J94*%
X68961000Y-102616000D03*
D13*
X68961000Y-100076000D03*
%TD*%
D12*
%TO.C,J96*%
X219837000Y-95123000D03*
D13*
X217297000Y-95123000D03*
%TD*%
D24*
%TO.C,J33*%
X241872800Y-39776400D03*
D25*
X234372800Y-39776400D03*
X226872800Y-39776400D03*
X231872800Y-49776400D03*
X236872800Y-49776400D03*
D26*
X241872800Y-44776400D03*
X226872800Y-44776400D03*
%TD*%
D29*
%TO.C,REF6*%
X249174000Y-98247200D03*
%TD*%
D12*
%TO.C,J115*%
X51003200Y-170320400D03*
D13*
X48463200Y-170320400D03*
%TD*%
D20*
%TO.C,IC40*%
X162687000Y-190373000D03*
D21*
X162687000Y-187833000D03*
X162687000Y-185293000D03*
%TD*%
D12*
%TO.C,J84*%
X286385000Y-173443500D03*
D13*
X288925000Y-173443500D03*
%TD*%
D12*
%TO.C,J160*%
X247142000Y-159080200D03*
D13*
X249682000Y-159080200D03*
%TD*%
D20*
%TO.C,IC4*%
X89447000Y-201067000D03*
D21*
X89447000Y-203607000D03*
X89447000Y-206147000D03*
%TD*%
D12*
%TO.C,J145*%
X148463000Y-77470000D03*
D13*
X148463000Y-74930000D03*
%TD*%
D12*
%TO.C,J8*%
X266319000Y-216916000D03*
D13*
X266319000Y-219456000D03*
%TD*%
D12*
%TO.C,J154*%
X87909400Y-171754800D03*
D13*
X85369400Y-171754800D03*
%TD*%
D12*
%TO.C,J85*%
X273431000Y-95504000D03*
D13*
X270891000Y-95504000D03*
%TD*%
D20*
%TO.C,IC49*%
X114173000Y-160655000D03*
D21*
X116713000Y-160655000D03*
X119253000Y-160655000D03*
%TD*%
D12*
%TO.C,J133*%
X135331200Y-130973100D03*
D13*
X135331200Y-133513100D03*
%TD*%
D12*
%TO.C,J83*%
X286512000Y-114935000D03*
D13*
X289052000Y-114935000D03*
%TD*%
D12*
%TO.C,J15*%
X76555600Y-198221600D03*
D13*
X79095600Y-198221600D03*
%TD*%
D12*
%TO.C,J7*%
X139065000Y-218694000D03*
D13*
X139065000Y-221234000D03*
%TD*%
D12*
%TO.C,J163*%
X177571400Y-121234200D03*
D13*
X175031400Y-121234200D03*
%TD*%
D20*
%TO.C,IC15*%
X162775000Y-202565000D03*
D21*
X162775000Y-200025000D03*
X162775000Y-197485000D03*
%TD*%
D12*
%TO.C,J87*%
X114808000Y-97409000D03*
D13*
X114808000Y-99949000D03*
%TD*%
D12*
%TO.C,J109*%
X52070000Y-141962000D03*
D13*
X49530000Y-141962000D03*
%TD*%
D12*
%TO.C,J36*%
X256159000Y-225044000D03*
D13*
X258699000Y-225044000D03*
%TD*%
D30*
%TO.C,PS1*%
X323407000Y-112716000D03*
X323407000Y-115256000D03*
X323407000Y-117796000D03*
X323407000Y-120336000D03*
X323407000Y-158436000D03*
X323407000Y-160976000D03*
X323407000Y-163516000D03*
%TD*%
D20*
%TO.C,IC50*%
X128143000Y-160616000D03*
D21*
X130683000Y-160616000D03*
X133223000Y-160616000D03*
%TD*%
D12*
%TO.C,J140*%
X191566800Y-112801400D03*
D13*
X191566800Y-110261400D03*
%TD*%
D22*
%TO.C,J45*%
X144018000Y-224536000D03*
D23*
X146558000Y-224536000D03*
X149098000Y-224536000D03*
X151638000Y-224536000D03*
%TD*%
D12*
%TO.C,J101*%
X329590400Y-192938400D03*
D13*
X329590400Y-195478400D03*
%TD*%
D12*
%TO.C,J117*%
X51003200Y-159120400D03*
D13*
X48463200Y-159120400D03*
%TD*%
D12*
%TO.C,J70*%
X181356000Y-43027600D03*
D13*
X181356000Y-40487600D03*
%TD*%
D12*
%TO.C,J19*%
X68453000Y-179959000D03*
D13*
X68453000Y-182499000D03*
%TD*%
D12*
%TO.C,J30*%
X251587000Y-178308000D03*
D13*
X254127000Y-178308000D03*
%TD*%
D29*
%TO.C,REF4*%
X48514000Y-223266000D03*
%TD*%
D22*
%TO.C,J49*%
X318770000Y-224536000D03*
D23*
X321310000Y-224536000D03*
X323850000Y-224536000D03*
X326390000Y-224536000D03*
%TD*%
D20*
%TO.C,IC2*%
X144692000Y-208947000D03*
D21*
X144692000Y-211487000D03*
X144692000Y-214027000D03*
%TD*%
D12*
%TO.C,J79*%
X156972000Y-215011000D03*
D13*
X156972000Y-217551000D03*
%TD*%
D12*
%TO.C,J56*%
X83464400Y-50698400D03*
D13*
X83464400Y-48158400D03*
%TD*%
D27*
%TO.C,J73*%
X208280000Y-115316000D03*
D28*
X205740000Y-115316000D03*
X203200000Y-115316000D03*
X200660000Y-115316000D03*
X198120000Y-115316000D03*
%TD*%
D20*
%TO.C,IC8*%
X51689000Y-211836000D03*
D21*
X51689000Y-209296000D03*
X51689000Y-206756000D03*
%TD*%
D12*
%TO.C,J158*%
X72313800Y-140843000D03*
D13*
X74853800Y-140843000D03*
%TD*%
D12*
%TO.C,J75*%
X50038000Y-103479600D03*
D13*
X47498000Y-103479600D03*
%TD*%
D31*
%TO.C,J43*%
X237236000Y-119430800D03*
X237236000Y-116890800D03*
X237236000Y-114350800D03*
X237236000Y-111810800D03*
X237236000Y-109270800D03*
X237236000Y-106730800D03*
X237236000Y-104190800D03*
X237236000Y-101650800D03*
X237236000Y-99110800D03*
X237236000Y-96570800D03*
X237236000Y-94030800D03*
X237236000Y-91490800D03*
X237236000Y-88950800D03*
X237236000Y-86410800D03*
%TD*%
D12*
%TO.C,J114*%
X51003200Y-175920400D03*
D13*
X48463200Y-175920400D03*
%TD*%
D12*
%TO.C,J32*%
X185674000Y-183946800D03*
D13*
X183134000Y-183946800D03*
%TD*%
D12*
%TO.C,J25*%
X245821200Y-220878400D03*
D13*
X243281200Y-220878400D03*
%TD*%
D12*
%TO.C,J13*%
X57785000Y-175133000D03*
D13*
X57785000Y-172593000D03*
%TD*%
D20*
%TO.C,IC45*%
X63754000Y-106680000D03*
D21*
X63754000Y-104140000D03*
X63754000Y-101600000D03*
%TD*%
D12*
%TO.C,J89*%
X167640000Y-187833000D03*
D13*
X167640000Y-185293000D03*
%TD*%
D30*
%TO.C,J42*%
X299466000Y-62738000D03*
X302006000Y-62738000D03*
X304546000Y-62738000D03*
X307086000Y-62738000D03*
X309626000Y-62738000D03*
X312166000Y-62738000D03*
X314706000Y-62738000D03*
X317246000Y-62738000D03*
X319786000Y-62738000D03*
%TD*%
D20*
%TO.C,IC47*%
X197739000Y-86360000D03*
D21*
X200279000Y-86360000D03*
X202819000Y-86360000D03*
%TD*%
D12*
%TO.C,J71*%
X181356000Y-50342800D03*
D13*
X181356000Y-47802800D03*
%TD*%
D12*
%TO.C,J63*%
X148539200Y-65379600D03*
D13*
X148539200Y-62839600D03*
%TD*%
D12*
%TO.C,J112*%
X52070000Y-136362000D03*
D13*
X49530000Y-136362000D03*
%TD*%
D12*
%TO.C,J123*%
X139750800Y-167868600D03*
D13*
X142290800Y-167868600D03*
%TD*%
D12*
%TO.C,J106*%
X52070000Y-147562000D03*
D13*
X49530000Y-147562000D03*
%TD*%
D12*
%TO.C,J118*%
X83616800Y-162204400D03*
D13*
X86156800Y-162204400D03*
%TD*%
D12*
%TO.C,J135*%
X258800600Y-94742000D03*
D13*
X256260600Y-94742000D03*
%TD*%
D12*
%TO.C,J159*%
X70154800Y-171831000D03*
D13*
X72694800Y-171831000D03*
%TD*%
D12*
%TO.C,J149*%
X192811400Y-124180600D03*
D13*
X192811400Y-126720600D03*
%TD*%
D27*
%TO.C,J38*%
X152400000Y-132969000D03*
D28*
X149860000Y-132969000D03*
X147320000Y-132969000D03*
X144780000Y-132969000D03*
X142240000Y-132969000D03*
%TD*%
D12*
%TO.C,J17*%
X118110000Y-176149000D03*
D13*
X120650000Y-176149000D03*
%TD*%
D12*
%TO.C,J108*%
X49733200Y-87707600D03*
D13*
X47193200Y-87707600D03*
%TD*%
D12*
%TO.C,J161*%
X231698800Y-159918400D03*
D13*
X234238800Y-159918400D03*
%TD*%
D12*
%TO.C,J137*%
X137210800Y-105156000D03*
D13*
X134670800Y-105156000D03*
%TD*%
D12*
%TO.C,J21*%
X207899000Y-224663000D03*
D13*
X210439000Y-224663000D03*
%TD*%
D32*
%TO.C,S4*%
X205638400Y-104770800D03*
D33*
X212138400Y-104770800D03*
X205638400Y-109270800D03*
X212138400Y-109270800D03*
%TD*%
D20*
%TO.C,IC46*%
X159766000Y-103886000D03*
D21*
X162306000Y-103886000D03*
X164846000Y-103886000D03*
%TD*%
D12*
%TO.C,J138*%
X245745000Y-80822800D03*
D13*
X248285000Y-80822800D03*
%TD*%
D12*
%TO.C,J4*%
X320751200Y-210667600D03*
D13*
X323291200Y-210667600D03*
%TD*%
D27*
%TO.C,J39*%
X164084000Y-178054000D03*
D28*
X161544000Y-178054000D03*
X159004000Y-178054000D03*
X156464000Y-178054000D03*
X153924000Y-178054000D03*
%TD*%
D12*
%TO.C,J156*%
X250139200Y-166928800D03*
D13*
X252679200Y-166928800D03*
%TD*%
D34*
%TO.C,J52*%
X57607200Y-134061200D03*
D30*
X60147200Y-134061200D03*
X62687200Y-134061200D03*
X65227200Y-134061200D03*
X67767200Y-134061200D03*
X70307200Y-134061200D03*
X72847200Y-134061200D03*
X75387200Y-134061200D03*
X77927200Y-134061200D03*
X80467200Y-134061200D03*
X83007200Y-134061200D03*
X85547200Y-134061200D03*
X88087200Y-134061200D03*
X90627200Y-134061200D03*
X93167200Y-134061200D03*
X95707200Y-134061200D03*
X98247200Y-134061200D03*
X100787200Y-134061200D03*
X103327200Y-134061200D03*
X105867200Y-134061200D03*
X108407200Y-134061200D03*
X110947200Y-134061200D03*
X113487200Y-134061200D03*
X116027200Y-134061200D03*
%TD*%
D12*
%TO.C,J150*%
X246761000Y-68732400D03*
D13*
X244221000Y-68732400D03*
%TD*%
D12*
%TO.C,J14*%
X136906000Y-198374000D03*
D13*
X139446000Y-198374000D03*
%TD*%
D12*
%TO.C,J55*%
X83312000Y-43281600D03*
D13*
X83312000Y-40741600D03*
%TD*%
D16*
%TO.C,J67*%
X127889200Y-44395200D03*
X136889200Y-44395200D03*
D17*
X126139200Y-57595200D03*
D18*
X138639200Y-58195200D03*
D19*
X132389200Y-58195200D03*
X123939200Y-48595200D03*
X128389200Y-53995200D03*
X125089200Y-61995200D03*
X139789200Y-49895200D03*
X136189200Y-53995200D03*
X140789200Y-53995200D03*
X137489200Y-61995200D03*
%TD*%
D20*
%TO.C,IC7*%
X227457000Y-211328000D03*
D21*
X227457000Y-208788000D03*
X227457000Y-206248000D03*
%TD*%
D22*
%TO.C,J50*%
X305155600Y-224536000D03*
D23*
X307695600Y-224536000D03*
X310235600Y-224536000D03*
X312775600Y-224536000D03*
%TD*%
D22*
%TO.C,J37*%
X289153600Y-62433200D03*
D23*
X286613600Y-62433200D03*
X284073600Y-62433200D03*
X281533600Y-62433200D03*
%TD*%
D12*
%TO.C,J102*%
X130581400Y-195046600D03*
D13*
X130581400Y-197586600D03*
%TD*%
D12*
%TO.C,J157*%
X251206000Y-171653200D03*
D13*
X253746000Y-171653200D03*
%TD*%
D12*
%TO.C,J110*%
X53289200Y-130048000D03*
D13*
X50749200Y-130048000D03*
%TD*%
D12*
%TO.C,J139*%
X209905600Y-96672400D03*
D13*
X207365600Y-96672400D03*
%TD*%
D20*
%TO.C,IC37*%
X107061000Y-99861000D03*
D21*
X104521000Y-99861000D03*
X101981000Y-99861000D03*
%TD*%
D20*
%TO.C,IC3*%
X268136000Y-205105000D03*
D21*
X268136000Y-207645000D03*
X268136000Y-210185000D03*
%TD*%
D22*
%TO.C,J35*%
X272135600Y-113995200D03*
D23*
X272135600Y-116535200D03*
X272135600Y-119075200D03*
X272135600Y-121615200D03*
%TD*%
D12*
%TO.C,J134*%
X148082000Y-87045800D03*
D13*
X148082000Y-89585800D03*
%TD*%
D12*
%TO.C,J66*%
X148590000Y-50647600D03*
D13*
X148590000Y-48107600D03*
%TD*%
D22*
%TO.C,J48*%
X287375600Y-224536000D03*
D23*
X289915600Y-224536000D03*
X292455600Y-224536000D03*
X294995600Y-224536000D03*
%TD*%
D22*
%TO.C,J46*%
X164541200Y-224536000D03*
D23*
X162001200Y-224536000D03*
X159461200Y-224536000D03*
X156921200Y-224536000D03*
%TD*%
D12*
%TO.C,J151*%
X114808000Y-77826400D03*
D13*
X114808000Y-75286400D03*
%TD*%
D12*
%TO.C,J54*%
X83312000Y-58369200D03*
D13*
X83312000Y-55829200D03*
%TD*%
D12*
%TO.C,J5*%
X122072400Y-221691200D03*
D13*
X119532400Y-221691200D03*
%TD*%
D12*
%TO.C,J97*%
X209931000Y-127000000D03*
D13*
X212471000Y-127000000D03*
%TD*%
D29*
%TO.C,REF3*%
X330098400Y-218897200D03*
%TD*%
D12*
%TO.C,J103*%
X52070000Y-153162000D03*
D13*
X49530000Y-153162000D03*
%TD*%
D20*
%TO.C,IC44*%
X211963000Y-191731000D03*
D21*
X214503000Y-191731000D03*
X217043000Y-191731000D03*
%TD*%
D12*
%TO.C,J58*%
X116027200Y-65532000D03*
D13*
X116027200Y-62992000D03*
%TD*%
D20*
%TO.C,IC39*%
X136906000Y-178943000D03*
D21*
X139446000Y-178943000D03*
X141986000Y-178943000D03*
%TD*%
D27*
%TO.C,J41*%
X185039000Y-176022000D03*
D28*
X182499000Y-176022000D03*
X179959000Y-176022000D03*
X177419000Y-176022000D03*
X174879000Y-176022000D03*
%TD*%
D12*
%TO.C,J91*%
X46228000Y-195707000D03*
D13*
X46228000Y-198247000D03*
%TD*%
D34*
%TO.C,J51*%
X57658000Y-148920200D03*
D30*
X60198000Y-148920200D03*
X62738000Y-148920200D03*
X65278000Y-148920200D03*
X67818000Y-148920200D03*
X70358000Y-148920200D03*
X72898000Y-148920200D03*
X75438000Y-148920200D03*
X77978000Y-148920200D03*
X80518000Y-148920200D03*
X83058000Y-148920200D03*
X85598000Y-148920200D03*
X88138000Y-148920200D03*
X90678000Y-148920200D03*
X93218000Y-148920200D03*
X95758000Y-148920200D03*
X98298000Y-148920200D03*
X100838000Y-148920200D03*
X103378000Y-148920200D03*
X105918000Y-148920200D03*
X108458000Y-148920200D03*
X110998000Y-148920200D03*
X113538000Y-148920200D03*
X116078000Y-148920200D03*
%TD*%
D12*
%TO.C,J95*%
X177673000Y-103886000D03*
D13*
X177673000Y-101346000D03*
%TD*%
D12*
%TO.C,J23*%
X320548000Y-203581000D03*
D13*
X323088000Y-203581000D03*
%TD*%
D12*
%TO.C,J26*%
X184861200Y-220726000D03*
D13*
X182321200Y-220726000D03*
%TD*%
D12*
%TO.C,J164*%
X142595600Y-150012400D03*
D13*
X140055600Y-150012400D03*
%TD*%
D12*
%TO.C,J11*%
X100838000Y-215392000D03*
D13*
X100838000Y-217932000D03*
%TD*%
D35*
%TO.C,Q1*%
X271010000Y-59114100D03*
D36*
X268470000Y-59114100D03*
X265930000Y-59114100D03*
X263390000Y-59114100D03*
X263390000Y-66734100D03*
X265930000Y-66734100D03*
X268470000Y-66734100D03*
X271010000Y-66734100D03*
%TD*%
D12*
%TO.C,J111*%
X49682400Y-79400400D03*
D13*
X47142400Y-79400400D03*
%TD*%
D12*
%TO.C,J9*%
X84709000Y-212090000D03*
D13*
X84709000Y-214630000D03*
%TD*%
D12*
%TO.C,J153*%
X231216200Y-92202000D03*
D13*
X231216200Y-94742000D03*
%TD*%
D20*
%TO.C,IC52*%
X212979000Y-155067000D03*
D21*
X215519000Y-155067000D03*
X218059000Y-155067000D03*
%TD*%
D12*
%TO.C,J99*%
X108585000Y-166878000D03*
D13*
X108585000Y-164338000D03*
%TD*%
D16*
%TO.C,J72*%
X160439200Y-44295200D03*
X169439200Y-44295200D03*
D17*
X158689200Y-57495200D03*
D18*
X171189200Y-58095200D03*
D19*
X164939200Y-58095200D03*
X156489200Y-48495200D03*
X160939200Y-53895200D03*
X157639200Y-61895200D03*
X172339200Y-49795200D03*
X168739200Y-53895200D03*
X173339200Y-53895200D03*
X170039200Y-61895200D03*
%TD*%
D12*
%TO.C,J24*%
X329311000Y-203581000D03*
D13*
X331851000Y-203581000D03*
%TD*%
D12*
%TO.C,J129*%
X236804200Y-74396600D03*
D13*
X239344200Y-74396600D03*
%TD*%
D12*
%TO.C,J65*%
X148590000Y-43078400D03*
D13*
X148590000Y-40538400D03*
%TD*%
D12*
%TO.C,J31*%
X202488800Y-185775600D03*
D13*
X205028800Y-185775600D03*
%TD*%
D20*
%TO.C,IC6*%
X106807000Y-212725000D03*
D21*
X106807000Y-210185000D03*
X106807000Y-207645000D03*
%TD*%
D27*
%TO.C,J40*%
X207899000Y-42291000D03*
D28*
X205359000Y-42291000D03*
X202819000Y-42291000D03*
X200279000Y-42291000D03*
X197739000Y-42291000D03*
%TD*%
D12*
%TO.C,J128*%
X167944800Y-117246400D03*
D13*
X165404800Y-117246400D03*
%TD*%
D12*
%TO.C,J166*%
X231927400Y-82626200D03*
D13*
X229387400Y-82626200D03*
%TD*%
D12*
%TO.C,J136*%
X76962000Y-116459000D03*
D13*
X76962000Y-118999000D03*
%TD*%
D12*
%TO.C,J122*%
X241833400Y-170307000D03*
D13*
X244373400Y-170307000D03*
%TD*%
D20*
%TO.C,IC48*%
X222123000Y-119214000D03*
D21*
X224663000Y-119214000D03*
X227203000Y-119214000D03*
%TD*%
D12*
%TO.C,J98*%
X131445000Y-149352000D03*
D13*
X133985000Y-149352000D03*
%TD*%
D12*
%TO.C,J131*%
X151866600Y-122707400D03*
D13*
X149326600Y-122707400D03*
%TD*%
D12*
%TO.C,J6*%
X67005200Y-220980000D03*
D13*
X64465200Y-220980000D03*
%TD*%
D12*
%TO.C,J12*%
X220472000Y-214503000D03*
D13*
X220472000Y-217043000D03*
%TD*%
D12*
%TO.C,J81*%
X241833400Y-165506400D03*
D13*
X244373400Y-165506400D03*
%TD*%
D20*
%TO.C,IC38*%
X125730000Y-99949000D03*
D21*
X123190000Y-99949000D03*
X120650000Y-99949000D03*
%TD*%
D12*
%TO.C,J2*%
X105918000Y-225171000D03*
D13*
X103378000Y-225171000D03*
%TD*%
D12*
%TO.C,J28*%
X192176400Y-199847200D03*
D13*
X194716400Y-199847200D03*
%TD*%
D29*
%TO.C,REF5*%
X125933200Y-131927600D03*
%TD*%
D12*
%TO.C,J1*%
X90932000Y-222199200D03*
D13*
X88392000Y-222199200D03*
%TD*%
D12*
%TO.C,J20*%
X156591000Y-204343000D03*
D13*
X154051000Y-204343000D03*
%TD*%
D12*
%TO.C,J68*%
X181305200Y-65582800D03*
D13*
X181305200Y-63042800D03*
%TD*%
D12*
%TO.C,J78*%
X330708000Y-61595000D03*
D13*
X328168000Y-61595000D03*
%TD*%
D12*
%TO.C,J125*%
X152171400Y-196113400D03*
D13*
X152171400Y-193573400D03*
%TD*%
D12*
%TO.C,J93*%
X207899000Y-196469000D03*
D13*
X205359000Y-196469000D03*
%TD*%
D29*
%TO.C,REF1*%
X48260000Y-42773600D03*
%TD*%
D12*
%TO.C,J119*%
X74777600Y-153162000D03*
D13*
X77317600Y-153162000D03*
%TD*%
D12*
%TO.C,J64*%
X148539200Y-58064400D03*
D13*
X148539200Y-55524400D03*
%TD*%
D12*
%TO.C,J29*%
X260008400Y-181803400D03*
D13*
X260008400Y-184343400D03*
%TD*%
D20*
%TO.C,IC41*%
X231521000Y-195453000D03*
D21*
X231521000Y-192913000D03*
X231521000Y-190373000D03*
%TD*%
D20*
%TO.C,IC42*%
X53174000Y-191516000D03*
D21*
X53174000Y-188976000D03*
X53174000Y-186436000D03*
%TD*%
D12*
%TO.C,J22*%
X222377000Y-224536000D03*
D13*
X224917000Y-224536000D03*
%TD*%
D12*
%TO.C,J82*%
X283210000Y-127088500D03*
D13*
X283210000Y-124548500D03*
%TD*%
D22*
%TO.C,J47*%
X273253200Y-224383600D03*
D23*
X275793200Y-224383600D03*
X278333200Y-224383600D03*
X280873200Y-224383600D03*
%TD*%
D37*
%TO.C,R97*%
X179374800Y-135799100D03*
X179374800Y-138724100D03*
%TD*%
D38*
%TO.C,C143*%
X96977200Y-169667600D03*
X96977200Y-172617600D03*
%TD*%
D39*
%TO.C,C132*%
X166137500Y-143814800D03*
X164062500Y-143814800D03*
%TD*%
D38*
%TO.C,C151*%
X215823800Y-169976800D03*
X215823800Y-172926800D03*
%TD*%
D40*
%TO.C,C120*%
X185271500Y-164846000D03*
X187346500Y-164846000D03*
%TD*%
D41*
%TO.C,C155*%
X219252800Y-178591800D03*
X219252800Y-175641800D03*
%TD*%
D42*
%TO.C,C127*%
X201269600Y-146178100D03*
X201269600Y-148253100D03*
%TD*%
D40*
%TO.C,C208*%
X129499900Y-78409800D03*
X131574900Y-78409800D03*
%TD*%
D39*
%TO.C,C119*%
X158923900Y-173532800D03*
X156848900Y-173532800D03*
%TD*%
D40*
%TO.C,C197*%
X96725700Y-79269600D03*
X98800700Y-79269600D03*
%TD*%
D43*
%TO.C,C123*%
X190093600Y-145000400D03*
X190093600Y-143340400D03*
%TD*%
D44*
%TO.C,C154*%
X216865200Y-177519500D03*
X216865200Y-175444500D03*
%TD*%
D42*
%TO.C,C142*%
X99161600Y-170638300D03*
X99161600Y-172713300D03*
%TD*%
D41*
%TO.C,C147*%
X99999800Y-178716200D03*
X99999800Y-175766200D03*
%TD*%
D44*
%TO.C,C146*%
X97307400Y-178634300D03*
X97307400Y-176559300D03*
%TD*%
D40*
%TO.C,C186*%
X64831500Y-79527400D03*
X66906500Y-79527400D03*
%TD*%
D42*
%TO.C,C150*%
X218389200Y-170996700D03*
X218389200Y-173071700D03*
%TD*%
D40*
%TO.C,C219*%
X162204400Y-78304400D03*
X164279400Y-78304400D03*
%TD*%
M02*
