%TF.GenerationSoftware,KiCad,Pcbnew,9.0.3*%
%TF.CreationDate,2026-02-17T05:22:53-07:00*%
%TF.ProjectId,The_Fx_Box,5468655f-4678-45f4-926f-782e6b696361,rev?*%
%TF.SameCoordinates,Original*%
%TF.FileFunction,Legend,Bot*%
%TF.FilePolarity,Positive*%
%FSLAX46Y46*%
G04 Gerber Fmt 4.6, Leading zero omitted, Abs format (unit mm)*
G04 Created by KiCad (PCBNEW 9.0.3) date 2026-02-17 05:22:53*
%MOMM*%
%LPD*%
G01*
G04 APERTURE LIST*
%ADD10C,0.150000*%
%ADD11C,0.254000*%
%ADD12C,0.508000*%
%ADD13C,0.120000*%
G04 APERTURE END LIST*
D10*
X177999619Y-136618742D02*
X177523428Y-136285409D01*
X177999619Y-136047314D02*
X176999619Y-136047314D01*
X176999619Y-136047314D02*
X176999619Y-136428266D01*
X176999619Y-136428266D02*
X177047238Y-136523504D01*
X177047238Y-136523504D02*
X177094857Y-136571123D01*
X177094857Y-136571123D02*
X177190095Y-136618742D01*
X177190095Y-136618742D02*
X177332952Y-136618742D01*
X177332952Y-136618742D02*
X177428190Y-136571123D01*
X177428190Y-136571123D02*
X177475809Y-136523504D01*
X177475809Y-136523504D02*
X177523428Y-136428266D01*
X177523428Y-136428266D02*
X177523428Y-136047314D01*
X177999619Y-137094933D02*
X177999619Y-137285409D01*
X177999619Y-137285409D02*
X177952000Y-137380647D01*
X177952000Y-137380647D02*
X177904380Y-137428266D01*
X177904380Y-137428266D02*
X177761523Y-137523504D01*
X177761523Y-137523504D02*
X177571047Y-137571123D01*
X177571047Y-137571123D02*
X177190095Y-137571123D01*
X177190095Y-137571123D02*
X177094857Y-137523504D01*
X177094857Y-137523504D02*
X177047238Y-137475885D01*
X177047238Y-137475885D02*
X176999619Y-137380647D01*
X176999619Y-137380647D02*
X176999619Y-137190171D01*
X176999619Y-137190171D02*
X177047238Y-137094933D01*
X177047238Y-137094933D02*
X177094857Y-137047314D01*
X177094857Y-137047314D02*
X177190095Y-136999695D01*
X177190095Y-136999695D02*
X177428190Y-136999695D01*
X177428190Y-136999695D02*
X177523428Y-137047314D01*
X177523428Y-137047314D02*
X177571047Y-137094933D01*
X177571047Y-137094933D02*
X177618666Y-137190171D01*
X177618666Y-137190171D02*
X177618666Y-137380647D01*
X177618666Y-137380647D02*
X177571047Y-137475885D01*
X177571047Y-137475885D02*
X177523428Y-137523504D01*
X177523428Y-137523504D02*
X177428190Y-137571123D01*
X176999619Y-137904457D02*
X176999619Y-138571123D01*
X176999619Y-138571123D02*
X177999619Y-138142552D01*
X95486780Y-170023552D02*
X95534400Y-169975933D01*
X95534400Y-169975933D02*
X95582019Y-169833076D01*
X95582019Y-169833076D02*
X95582019Y-169737838D01*
X95582019Y-169737838D02*
X95534400Y-169594981D01*
X95534400Y-169594981D02*
X95439161Y-169499743D01*
X95439161Y-169499743D02*
X95343923Y-169452124D01*
X95343923Y-169452124D02*
X95153447Y-169404505D01*
X95153447Y-169404505D02*
X95010590Y-169404505D01*
X95010590Y-169404505D02*
X94820114Y-169452124D01*
X94820114Y-169452124D02*
X94724876Y-169499743D01*
X94724876Y-169499743D02*
X94629638Y-169594981D01*
X94629638Y-169594981D02*
X94582019Y-169737838D01*
X94582019Y-169737838D02*
X94582019Y-169833076D01*
X94582019Y-169833076D02*
X94629638Y-169975933D01*
X94629638Y-169975933D02*
X94677257Y-170023552D01*
X95582019Y-170975933D02*
X95582019Y-170404505D01*
X95582019Y-170690219D02*
X94582019Y-170690219D01*
X94582019Y-170690219D02*
X94724876Y-170594981D01*
X94724876Y-170594981D02*
X94820114Y-170499743D01*
X94820114Y-170499743D02*
X94867733Y-170404505D01*
X94915352Y-171833076D02*
X95582019Y-171833076D01*
X94534400Y-171594981D02*
X95248685Y-171356886D01*
X95248685Y-171356886D02*
X95248685Y-171975933D01*
X94582019Y-172261648D02*
X94582019Y-172880695D01*
X94582019Y-172880695D02*
X94962971Y-172547362D01*
X94962971Y-172547362D02*
X94962971Y-172690219D01*
X94962971Y-172690219D02*
X95010590Y-172785457D01*
X95010590Y-172785457D02*
X95058209Y-172833076D01*
X95058209Y-172833076D02*
X95153447Y-172880695D01*
X95153447Y-172880695D02*
X95391542Y-172880695D01*
X95391542Y-172880695D02*
X95486780Y-172833076D01*
X95486780Y-172833076D02*
X95534400Y-172785457D01*
X95534400Y-172785457D02*
X95582019Y-172690219D01*
X95582019Y-172690219D02*
X95582019Y-172404505D01*
X95582019Y-172404505D02*
X95534400Y-172309267D01*
X95534400Y-172309267D02*
X95486780Y-172261648D01*
X166219047Y-142494380D02*
X166266666Y-142542000D01*
X166266666Y-142542000D02*
X166409523Y-142589619D01*
X166409523Y-142589619D02*
X166504761Y-142589619D01*
X166504761Y-142589619D02*
X166647618Y-142542000D01*
X166647618Y-142542000D02*
X166742856Y-142446761D01*
X166742856Y-142446761D02*
X166790475Y-142351523D01*
X166790475Y-142351523D02*
X166838094Y-142161047D01*
X166838094Y-142161047D02*
X166838094Y-142018190D01*
X166838094Y-142018190D02*
X166790475Y-141827714D01*
X166790475Y-141827714D02*
X166742856Y-141732476D01*
X166742856Y-141732476D02*
X166647618Y-141637238D01*
X166647618Y-141637238D02*
X166504761Y-141589619D01*
X166504761Y-141589619D02*
X166409523Y-141589619D01*
X166409523Y-141589619D02*
X166266666Y-141637238D01*
X166266666Y-141637238D02*
X166219047Y-141684857D01*
X165266666Y-142589619D02*
X165838094Y-142589619D01*
X165552380Y-142589619D02*
X165552380Y-141589619D01*
X165552380Y-141589619D02*
X165647618Y-141732476D01*
X165647618Y-141732476D02*
X165742856Y-141827714D01*
X165742856Y-141827714D02*
X165838094Y-141875333D01*
X164933332Y-141589619D02*
X164314285Y-141589619D01*
X164314285Y-141589619D02*
X164647618Y-141970571D01*
X164647618Y-141970571D02*
X164504761Y-141970571D01*
X164504761Y-141970571D02*
X164409523Y-142018190D01*
X164409523Y-142018190D02*
X164361904Y-142065809D01*
X164361904Y-142065809D02*
X164314285Y-142161047D01*
X164314285Y-142161047D02*
X164314285Y-142399142D01*
X164314285Y-142399142D02*
X164361904Y-142494380D01*
X164361904Y-142494380D02*
X164409523Y-142542000D01*
X164409523Y-142542000D02*
X164504761Y-142589619D01*
X164504761Y-142589619D02*
X164790475Y-142589619D01*
X164790475Y-142589619D02*
X164885713Y-142542000D01*
X164885713Y-142542000D02*
X164933332Y-142494380D01*
X163933332Y-141684857D02*
X163885713Y-141637238D01*
X163885713Y-141637238D02*
X163790475Y-141589619D01*
X163790475Y-141589619D02*
X163552380Y-141589619D01*
X163552380Y-141589619D02*
X163457142Y-141637238D01*
X163457142Y-141637238D02*
X163409523Y-141684857D01*
X163409523Y-141684857D02*
X163361904Y-141780095D01*
X163361904Y-141780095D02*
X163361904Y-141875333D01*
X163361904Y-141875333D02*
X163409523Y-142018190D01*
X163409523Y-142018190D02*
X163980951Y-142589619D01*
X163980951Y-142589619D02*
X163361904Y-142589619D01*
X214333380Y-170332752D02*
X214381000Y-170285133D01*
X214381000Y-170285133D02*
X214428619Y-170142276D01*
X214428619Y-170142276D02*
X214428619Y-170047038D01*
X214428619Y-170047038D02*
X214381000Y-169904181D01*
X214381000Y-169904181D02*
X214285761Y-169808943D01*
X214285761Y-169808943D02*
X214190523Y-169761324D01*
X214190523Y-169761324D02*
X214000047Y-169713705D01*
X214000047Y-169713705D02*
X213857190Y-169713705D01*
X213857190Y-169713705D02*
X213666714Y-169761324D01*
X213666714Y-169761324D02*
X213571476Y-169808943D01*
X213571476Y-169808943D02*
X213476238Y-169904181D01*
X213476238Y-169904181D02*
X213428619Y-170047038D01*
X213428619Y-170047038D02*
X213428619Y-170142276D01*
X213428619Y-170142276D02*
X213476238Y-170285133D01*
X213476238Y-170285133D02*
X213523857Y-170332752D01*
X214428619Y-171285133D02*
X214428619Y-170713705D01*
X214428619Y-170999419D02*
X213428619Y-170999419D01*
X213428619Y-170999419D02*
X213571476Y-170904181D01*
X213571476Y-170904181D02*
X213666714Y-170808943D01*
X213666714Y-170808943D02*
X213714333Y-170713705D01*
X213428619Y-172189895D02*
X213428619Y-171713705D01*
X213428619Y-171713705D02*
X213904809Y-171666086D01*
X213904809Y-171666086D02*
X213857190Y-171713705D01*
X213857190Y-171713705D02*
X213809571Y-171808943D01*
X213809571Y-171808943D02*
X213809571Y-172047038D01*
X213809571Y-172047038D02*
X213857190Y-172142276D01*
X213857190Y-172142276D02*
X213904809Y-172189895D01*
X213904809Y-172189895D02*
X214000047Y-172237514D01*
X214000047Y-172237514D02*
X214238142Y-172237514D01*
X214238142Y-172237514D02*
X214333380Y-172189895D01*
X214333380Y-172189895D02*
X214381000Y-172142276D01*
X214381000Y-172142276D02*
X214428619Y-172047038D01*
X214428619Y-172047038D02*
X214428619Y-171808943D01*
X214428619Y-171808943D02*
X214381000Y-171713705D01*
X214381000Y-171713705D02*
X214333380Y-171666086D01*
X214428619Y-173189895D02*
X214428619Y-172618467D01*
X214428619Y-172904181D02*
X213428619Y-172904181D01*
X213428619Y-172904181D02*
X213571476Y-172808943D01*
X213571476Y-172808943D02*
X213666714Y-172713705D01*
X213666714Y-172713705D02*
X213714333Y-172618467D01*
X187428047Y-166885580D02*
X187475666Y-166933200D01*
X187475666Y-166933200D02*
X187618523Y-166980819D01*
X187618523Y-166980819D02*
X187713761Y-166980819D01*
X187713761Y-166980819D02*
X187856618Y-166933200D01*
X187856618Y-166933200D02*
X187951856Y-166837961D01*
X187951856Y-166837961D02*
X187999475Y-166742723D01*
X187999475Y-166742723D02*
X188047094Y-166552247D01*
X188047094Y-166552247D02*
X188047094Y-166409390D01*
X188047094Y-166409390D02*
X187999475Y-166218914D01*
X187999475Y-166218914D02*
X187951856Y-166123676D01*
X187951856Y-166123676D02*
X187856618Y-166028438D01*
X187856618Y-166028438D02*
X187713761Y-165980819D01*
X187713761Y-165980819D02*
X187618523Y-165980819D01*
X187618523Y-165980819D02*
X187475666Y-166028438D01*
X187475666Y-166028438D02*
X187428047Y-166076057D01*
X186475666Y-166980819D02*
X187047094Y-166980819D01*
X186761380Y-166980819D02*
X186761380Y-165980819D01*
X186761380Y-165980819D02*
X186856618Y-166123676D01*
X186856618Y-166123676D02*
X186951856Y-166218914D01*
X186951856Y-166218914D02*
X187047094Y-166266533D01*
X186094713Y-166076057D02*
X186047094Y-166028438D01*
X186047094Y-166028438D02*
X185951856Y-165980819D01*
X185951856Y-165980819D02*
X185713761Y-165980819D01*
X185713761Y-165980819D02*
X185618523Y-166028438D01*
X185618523Y-166028438D02*
X185570904Y-166076057D01*
X185570904Y-166076057D02*
X185523285Y-166171295D01*
X185523285Y-166171295D02*
X185523285Y-166266533D01*
X185523285Y-166266533D02*
X185570904Y-166409390D01*
X185570904Y-166409390D02*
X186142332Y-166980819D01*
X186142332Y-166980819D02*
X185523285Y-166980819D01*
X184904237Y-165980819D02*
X184808999Y-165980819D01*
X184808999Y-165980819D02*
X184713761Y-166028438D01*
X184713761Y-166028438D02*
X184666142Y-166076057D01*
X184666142Y-166076057D02*
X184618523Y-166171295D01*
X184618523Y-166171295D02*
X184570904Y-166361771D01*
X184570904Y-166361771D02*
X184570904Y-166599866D01*
X184570904Y-166599866D02*
X184618523Y-166790342D01*
X184618523Y-166790342D02*
X184666142Y-166885580D01*
X184666142Y-166885580D02*
X184713761Y-166933200D01*
X184713761Y-166933200D02*
X184808999Y-166980819D01*
X184808999Y-166980819D02*
X184904237Y-166980819D01*
X184904237Y-166980819D02*
X184999475Y-166933200D01*
X184999475Y-166933200D02*
X185047094Y-166885580D01*
X185047094Y-166885580D02*
X185094713Y-166790342D01*
X185094713Y-166790342D02*
X185142332Y-166599866D01*
X185142332Y-166599866D02*
X185142332Y-166361771D01*
X185142332Y-166361771D02*
X185094713Y-166171295D01*
X185094713Y-166171295D02*
X185047094Y-166076057D01*
X185047094Y-166076057D02*
X184999475Y-166028438D01*
X184999475Y-166028438D02*
X184904237Y-165980819D01*
X221462380Y-175997752D02*
X221510000Y-175950133D01*
X221510000Y-175950133D02*
X221557619Y-175807276D01*
X221557619Y-175807276D02*
X221557619Y-175712038D01*
X221557619Y-175712038D02*
X221510000Y-175569181D01*
X221510000Y-175569181D02*
X221414761Y-175473943D01*
X221414761Y-175473943D02*
X221319523Y-175426324D01*
X221319523Y-175426324D02*
X221129047Y-175378705D01*
X221129047Y-175378705D02*
X220986190Y-175378705D01*
X220986190Y-175378705D02*
X220795714Y-175426324D01*
X220795714Y-175426324D02*
X220700476Y-175473943D01*
X220700476Y-175473943D02*
X220605238Y-175569181D01*
X220605238Y-175569181D02*
X220557619Y-175712038D01*
X220557619Y-175712038D02*
X220557619Y-175807276D01*
X220557619Y-175807276D02*
X220605238Y-175950133D01*
X220605238Y-175950133D02*
X220652857Y-175997752D01*
X221557619Y-176950133D02*
X221557619Y-176378705D01*
X221557619Y-176664419D02*
X220557619Y-176664419D01*
X220557619Y-176664419D02*
X220700476Y-176569181D01*
X220700476Y-176569181D02*
X220795714Y-176473943D01*
X220795714Y-176473943D02*
X220843333Y-176378705D01*
X220557619Y-177854895D02*
X220557619Y-177378705D01*
X220557619Y-177378705D02*
X221033809Y-177331086D01*
X221033809Y-177331086D02*
X220986190Y-177378705D01*
X220986190Y-177378705D02*
X220938571Y-177473943D01*
X220938571Y-177473943D02*
X220938571Y-177712038D01*
X220938571Y-177712038D02*
X220986190Y-177807276D01*
X220986190Y-177807276D02*
X221033809Y-177854895D01*
X221033809Y-177854895D02*
X221129047Y-177902514D01*
X221129047Y-177902514D02*
X221367142Y-177902514D01*
X221367142Y-177902514D02*
X221462380Y-177854895D01*
X221462380Y-177854895D02*
X221510000Y-177807276D01*
X221510000Y-177807276D02*
X221557619Y-177712038D01*
X221557619Y-177712038D02*
X221557619Y-177473943D01*
X221557619Y-177473943D02*
X221510000Y-177378705D01*
X221510000Y-177378705D02*
X221462380Y-177331086D01*
X220557619Y-178807276D02*
X220557619Y-178331086D01*
X220557619Y-178331086D02*
X221033809Y-178283467D01*
X221033809Y-178283467D02*
X220986190Y-178331086D01*
X220986190Y-178331086D02*
X220938571Y-178426324D01*
X220938571Y-178426324D02*
X220938571Y-178664419D01*
X220938571Y-178664419D02*
X220986190Y-178759657D01*
X220986190Y-178759657D02*
X221033809Y-178807276D01*
X221033809Y-178807276D02*
X221129047Y-178854895D01*
X221129047Y-178854895D02*
X221367142Y-178854895D01*
X221367142Y-178854895D02*
X221462380Y-178807276D01*
X221462380Y-178807276D02*
X221510000Y-178759657D01*
X221510000Y-178759657D02*
X221557619Y-178664419D01*
X221557619Y-178664419D02*
X221557619Y-178426324D01*
X221557619Y-178426324D02*
X221510000Y-178331086D01*
X221510000Y-178331086D02*
X221462380Y-178283467D01*
X199949180Y-146096552D02*
X199996800Y-146048933D01*
X199996800Y-146048933D02*
X200044419Y-145906076D01*
X200044419Y-145906076D02*
X200044419Y-145810838D01*
X200044419Y-145810838D02*
X199996800Y-145667981D01*
X199996800Y-145667981D02*
X199901561Y-145572743D01*
X199901561Y-145572743D02*
X199806323Y-145525124D01*
X199806323Y-145525124D02*
X199615847Y-145477505D01*
X199615847Y-145477505D02*
X199472990Y-145477505D01*
X199472990Y-145477505D02*
X199282514Y-145525124D01*
X199282514Y-145525124D02*
X199187276Y-145572743D01*
X199187276Y-145572743D02*
X199092038Y-145667981D01*
X199092038Y-145667981D02*
X199044419Y-145810838D01*
X199044419Y-145810838D02*
X199044419Y-145906076D01*
X199044419Y-145906076D02*
X199092038Y-146048933D01*
X199092038Y-146048933D02*
X199139657Y-146096552D01*
X200044419Y-147048933D02*
X200044419Y-146477505D01*
X200044419Y-146763219D02*
X199044419Y-146763219D01*
X199044419Y-146763219D02*
X199187276Y-146667981D01*
X199187276Y-146667981D02*
X199282514Y-146572743D01*
X199282514Y-146572743D02*
X199330133Y-146477505D01*
X199139657Y-147429886D02*
X199092038Y-147477505D01*
X199092038Y-147477505D02*
X199044419Y-147572743D01*
X199044419Y-147572743D02*
X199044419Y-147810838D01*
X199044419Y-147810838D02*
X199092038Y-147906076D01*
X199092038Y-147906076D02*
X199139657Y-147953695D01*
X199139657Y-147953695D02*
X199234895Y-148001314D01*
X199234895Y-148001314D02*
X199330133Y-148001314D01*
X199330133Y-148001314D02*
X199472990Y-147953695D01*
X199472990Y-147953695D02*
X200044419Y-147382267D01*
X200044419Y-147382267D02*
X200044419Y-148001314D01*
X199044419Y-148334648D02*
X199044419Y-149001314D01*
X199044419Y-149001314D02*
X200044419Y-148572743D01*
X131656447Y-80449380D02*
X131704066Y-80497000D01*
X131704066Y-80497000D02*
X131846923Y-80544619D01*
X131846923Y-80544619D02*
X131942161Y-80544619D01*
X131942161Y-80544619D02*
X132085018Y-80497000D01*
X132085018Y-80497000D02*
X132180256Y-80401761D01*
X132180256Y-80401761D02*
X132227875Y-80306523D01*
X132227875Y-80306523D02*
X132275494Y-80116047D01*
X132275494Y-80116047D02*
X132275494Y-79973190D01*
X132275494Y-79973190D02*
X132227875Y-79782714D01*
X132227875Y-79782714D02*
X132180256Y-79687476D01*
X132180256Y-79687476D02*
X132085018Y-79592238D01*
X132085018Y-79592238D02*
X131942161Y-79544619D01*
X131942161Y-79544619D02*
X131846923Y-79544619D01*
X131846923Y-79544619D02*
X131704066Y-79592238D01*
X131704066Y-79592238D02*
X131656447Y-79639857D01*
X131275494Y-79639857D02*
X131227875Y-79592238D01*
X131227875Y-79592238D02*
X131132637Y-79544619D01*
X131132637Y-79544619D02*
X130894542Y-79544619D01*
X130894542Y-79544619D02*
X130799304Y-79592238D01*
X130799304Y-79592238D02*
X130751685Y-79639857D01*
X130751685Y-79639857D02*
X130704066Y-79735095D01*
X130704066Y-79735095D02*
X130704066Y-79830333D01*
X130704066Y-79830333D02*
X130751685Y-79973190D01*
X130751685Y-79973190D02*
X131323113Y-80544619D01*
X131323113Y-80544619D02*
X130704066Y-80544619D01*
X130085018Y-79544619D02*
X129989780Y-79544619D01*
X129989780Y-79544619D02*
X129894542Y-79592238D01*
X129894542Y-79592238D02*
X129846923Y-79639857D01*
X129846923Y-79639857D02*
X129799304Y-79735095D01*
X129799304Y-79735095D02*
X129751685Y-79925571D01*
X129751685Y-79925571D02*
X129751685Y-80163666D01*
X129751685Y-80163666D02*
X129799304Y-80354142D01*
X129799304Y-80354142D02*
X129846923Y-80449380D01*
X129846923Y-80449380D02*
X129894542Y-80497000D01*
X129894542Y-80497000D02*
X129989780Y-80544619D01*
X129989780Y-80544619D02*
X130085018Y-80544619D01*
X130085018Y-80544619D02*
X130180256Y-80497000D01*
X130180256Y-80497000D02*
X130227875Y-80449380D01*
X130227875Y-80449380D02*
X130275494Y-80354142D01*
X130275494Y-80354142D02*
X130323113Y-80163666D01*
X130323113Y-80163666D02*
X130323113Y-79925571D01*
X130323113Y-79925571D02*
X130275494Y-79735095D01*
X130275494Y-79735095D02*
X130227875Y-79639857D01*
X130227875Y-79639857D02*
X130180256Y-79592238D01*
X130180256Y-79592238D02*
X130085018Y-79544619D01*
X129180256Y-79973190D02*
X129275494Y-79925571D01*
X129275494Y-79925571D02*
X129323113Y-79877952D01*
X129323113Y-79877952D02*
X129370732Y-79782714D01*
X129370732Y-79782714D02*
X129370732Y-79735095D01*
X129370732Y-79735095D02*
X129323113Y-79639857D01*
X129323113Y-79639857D02*
X129275494Y-79592238D01*
X129275494Y-79592238D02*
X129180256Y-79544619D01*
X129180256Y-79544619D02*
X128989780Y-79544619D01*
X128989780Y-79544619D02*
X128894542Y-79592238D01*
X128894542Y-79592238D02*
X128846923Y-79639857D01*
X128846923Y-79639857D02*
X128799304Y-79735095D01*
X128799304Y-79735095D02*
X128799304Y-79782714D01*
X128799304Y-79782714D02*
X128846923Y-79877952D01*
X128846923Y-79877952D02*
X128894542Y-79925571D01*
X128894542Y-79925571D02*
X128989780Y-79973190D01*
X128989780Y-79973190D02*
X129180256Y-79973190D01*
X129180256Y-79973190D02*
X129275494Y-80020809D01*
X129275494Y-80020809D02*
X129323113Y-80068428D01*
X129323113Y-80068428D02*
X129370732Y-80163666D01*
X129370732Y-80163666D02*
X129370732Y-80354142D01*
X129370732Y-80354142D02*
X129323113Y-80449380D01*
X129323113Y-80449380D02*
X129275494Y-80497000D01*
X129275494Y-80497000D02*
X129180256Y-80544619D01*
X129180256Y-80544619D02*
X128989780Y-80544619D01*
X128989780Y-80544619D02*
X128894542Y-80497000D01*
X128894542Y-80497000D02*
X128846923Y-80449380D01*
X128846923Y-80449380D02*
X128799304Y-80354142D01*
X128799304Y-80354142D02*
X128799304Y-80163666D01*
X128799304Y-80163666D02*
X128846923Y-80068428D01*
X128846923Y-80068428D02*
X128894542Y-80020809D01*
X128894542Y-80020809D02*
X128989780Y-79973190D01*
X159005447Y-172212380D02*
X159053066Y-172260000D01*
X159053066Y-172260000D02*
X159195923Y-172307619D01*
X159195923Y-172307619D02*
X159291161Y-172307619D01*
X159291161Y-172307619D02*
X159434018Y-172260000D01*
X159434018Y-172260000D02*
X159529256Y-172164761D01*
X159529256Y-172164761D02*
X159576875Y-172069523D01*
X159576875Y-172069523D02*
X159624494Y-171879047D01*
X159624494Y-171879047D02*
X159624494Y-171736190D01*
X159624494Y-171736190D02*
X159576875Y-171545714D01*
X159576875Y-171545714D02*
X159529256Y-171450476D01*
X159529256Y-171450476D02*
X159434018Y-171355238D01*
X159434018Y-171355238D02*
X159291161Y-171307619D01*
X159291161Y-171307619D02*
X159195923Y-171307619D01*
X159195923Y-171307619D02*
X159053066Y-171355238D01*
X159053066Y-171355238D02*
X159005447Y-171402857D01*
X158053066Y-172307619D02*
X158624494Y-172307619D01*
X158338780Y-172307619D02*
X158338780Y-171307619D01*
X158338780Y-171307619D02*
X158434018Y-171450476D01*
X158434018Y-171450476D02*
X158529256Y-171545714D01*
X158529256Y-171545714D02*
X158624494Y-171593333D01*
X157100685Y-172307619D02*
X157672113Y-172307619D01*
X157386399Y-172307619D02*
X157386399Y-171307619D01*
X157386399Y-171307619D02*
X157481637Y-171450476D01*
X157481637Y-171450476D02*
X157576875Y-171545714D01*
X157576875Y-171545714D02*
X157672113Y-171593333D01*
X156624494Y-172307619D02*
X156434018Y-172307619D01*
X156434018Y-172307619D02*
X156338780Y-172260000D01*
X156338780Y-172260000D02*
X156291161Y-172212380D01*
X156291161Y-172212380D02*
X156195923Y-172069523D01*
X156195923Y-172069523D02*
X156148304Y-171879047D01*
X156148304Y-171879047D02*
X156148304Y-171498095D01*
X156148304Y-171498095D02*
X156195923Y-171402857D01*
X156195923Y-171402857D02*
X156243542Y-171355238D01*
X156243542Y-171355238D02*
X156338780Y-171307619D01*
X156338780Y-171307619D02*
X156529256Y-171307619D01*
X156529256Y-171307619D02*
X156624494Y-171355238D01*
X156624494Y-171355238D02*
X156672113Y-171402857D01*
X156672113Y-171402857D02*
X156719732Y-171498095D01*
X156719732Y-171498095D02*
X156719732Y-171736190D01*
X156719732Y-171736190D02*
X156672113Y-171831428D01*
X156672113Y-171831428D02*
X156624494Y-171879047D01*
X156624494Y-171879047D02*
X156529256Y-171926666D01*
X156529256Y-171926666D02*
X156338780Y-171926666D01*
X156338780Y-171926666D02*
X156243542Y-171879047D01*
X156243542Y-171879047D02*
X156195923Y-171831428D01*
X156195923Y-171831428D02*
X156148304Y-171736190D01*
X98882247Y-81309180D02*
X98929866Y-81356800D01*
X98929866Y-81356800D02*
X99072723Y-81404419D01*
X99072723Y-81404419D02*
X99167961Y-81404419D01*
X99167961Y-81404419D02*
X99310818Y-81356800D01*
X99310818Y-81356800D02*
X99406056Y-81261561D01*
X99406056Y-81261561D02*
X99453675Y-81166323D01*
X99453675Y-81166323D02*
X99501294Y-80975847D01*
X99501294Y-80975847D02*
X99501294Y-80832990D01*
X99501294Y-80832990D02*
X99453675Y-80642514D01*
X99453675Y-80642514D02*
X99406056Y-80547276D01*
X99406056Y-80547276D02*
X99310818Y-80452038D01*
X99310818Y-80452038D02*
X99167961Y-80404419D01*
X99167961Y-80404419D02*
X99072723Y-80404419D01*
X99072723Y-80404419D02*
X98929866Y-80452038D01*
X98929866Y-80452038D02*
X98882247Y-80499657D01*
X97929866Y-81404419D02*
X98501294Y-81404419D01*
X98215580Y-81404419D02*
X98215580Y-80404419D01*
X98215580Y-80404419D02*
X98310818Y-80547276D01*
X98310818Y-80547276D02*
X98406056Y-80642514D01*
X98406056Y-80642514D02*
X98501294Y-80690133D01*
X97453675Y-81404419D02*
X97263199Y-81404419D01*
X97263199Y-81404419D02*
X97167961Y-81356800D01*
X97167961Y-81356800D02*
X97120342Y-81309180D01*
X97120342Y-81309180D02*
X97025104Y-81166323D01*
X97025104Y-81166323D02*
X96977485Y-80975847D01*
X96977485Y-80975847D02*
X96977485Y-80594895D01*
X96977485Y-80594895D02*
X97025104Y-80499657D01*
X97025104Y-80499657D02*
X97072723Y-80452038D01*
X97072723Y-80452038D02*
X97167961Y-80404419D01*
X97167961Y-80404419D02*
X97358437Y-80404419D01*
X97358437Y-80404419D02*
X97453675Y-80452038D01*
X97453675Y-80452038D02*
X97501294Y-80499657D01*
X97501294Y-80499657D02*
X97548913Y-80594895D01*
X97548913Y-80594895D02*
X97548913Y-80832990D01*
X97548913Y-80832990D02*
X97501294Y-80928228D01*
X97501294Y-80928228D02*
X97453675Y-80975847D01*
X97453675Y-80975847D02*
X97358437Y-81023466D01*
X97358437Y-81023466D02*
X97167961Y-81023466D01*
X97167961Y-81023466D02*
X97072723Y-80975847D01*
X97072723Y-80975847D02*
X97025104Y-80928228D01*
X97025104Y-80928228D02*
X96977485Y-80832990D01*
X96644151Y-80404419D02*
X95977485Y-80404419D01*
X95977485Y-80404419D02*
X96406056Y-81404419D01*
D11*
X190496165Y-146813209D02*
X190556642Y-146752733D01*
X190556642Y-146752733D02*
X190617118Y-146571304D01*
X190617118Y-146571304D02*
X190617118Y-146450352D01*
X190617118Y-146450352D02*
X190556642Y-146268923D01*
X190556642Y-146268923D02*
X190435689Y-146147971D01*
X190435689Y-146147971D02*
X190314737Y-146087494D01*
X190314737Y-146087494D02*
X190072832Y-146027018D01*
X190072832Y-146027018D02*
X189891403Y-146027018D01*
X189891403Y-146027018D02*
X189649499Y-146087494D01*
X189649499Y-146087494D02*
X189528546Y-146147971D01*
X189528546Y-146147971D02*
X189407594Y-146268923D01*
X189407594Y-146268923D02*
X189347118Y-146450352D01*
X189347118Y-146450352D02*
X189347118Y-146571304D01*
X189347118Y-146571304D02*
X189407594Y-146752733D01*
X189407594Y-146752733D02*
X189468070Y-146813209D01*
X190617118Y-148022733D02*
X190617118Y-147297018D01*
X190617118Y-147659875D02*
X189347118Y-147659875D01*
X189347118Y-147659875D02*
X189528546Y-147538923D01*
X189528546Y-147538923D02*
X189649499Y-147417971D01*
X189649499Y-147417971D02*
X189709975Y-147297018D01*
X189468070Y-148506542D02*
X189407594Y-148567018D01*
X189407594Y-148567018D02*
X189347118Y-148687971D01*
X189347118Y-148687971D02*
X189347118Y-148990352D01*
X189347118Y-148990352D02*
X189407594Y-149111304D01*
X189407594Y-149111304D02*
X189468070Y-149171780D01*
X189468070Y-149171780D02*
X189589022Y-149232257D01*
X189589022Y-149232257D02*
X189709975Y-149232257D01*
X189709975Y-149232257D02*
X189891403Y-149171780D01*
X189891403Y-149171780D02*
X190617118Y-148446066D01*
X190617118Y-148446066D02*
X190617118Y-149232257D01*
X189347118Y-149655590D02*
X189347118Y-150441781D01*
X189347118Y-150441781D02*
X189830927Y-150018447D01*
X189830927Y-150018447D02*
X189830927Y-150199876D01*
X189830927Y-150199876D02*
X189891403Y-150320828D01*
X189891403Y-150320828D02*
X189951880Y-150381304D01*
X189951880Y-150381304D02*
X190072832Y-150441781D01*
X190072832Y-150441781D02*
X190375213Y-150441781D01*
X190375213Y-150441781D02*
X190496165Y-150381304D01*
X190496165Y-150381304D02*
X190556642Y-150320828D01*
X190556642Y-150320828D02*
X190617118Y-150199876D01*
X190617118Y-150199876D02*
X190617118Y-149837019D01*
X190617118Y-149837019D02*
X190556642Y-149716066D01*
X190556642Y-149716066D02*
X190496165Y-149655590D01*
D10*
X215395980Y-175624204D02*
X215443600Y-175576585D01*
X215443600Y-175576585D02*
X215491219Y-175433728D01*
X215491219Y-175433728D02*
X215491219Y-175338490D01*
X215491219Y-175338490D02*
X215443600Y-175195633D01*
X215443600Y-175195633D02*
X215348361Y-175100395D01*
X215348361Y-175100395D02*
X215253123Y-175052776D01*
X215253123Y-175052776D02*
X215062647Y-175005157D01*
X215062647Y-175005157D02*
X214919790Y-175005157D01*
X214919790Y-175005157D02*
X214729314Y-175052776D01*
X214729314Y-175052776D02*
X214634076Y-175100395D01*
X214634076Y-175100395D02*
X214538838Y-175195633D01*
X214538838Y-175195633D02*
X214491219Y-175338490D01*
X214491219Y-175338490D02*
X214491219Y-175433728D01*
X214491219Y-175433728D02*
X214538838Y-175576585D01*
X214538838Y-175576585D02*
X214586457Y-175624204D01*
X215491219Y-176576585D02*
X215491219Y-176005157D01*
X215491219Y-176290871D02*
X214491219Y-176290871D01*
X214491219Y-176290871D02*
X214634076Y-176195633D01*
X214634076Y-176195633D02*
X214729314Y-176100395D01*
X214729314Y-176100395D02*
X214776933Y-176005157D01*
X214491219Y-177481347D02*
X214491219Y-177005157D01*
X214491219Y-177005157D02*
X214967409Y-176957538D01*
X214967409Y-176957538D02*
X214919790Y-177005157D01*
X214919790Y-177005157D02*
X214872171Y-177100395D01*
X214872171Y-177100395D02*
X214872171Y-177338490D01*
X214872171Y-177338490D02*
X214919790Y-177433728D01*
X214919790Y-177433728D02*
X214967409Y-177481347D01*
X214967409Y-177481347D02*
X215062647Y-177528966D01*
X215062647Y-177528966D02*
X215300742Y-177528966D01*
X215300742Y-177528966D02*
X215395980Y-177481347D01*
X215395980Y-177481347D02*
X215443600Y-177433728D01*
X215443600Y-177433728D02*
X215491219Y-177338490D01*
X215491219Y-177338490D02*
X215491219Y-177100395D01*
X215491219Y-177100395D02*
X215443600Y-177005157D01*
X215443600Y-177005157D02*
X215395980Y-176957538D01*
X214824552Y-178386109D02*
X215491219Y-178386109D01*
X214443600Y-178148014D02*
X215157885Y-177909919D01*
X215157885Y-177909919D02*
X215157885Y-178528966D01*
X101248380Y-170556752D02*
X101296000Y-170509133D01*
X101296000Y-170509133D02*
X101343619Y-170366276D01*
X101343619Y-170366276D02*
X101343619Y-170271038D01*
X101343619Y-170271038D02*
X101296000Y-170128181D01*
X101296000Y-170128181D02*
X101200761Y-170032943D01*
X101200761Y-170032943D02*
X101105523Y-169985324D01*
X101105523Y-169985324D02*
X100915047Y-169937705D01*
X100915047Y-169937705D02*
X100772190Y-169937705D01*
X100772190Y-169937705D02*
X100581714Y-169985324D01*
X100581714Y-169985324D02*
X100486476Y-170032943D01*
X100486476Y-170032943D02*
X100391238Y-170128181D01*
X100391238Y-170128181D02*
X100343619Y-170271038D01*
X100343619Y-170271038D02*
X100343619Y-170366276D01*
X100343619Y-170366276D02*
X100391238Y-170509133D01*
X100391238Y-170509133D02*
X100438857Y-170556752D01*
X101343619Y-171509133D02*
X101343619Y-170937705D01*
X101343619Y-171223419D02*
X100343619Y-171223419D01*
X100343619Y-171223419D02*
X100486476Y-171128181D01*
X100486476Y-171128181D02*
X100581714Y-171032943D01*
X100581714Y-171032943D02*
X100629333Y-170937705D01*
X100676952Y-172366276D02*
X101343619Y-172366276D01*
X100296000Y-172128181D02*
X101010285Y-171890086D01*
X101010285Y-171890086D02*
X101010285Y-172509133D01*
X100438857Y-172842467D02*
X100391238Y-172890086D01*
X100391238Y-172890086D02*
X100343619Y-172985324D01*
X100343619Y-172985324D02*
X100343619Y-173223419D01*
X100343619Y-173223419D02*
X100391238Y-173318657D01*
X100391238Y-173318657D02*
X100438857Y-173366276D01*
X100438857Y-173366276D02*
X100534095Y-173413895D01*
X100534095Y-173413895D02*
X100629333Y-173413895D01*
X100629333Y-173413895D02*
X100772190Y-173366276D01*
X100772190Y-173366276D02*
X101343619Y-172794848D01*
X101343619Y-172794848D02*
X101343619Y-173413895D01*
X102209380Y-176122152D02*
X102257000Y-176074533D01*
X102257000Y-176074533D02*
X102304619Y-175931676D01*
X102304619Y-175931676D02*
X102304619Y-175836438D01*
X102304619Y-175836438D02*
X102257000Y-175693581D01*
X102257000Y-175693581D02*
X102161761Y-175598343D01*
X102161761Y-175598343D02*
X102066523Y-175550724D01*
X102066523Y-175550724D02*
X101876047Y-175503105D01*
X101876047Y-175503105D02*
X101733190Y-175503105D01*
X101733190Y-175503105D02*
X101542714Y-175550724D01*
X101542714Y-175550724D02*
X101447476Y-175598343D01*
X101447476Y-175598343D02*
X101352238Y-175693581D01*
X101352238Y-175693581D02*
X101304619Y-175836438D01*
X101304619Y-175836438D02*
X101304619Y-175931676D01*
X101304619Y-175931676D02*
X101352238Y-176074533D01*
X101352238Y-176074533D02*
X101399857Y-176122152D01*
X102304619Y-177074533D02*
X102304619Y-176503105D01*
X102304619Y-176788819D02*
X101304619Y-176788819D01*
X101304619Y-176788819D02*
X101447476Y-176693581D01*
X101447476Y-176693581D02*
X101542714Y-176598343D01*
X101542714Y-176598343D02*
X101590333Y-176503105D01*
X101637952Y-177931676D02*
X102304619Y-177931676D01*
X101257000Y-177693581D02*
X101971285Y-177455486D01*
X101971285Y-177455486D02*
X101971285Y-178074533D01*
X101304619Y-178360248D02*
X101304619Y-179026914D01*
X101304619Y-179026914D02*
X102304619Y-178598343D01*
X95507980Y-176477752D02*
X95555600Y-176430133D01*
X95555600Y-176430133D02*
X95603219Y-176287276D01*
X95603219Y-176287276D02*
X95603219Y-176192038D01*
X95603219Y-176192038D02*
X95555600Y-176049181D01*
X95555600Y-176049181D02*
X95460361Y-175953943D01*
X95460361Y-175953943D02*
X95365123Y-175906324D01*
X95365123Y-175906324D02*
X95174647Y-175858705D01*
X95174647Y-175858705D02*
X95031790Y-175858705D01*
X95031790Y-175858705D02*
X94841314Y-175906324D01*
X94841314Y-175906324D02*
X94746076Y-175953943D01*
X94746076Y-175953943D02*
X94650838Y-176049181D01*
X94650838Y-176049181D02*
X94603219Y-176192038D01*
X94603219Y-176192038D02*
X94603219Y-176287276D01*
X94603219Y-176287276D02*
X94650838Y-176430133D01*
X94650838Y-176430133D02*
X94698457Y-176477752D01*
X95603219Y-177430133D02*
X95603219Y-176858705D01*
X95603219Y-177144419D02*
X94603219Y-177144419D01*
X94603219Y-177144419D02*
X94746076Y-177049181D01*
X94746076Y-177049181D02*
X94841314Y-176953943D01*
X94841314Y-176953943D02*
X94888933Y-176858705D01*
X94936552Y-178287276D02*
X95603219Y-178287276D01*
X94555600Y-178049181D02*
X95269885Y-177811086D01*
X95269885Y-177811086D02*
X95269885Y-178430133D01*
X94603219Y-179239657D02*
X94603219Y-179049181D01*
X94603219Y-179049181D02*
X94650838Y-178953943D01*
X94650838Y-178953943D02*
X94698457Y-178906324D01*
X94698457Y-178906324D02*
X94841314Y-178811086D01*
X94841314Y-178811086D02*
X95031790Y-178763467D01*
X95031790Y-178763467D02*
X95412742Y-178763467D01*
X95412742Y-178763467D02*
X95507980Y-178811086D01*
X95507980Y-178811086D02*
X95555600Y-178858705D01*
X95555600Y-178858705D02*
X95603219Y-178953943D01*
X95603219Y-178953943D02*
X95603219Y-179144419D01*
X95603219Y-179144419D02*
X95555600Y-179239657D01*
X95555600Y-179239657D02*
X95507980Y-179287276D01*
X95507980Y-179287276D02*
X95412742Y-179334895D01*
X95412742Y-179334895D02*
X95174647Y-179334895D01*
X95174647Y-179334895D02*
X95079409Y-179287276D01*
X95079409Y-179287276D02*
X95031790Y-179239657D01*
X95031790Y-179239657D02*
X94984171Y-179144419D01*
X94984171Y-179144419D02*
X94984171Y-178953943D01*
X94984171Y-178953943D02*
X95031790Y-178858705D01*
X95031790Y-178858705D02*
X95079409Y-178811086D01*
X95079409Y-178811086D02*
X95174647Y-178763467D01*
X66988047Y-81566980D02*
X67035666Y-81614600D01*
X67035666Y-81614600D02*
X67178523Y-81662219D01*
X67178523Y-81662219D02*
X67273761Y-81662219D01*
X67273761Y-81662219D02*
X67416618Y-81614600D01*
X67416618Y-81614600D02*
X67511856Y-81519361D01*
X67511856Y-81519361D02*
X67559475Y-81424123D01*
X67559475Y-81424123D02*
X67607094Y-81233647D01*
X67607094Y-81233647D02*
X67607094Y-81090790D01*
X67607094Y-81090790D02*
X67559475Y-80900314D01*
X67559475Y-80900314D02*
X67511856Y-80805076D01*
X67511856Y-80805076D02*
X67416618Y-80709838D01*
X67416618Y-80709838D02*
X67273761Y-80662219D01*
X67273761Y-80662219D02*
X67178523Y-80662219D01*
X67178523Y-80662219D02*
X67035666Y-80709838D01*
X67035666Y-80709838D02*
X66988047Y-80757457D01*
X66035666Y-81662219D02*
X66607094Y-81662219D01*
X66321380Y-81662219D02*
X66321380Y-80662219D01*
X66321380Y-80662219D02*
X66416618Y-80805076D01*
X66416618Y-80805076D02*
X66511856Y-80900314D01*
X66511856Y-80900314D02*
X66607094Y-80947933D01*
X65464237Y-81090790D02*
X65559475Y-81043171D01*
X65559475Y-81043171D02*
X65607094Y-80995552D01*
X65607094Y-80995552D02*
X65654713Y-80900314D01*
X65654713Y-80900314D02*
X65654713Y-80852695D01*
X65654713Y-80852695D02*
X65607094Y-80757457D01*
X65607094Y-80757457D02*
X65559475Y-80709838D01*
X65559475Y-80709838D02*
X65464237Y-80662219D01*
X65464237Y-80662219D02*
X65273761Y-80662219D01*
X65273761Y-80662219D02*
X65178523Y-80709838D01*
X65178523Y-80709838D02*
X65130904Y-80757457D01*
X65130904Y-80757457D02*
X65083285Y-80852695D01*
X65083285Y-80852695D02*
X65083285Y-80900314D01*
X65083285Y-80900314D02*
X65130904Y-80995552D01*
X65130904Y-80995552D02*
X65178523Y-81043171D01*
X65178523Y-81043171D02*
X65273761Y-81090790D01*
X65273761Y-81090790D02*
X65464237Y-81090790D01*
X65464237Y-81090790D02*
X65559475Y-81138409D01*
X65559475Y-81138409D02*
X65607094Y-81186028D01*
X65607094Y-81186028D02*
X65654713Y-81281266D01*
X65654713Y-81281266D02*
X65654713Y-81471742D01*
X65654713Y-81471742D02*
X65607094Y-81566980D01*
X65607094Y-81566980D02*
X65559475Y-81614600D01*
X65559475Y-81614600D02*
X65464237Y-81662219D01*
X65464237Y-81662219D02*
X65273761Y-81662219D01*
X65273761Y-81662219D02*
X65178523Y-81614600D01*
X65178523Y-81614600D02*
X65130904Y-81566980D01*
X65130904Y-81566980D02*
X65083285Y-81471742D01*
X65083285Y-81471742D02*
X65083285Y-81281266D01*
X65083285Y-81281266D02*
X65130904Y-81186028D01*
X65130904Y-81186028D02*
X65178523Y-81138409D01*
X65178523Y-81138409D02*
X65273761Y-81090790D01*
X64226142Y-80662219D02*
X64416618Y-80662219D01*
X64416618Y-80662219D02*
X64511856Y-80709838D01*
X64511856Y-80709838D02*
X64559475Y-80757457D01*
X64559475Y-80757457D02*
X64654713Y-80900314D01*
X64654713Y-80900314D02*
X64702332Y-81090790D01*
X64702332Y-81090790D02*
X64702332Y-81471742D01*
X64702332Y-81471742D02*
X64654713Y-81566980D01*
X64654713Y-81566980D02*
X64607094Y-81614600D01*
X64607094Y-81614600D02*
X64511856Y-81662219D01*
X64511856Y-81662219D02*
X64321380Y-81662219D01*
X64321380Y-81662219D02*
X64226142Y-81614600D01*
X64226142Y-81614600D02*
X64178523Y-81566980D01*
X64178523Y-81566980D02*
X64130904Y-81471742D01*
X64130904Y-81471742D02*
X64130904Y-81233647D01*
X64130904Y-81233647D02*
X64178523Y-81138409D01*
X64178523Y-81138409D02*
X64226142Y-81090790D01*
X64226142Y-81090790D02*
X64321380Y-81043171D01*
X64321380Y-81043171D02*
X64511856Y-81043171D01*
X64511856Y-81043171D02*
X64607094Y-81090790D01*
X64607094Y-81090790D02*
X64654713Y-81138409D01*
X64654713Y-81138409D02*
X64702332Y-81233647D01*
X220907780Y-170889752D02*
X220955400Y-170842133D01*
X220955400Y-170842133D02*
X221003019Y-170699276D01*
X221003019Y-170699276D02*
X221003019Y-170604038D01*
X221003019Y-170604038D02*
X220955400Y-170461181D01*
X220955400Y-170461181D02*
X220860161Y-170365943D01*
X220860161Y-170365943D02*
X220764923Y-170318324D01*
X220764923Y-170318324D02*
X220574447Y-170270705D01*
X220574447Y-170270705D02*
X220431590Y-170270705D01*
X220431590Y-170270705D02*
X220241114Y-170318324D01*
X220241114Y-170318324D02*
X220145876Y-170365943D01*
X220145876Y-170365943D02*
X220050638Y-170461181D01*
X220050638Y-170461181D02*
X220003019Y-170604038D01*
X220003019Y-170604038D02*
X220003019Y-170699276D01*
X220003019Y-170699276D02*
X220050638Y-170842133D01*
X220050638Y-170842133D02*
X220098257Y-170889752D01*
X221003019Y-171842133D02*
X221003019Y-171270705D01*
X221003019Y-171556419D02*
X220003019Y-171556419D01*
X220003019Y-171556419D02*
X220145876Y-171461181D01*
X220145876Y-171461181D02*
X220241114Y-171365943D01*
X220241114Y-171365943D02*
X220288733Y-171270705D01*
X220003019Y-172746895D02*
X220003019Y-172270705D01*
X220003019Y-172270705D02*
X220479209Y-172223086D01*
X220479209Y-172223086D02*
X220431590Y-172270705D01*
X220431590Y-172270705D02*
X220383971Y-172365943D01*
X220383971Y-172365943D02*
X220383971Y-172604038D01*
X220383971Y-172604038D02*
X220431590Y-172699276D01*
X220431590Y-172699276D02*
X220479209Y-172746895D01*
X220479209Y-172746895D02*
X220574447Y-172794514D01*
X220574447Y-172794514D02*
X220812542Y-172794514D01*
X220812542Y-172794514D02*
X220907780Y-172746895D01*
X220907780Y-172746895D02*
X220955400Y-172699276D01*
X220955400Y-172699276D02*
X221003019Y-172604038D01*
X221003019Y-172604038D02*
X221003019Y-172365943D01*
X221003019Y-172365943D02*
X220955400Y-172270705D01*
X220955400Y-172270705D02*
X220907780Y-172223086D01*
X220003019Y-173413562D02*
X220003019Y-173508800D01*
X220003019Y-173508800D02*
X220050638Y-173604038D01*
X220050638Y-173604038D02*
X220098257Y-173651657D01*
X220098257Y-173651657D02*
X220193495Y-173699276D01*
X220193495Y-173699276D02*
X220383971Y-173746895D01*
X220383971Y-173746895D02*
X220622066Y-173746895D01*
X220622066Y-173746895D02*
X220812542Y-173699276D01*
X220812542Y-173699276D02*
X220907780Y-173651657D01*
X220907780Y-173651657D02*
X220955400Y-173604038D01*
X220955400Y-173604038D02*
X221003019Y-173508800D01*
X221003019Y-173508800D02*
X221003019Y-173413562D01*
X221003019Y-173413562D02*
X220955400Y-173318324D01*
X220955400Y-173318324D02*
X220907780Y-173270705D01*
X220907780Y-173270705D02*
X220812542Y-173223086D01*
X220812542Y-173223086D02*
X220622066Y-173175467D01*
X220622066Y-173175467D02*
X220383971Y-173175467D01*
X220383971Y-173175467D02*
X220193495Y-173223086D01*
X220193495Y-173223086D02*
X220098257Y-173270705D01*
X220098257Y-173270705D02*
X220050638Y-173318324D01*
X220050638Y-173318324D02*
X220003019Y-173413562D01*
X163323447Y-80518180D02*
X163371066Y-80565800D01*
X163371066Y-80565800D02*
X163513923Y-80613419D01*
X163513923Y-80613419D02*
X163609161Y-80613419D01*
X163609161Y-80613419D02*
X163752018Y-80565800D01*
X163752018Y-80565800D02*
X163847256Y-80470561D01*
X163847256Y-80470561D02*
X163894875Y-80375323D01*
X163894875Y-80375323D02*
X163942494Y-80184847D01*
X163942494Y-80184847D02*
X163942494Y-80041990D01*
X163942494Y-80041990D02*
X163894875Y-79851514D01*
X163894875Y-79851514D02*
X163847256Y-79756276D01*
X163847256Y-79756276D02*
X163752018Y-79661038D01*
X163752018Y-79661038D02*
X163609161Y-79613419D01*
X163609161Y-79613419D02*
X163513923Y-79613419D01*
X163513923Y-79613419D02*
X163371066Y-79661038D01*
X163371066Y-79661038D02*
X163323447Y-79708657D01*
X162942494Y-79708657D02*
X162894875Y-79661038D01*
X162894875Y-79661038D02*
X162799637Y-79613419D01*
X162799637Y-79613419D02*
X162561542Y-79613419D01*
X162561542Y-79613419D02*
X162466304Y-79661038D01*
X162466304Y-79661038D02*
X162418685Y-79708657D01*
X162418685Y-79708657D02*
X162371066Y-79803895D01*
X162371066Y-79803895D02*
X162371066Y-79899133D01*
X162371066Y-79899133D02*
X162418685Y-80041990D01*
X162418685Y-80041990D02*
X162990113Y-80613419D01*
X162990113Y-80613419D02*
X162371066Y-80613419D01*
X161418685Y-80613419D02*
X161990113Y-80613419D01*
X161704399Y-80613419D02*
X161704399Y-79613419D01*
X161704399Y-79613419D02*
X161799637Y-79756276D01*
X161799637Y-79756276D02*
X161894875Y-79851514D01*
X161894875Y-79851514D02*
X161990113Y-79899133D01*
X160942494Y-80613419D02*
X160752018Y-80613419D01*
X160752018Y-80613419D02*
X160656780Y-80565800D01*
X160656780Y-80565800D02*
X160609161Y-80518180D01*
X160609161Y-80518180D02*
X160513923Y-80375323D01*
X160513923Y-80375323D02*
X160466304Y-80184847D01*
X160466304Y-80184847D02*
X160466304Y-79803895D01*
X160466304Y-79803895D02*
X160513923Y-79708657D01*
X160513923Y-79708657D02*
X160561542Y-79661038D01*
X160561542Y-79661038D02*
X160656780Y-79613419D01*
X160656780Y-79613419D02*
X160847256Y-79613419D01*
X160847256Y-79613419D02*
X160942494Y-79661038D01*
X160942494Y-79661038D02*
X160990113Y-79708657D01*
X160990113Y-79708657D02*
X161037732Y-79803895D01*
X161037732Y-79803895D02*
X161037732Y-80041990D01*
X161037732Y-80041990D02*
X160990113Y-80137228D01*
X160990113Y-80137228D02*
X160942494Y-80184847D01*
X160942494Y-80184847D02*
X160847256Y-80232466D01*
X160847256Y-80232466D02*
X160656780Y-80232466D01*
X160656780Y-80232466D02*
X160561542Y-80184847D01*
X160561542Y-80184847D02*
X160513923Y-80137228D01*
X160513923Y-80137228D02*
X160466304Y-80041990D01*
D12*
%TO.C,J43*%
X239522000Y-119430800D02*
G75*
G02*
X238760000Y-119430800I-381000J0D01*
G01*
X238760000Y-119430800D02*
G75*
G02*
X239522000Y-119430800I381000J0D01*
G01*
D13*
%TO.C,R97*%
X178464800Y-136534536D02*
X178464800Y-137988664D01*
X180284800Y-136534536D02*
X180284800Y-137988664D01*
%TO.C,C143*%
X96067200Y-170431348D02*
X96067200Y-171853852D01*
X97887200Y-170431348D02*
X97887200Y-171853852D01*
%TO.C,C132*%
X165361252Y-143079800D02*
X164838748Y-143079800D01*
X165361252Y-144549800D02*
X164838748Y-144549800D01*
%TO.C,C151*%
X214913800Y-170740548D02*
X214913800Y-172163052D01*
X216733800Y-170740548D02*
X216733800Y-172163052D01*
%TO.C,C120*%
X186047748Y-164111000D02*
X186570252Y-164111000D01*
X186047748Y-165581000D02*
X186570252Y-165581000D01*
%TO.C,C155*%
X218342800Y-177828052D02*
X218342800Y-176405548D01*
X220162800Y-177828052D02*
X220162800Y-176405548D01*
%TO.C,C127*%
X200534600Y-146954348D02*
X200534600Y-147476852D01*
X202004600Y-146954348D02*
X202004600Y-147476852D01*
%TO.C,C208*%
X130276148Y-77674800D02*
X130798652Y-77674800D01*
X130276148Y-79144800D02*
X130798652Y-79144800D01*
%TO.C,C119*%
X158147652Y-172797800D02*
X157625148Y-172797800D01*
X158147652Y-174267800D02*
X157625148Y-174267800D01*
%TO.C,C197*%
X97501948Y-78534600D02*
X98024452Y-78534600D01*
X97501948Y-80004600D02*
X98024452Y-80004600D01*
%TO.C,C154*%
X216130200Y-176743252D02*
X216130200Y-176220748D01*
X217600200Y-176743252D02*
X217600200Y-176220748D01*
%TO.C,C142*%
X98426600Y-171414548D02*
X98426600Y-171937052D01*
X99896600Y-171414548D02*
X99896600Y-171937052D01*
%TO.C,C147*%
X99089800Y-177952452D02*
X99089800Y-176529948D01*
X100909800Y-177952452D02*
X100909800Y-176529948D01*
%TO.C,C146*%
X96572400Y-177858052D02*
X96572400Y-177335548D01*
X98042400Y-177858052D02*
X98042400Y-177335548D01*
%TO.C,C186*%
X65607748Y-78792400D02*
X66130252Y-78792400D01*
X65607748Y-80262400D02*
X66130252Y-80262400D01*
%TO.C,C150*%
X217654200Y-171772948D02*
X217654200Y-172295452D01*
X219124200Y-171772948D02*
X219124200Y-172295452D01*
%TO.C,C219*%
X162980648Y-77569400D02*
X163503152Y-77569400D01*
X162980648Y-79039400D02*
X163503152Y-79039400D01*
%TD*%
M02*
