%TF.GenerationSoftware,KiCad,Pcbnew,9.0.3*%
%TF.CreationDate,2026-02-17T04:25:08-07:00*%
%TF.ProjectId,Side Peripheral Board,53696465-2050-4657-9269-70686572616c,rev?*%
%TF.SameCoordinates,Original*%
%TF.FileFunction,Soldermask,Bot*%
%TF.FilePolarity,Negative*%
%FSLAX46Y46*%
G04 Gerber Fmt 4.6, Leading zero omitted, Abs format (unit mm)*
G04 Created by KiCad (PCBNEW 9.0.3) date 2026-02-17 04:25:08*
%MOMM*%
%LPD*%
G01*
G04 APERTURE LIST*
%ADD10C,2.100000*%
%ADD11R,1.530000X1.530000*%
%ADD12C,1.530000*%
%ADD13C,3.200000*%
%ADD14R,1.935000X1.935000*%
%ADD15C,1.935000*%
%ADD16R,1.725000X1.725000*%
%ADD17C,1.725000*%
%ADD18C,1.600000*%
%ADD19R,2.100000X2.100000*%
%ADD20C,1.800000*%
G04 APERTURE END LIST*
D10*
%TO.C,VR3*%
X191222000Y-185319000D03*
X196222000Y-185319000D03*
X201222000Y-185319000D03*
%TD*%
D11*
%TO.C,J81*%
X199136000Y-170688000D03*
D12*
X199136000Y-168148000D03*
%TD*%
D11*
%TO.C,J60*%
X329041000Y-160926000D03*
D12*
X331581000Y-160926000D03*
%TD*%
D13*
%TO.C,M1*%
X71882000Y-94488000D03*
%TD*%
D11*
%TO.C,J39*%
X159512000Y-157988000D03*
D12*
X159512000Y-155448000D03*
%TD*%
D14*
%TO.C,IC36*%
X227457000Y-113966000D03*
D15*
X227457000Y-111426000D03*
X227457000Y-108886000D03*
%TD*%
D11*
%TO.C,J6*%
X175133000Y-114046000D03*
D12*
X172593000Y-114046000D03*
%TD*%
D14*
%TO.C,IC35*%
X72644000Y-118999000D03*
D15*
X72644000Y-116459000D03*
X72644000Y-113919000D03*
%TD*%
D11*
%TO.C,J61*%
X336804000Y-122936000D03*
D12*
X339344000Y-122936000D03*
%TD*%
D16*
%TO.C,J20*%
X248158000Y-188214000D03*
D17*
X250698000Y-188214000D03*
X253238000Y-188214000D03*
X255778000Y-188214000D03*
%TD*%
D11*
%TO.C,J65*%
X266700000Y-161391000D03*
D12*
X269240000Y-161391000D03*
%TD*%
D11*
%TO.C,J80*%
X272923000Y-170815000D03*
D12*
X272923000Y-168275000D03*
%TD*%
D11*
%TO.C,J34*%
X193040000Y-121793000D03*
D12*
X195580000Y-121793000D03*
%TD*%
D11*
%TO.C,J59*%
X337296000Y-160926000D03*
D12*
X339836000Y-160926000D03*
%TD*%
D14*
%TO.C,IC32*%
X282829000Y-109855000D03*
D15*
X280289000Y-109855000D03*
X277749000Y-109855000D03*
%TD*%
D11*
%TO.C,J28*%
X215773000Y-128371600D03*
D12*
X218313000Y-128371600D03*
%TD*%
D11*
%TO.C,J73*%
X254508000Y-91541000D03*
D12*
X251968000Y-91541000D03*
%TD*%
D13*
%TO.C,M4*%
X107442000Y-180848000D03*
%TD*%
D11*
%TO.C,J36*%
X91973400Y-159512000D03*
D12*
X91973400Y-156972000D03*
%TD*%
D11*
%TO.C,J62*%
X288036000Y-156819000D03*
D12*
X288036000Y-154279000D03*
%TD*%
D16*
%TO.C,J21*%
X103505000Y-187914800D03*
D17*
X106045000Y-187914800D03*
X108585000Y-187914800D03*
X111125000Y-187914800D03*
%TD*%
D11*
%TO.C,J38*%
X142705500Y-154432000D03*
D12*
X142705500Y-151892000D03*
%TD*%
D16*
%TO.C,J78*%
X258318000Y-109829000D03*
D17*
X260858000Y-109829000D03*
X263398000Y-109829000D03*
X265938000Y-109829000D03*
%TD*%
D11*
%TO.C,J68*%
X216535000Y-155930000D03*
D12*
X216535000Y-153390000D03*
%TD*%
D11*
%TO.C,J53*%
X201295000Y-109728000D03*
D12*
X198755000Y-109728000D03*
%TD*%
D11*
%TO.C,J10*%
X220472000Y-104267000D03*
D12*
X217932000Y-104267000D03*
%TD*%
D18*
%TO.C,J43*%
X309105000Y-185022000D03*
X300105000Y-185022000D03*
D19*
X310855000Y-171822000D03*
D10*
X298355000Y-171222000D03*
D20*
X304605000Y-171222000D03*
X313055000Y-180822000D03*
X308605000Y-175422000D03*
X311905000Y-167422000D03*
X297205000Y-179522000D03*
X300805000Y-175422000D03*
X296205000Y-175422000D03*
X299505000Y-167422000D03*
%TD*%
D11*
%TO.C,J27*%
X202057000Y-160655000D03*
D12*
X199517000Y-160655000D03*
%TD*%
D18*
%TO.C,J42*%
X237057000Y-185074000D03*
X228057000Y-185074000D03*
D19*
X238807000Y-171874000D03*
D10*
X226307000Y-171274000D03*
D20*
X232557000Y-171274000D03*
X241007000Y-180874000D03*
X236557000Y-175474000D03*
X239857000Y-167474000D03*
X225157000Y-179574000D03*
X228757000Y-175474000D03*
X224157000Y-175474000D03*
X227457000Y-167474000D03*
%TD*%
D13*
%TO.C,M3*%
X324104000Y-180721000D03*
%TD*%
D16*
%TO.C,J77*%
X115163600Y-112953800D03*
D17*
X117703600Y-112953800D03*
X120243600Y-112953800D03*
X122783600Y-112953800D03*
%TD*%
D11*
%TO.C,J47*%
X293243000Y-124714000D03*
D12*
X295783000Y-124714000D03*
%TD*%
D11*
%TO.C,J82*%
X343916000Y-170561000D03*
D12*
X343916000Y-168021000D03*
%TD*%
D11*
%TO.C,J40*%
X171704000Y-128270000D03*
D12*
X171704000Y-130810000D03*
%TD*%
D11*
%TO.C,J3*%
X220091000Y-92456000D03*
D12*
X217551000Y-92456000D03*
%TD*%
D11*
%TO.C,J79*%
X126263400Y-170078400D03*
D12*
X126263400Y-167538400D03*
%TD*%
D11*
%TO.C,J29*%
X118872000Y-162560000D03*
D12*
X121412000Y-162560000D03*
%TD*%
D11*
%TO.C,J17*%
X318897000Y-113919000D03*
D12*
X316357000Y-113919000D03*
%TD*%
D16*
%TO.C,J76*%
X277495000Y-175234000D03*
D17*
X277495000Y-172694000D03*
X277495000Y-170154000D03*
X277495000Y-167614000D03*
%TD*%
D10*
%TO.C,VR4*%
X336423000Y-185420000D03*
X341423000Y-185420000D03*
X346423000Y-185420000D03*
%TD*%
D13*
%TO.C,M5*%
X219456000Y-134289800D03*
%TD*%
D10*
%TO.C,VR1*%
X119319000Y-185500000D03*
X124319000Y-185500000D03*
X129319000Y-185500000D03*
%TD*%
D11*
%TO.C,J2*%
X69342000Y-157988000D03*
D12*
X71882000Y-157988000D03*
%TD*%
D11*
%TO.C,J33*%
X183388000Y-162052000D03*
D12*
X185928000Y-162052000D03*
%TD*%
D16*
%TO.C,J45*%
X320421000Y-188214000D03*
D17*
X322961000Y-188214000D03*
X325501000Y-188214000D03*
X328041000Y-188214000D03*
%TD*%
D11*
%TO.C,J64*%
X317627000Y-126927000D03*
D12*
X317627000Y-129467000D03*
%TD*%
D14*
%TO.C,IC31*%
X136652000Y-115228000D03*
D15*
X134112000Y-115228000D03*
X131572000Y-115228000D03*
%TD*%
D11*
%TO.C,J30*%
X110998000Y-162560000D03*
D12*
X113538000Y-162560000D03*
%TD*%
D16*
%TO.C,J41*%
X204216000Y-176022000D03*
D17*
X204216000Y-173482000D03*
X204216000Y-170942000D03*
X204216000Y-168402000D03*
%TD*%
D11*
%TO.C,J25*%
X129286000Y-160782000D03*
D12*
X126746000Y-160782000D03*
%TD*%
D11*
%TO.C,J84*%
X246634000Y-97282000D03*
D12*
X244094000Y-97282000D03*
%TD*%
D14*
%TO.C,IC33*%
X212344000Y-114935000D03*
D15*
X209804000Y-114935000D03*
X207264000Y-114935000D03*
%TD*%
D16*
%TO.C,J44*%
X348234000Y-175895000D03*
D17*
X348234000Y-173355000D03*
X348234000Y-170815000D03*
X348234000Y-168275000D03*
%TD*%
D11*
%TO.C,J74*%
X327533000Y-91440000D03*
D12*
X324993000Y-91440000D03*
%TD*%
D16*
%TO.C,J72*%
X328295000Y-110363000D03*
D17*
X330835000Y-110363000D03*
X333375000Y-110363000D03*
X335915000Y-110363000D03*
%TD*%
D11*
%TO.C,J37*%
X100838000Y-131064000D03*
D12*
X100838000Y-133604000D03*
%TD*%
D11*
%TO.C,J69*%
X235204000Y-157200000D03*
D12*
X235204000Y-154660000D03*
%TD*%
D11*
%TO.C,J58*%
X306959000Y-107188000D03*
D12*
X309499000Y-107188000D03*
%TD*%
D16*
%TO.C,J48*%
X175260000Y-187960000D03*
D17*
X177800000Y-187960000D03*
X180340000Y-187960000D03*
X182880000Y-187960000D03*
%TD*%
D11*
%TO.C,J11*%
X111252000Y-91440000D03*
D12*
X108712000Y-91440000D03*
%TD*%
D11*
%TO.C,J50*%
X355346000Y-120650000D03*
D12*
X355346000Y-118110000D03*
%TD*%
D14*
%TO.C,IC34*%
X350266000Y-105791000D03*
D15*
X347726000Y-105791000D03*
X345186000Y-105791000D03*
%TD*%
D11*
%TO.C,J32*%
X191770000Y-162052000D03*
D12*
X194310000Y-162052000D03*
%TD*%
D11*
%TO.C,J13*%
X213741000Y-161417000D03*
D12*
X216281000Y-161417000D03*
%TD*%
D11*
%TO.C,J70*%
X246253000Y-124942000D03*
D12*
X246253000Y-127482000D03*
%TD*%
D13*
%TO.C,M2*%
X353060000Y-94488000D03*
%TD*%
D11*
%TO.C,J56*%
X237363000Y-107108000D03*
D12*
X239903000Y-107108000D03*
%TD*%
D11*
%TO.C,J66*%
X257810000Y-161391000D03*
D12*
X260350000Y-161391000D03*
%TD*%
D18*
%TO.C,J24*%
X163822000Y-185100000D03*
X154822000Y-185100000D03*
D19*
X165572000Y-171900000D03*
D10*
X153072000Y-171300000D03*
D20*
X159322000Y-171300000D03*
X167772000Y-180900000D03*
X163322000Y-175500000D03*
X166622000Y-167500000D03*
X151922000Y-179600000D03*
X155522000Y-175500000D03*
X150922000Y-175500000D03*
X154222000Y-167500000D03*
%TD*%
D11*
%TO.C,J55*%
X82804000Y-111887000D03*
D12*
X85344000Y-111887000D03*
%TD*%
D10*
%TO.C,VR2*%
X263972000Y-184599000D03*
X268972000Y-184599000D03*
X273972000Y-184599000D03*
%TD*%
D11*
%TO.C,J46*%
X277279000Y-159613000D03*
D12*
X274739000Y-159613000D03*
%TD*%
D11*
%TO.C,J26*%
X143256000Y-130429000D03*
D12*
X145796000Y-130429000D03*
%TD*%
D11*
%TO.C,J52*%
X272161000Y-105029000D03*
D12*
X269621000Y-105029000D03*
%TD*%
D11*
%TO.C,J1*%
X140208000Y-159893000D03*
D12*
X142748000Y-159893000D03*
%TD*%
D11*
%TO.C,J5*%
X100838000Y-122682000D03*
D12*
X98298000Y-122682000D03*
%TD*%
D11*
%TO.C,J12*%
X285623000Y-161925000D03*
D12*
X288163000Y-161925000D03*
%TD*%
D18*
%TO.C,J23*%
X92386000Y-185100000D03*
X83386000Y-185100000D03*
D19*
X94136000Y-171900000D03*
D10*
X81636000Y-171300000D03*
D20*
X87886000Y-171300000D03*
X96336000Y-180900000D03*
X91886000Y-175500000D03*
X95186000Y-167500000D03*
X80486000Y-179600000D03*
X84086000Y-175500000D03*
X79486000Y-175500000D03*
X82786000Y-167500000D03*
%TD*%
D11*
%TO.C,J85*%
X173863000Y-97663000D03*
D12*
X171323000Y-97663000D03*
%TD*%
D11*
%TO.C,J86*%
X319659000Y-96647000D03*
D12*
X317119000Y-96647000D03*
%TD*%
D16*
%TO.C,J75*%
X131749800Y-176352200D03*
D17*
X131749800Y-173812200D03*
X131749800Y-171272200D03*
X131749800Y-168732200D03*
%TD*%
D11*
%TO.C,J51*%
X125730000Y-108712000D03*
D12*
X123190000Y-108712000D03*
%TD*%
D11*
%TO.C,J54*%
X343154000Y-112014000D03*
D12*
X340614000Y-112014000D03*
%TD*%
D14*
%TO.C,IC38*%
X296926000Y-113792000D03*
D15*
X296926000Y-111252000D03*
X296926000Y-108712000D03*
%TD*%
D11*
%TO.C,J31*%
X123190000Y-124206000D03*
D12*
X125730000Y-124206000D03*
%TD*%
D11*
%TO.C,J57*%
X158369000Y-111125000D03*
D12*
X160909000Y-111125000D03*
%TD*%
D11*
%TO.C,J49*%
X348234000Y-159867000D03*
D12*
X345694000Y-159867000D03*
%TD*%
D11*
%TO.C,J16*%
X248666000Y-112522000D03*
D12*
X246126000Y-112522000D03*
%TD*%
D11*
%TO.C,J22*%
X182626000Y-91440000D03*
D12*
X180086000Y-91440000D03*
%TD*%
D11*
%TO.C,J7*%
X220980000Y-115062000D03*
D12*
X218440000Y-115062000D03*
%TD*%
D11*
%TO.C,J63*%
X307416200Y-154838400D03*
D12*
X307416200Y-157378400D03*
%TD*%
D11*
%TO.C,J67*%
X267970000Y-121640000D03*
D12*
X270510000Y-121640000D03*
%TD*%
D16*
%TO.C,J71*%
X185928000Y-110490000D03*
D17*
X188468000Y-110490000D03*
X191008000Y-110490000D03*
X193548000Y-110490000D03*
%TD*%
D11*
%TO.C,J83*%
X103022400Y-107137200D03*
D12*
X103022400Y-109677200D03*
%TD*%
D11*
%TO.C,J35*%
X71882000Y-152654000D03*
D12*
X71882000Y-150114000D03*
%TD*%
D14*
%TO.C,IC37*%
X148209000Y-117475000D03*
D15*
X148209000Y-114935000D03*
X148209000Y-112395000D03*
%TD*%
M02*
