M48
; DRILL file {KiCad 9.0.3} date 2026-02-17T04:25:42-0700
; FORMAT={-:-/ absolute / metric / decimal}
; #@! TF.CreationDate,2026-02-17T04:25:42-07:00
; #@! TF.GenerationSoftware,Kicad,Pcbnew,9.0.3
; #@! TF.FileFunction,Plated,1,4,PTH
FMAT,2
METRIC
; #@! TA.AperFunction,Plated,PTH,ViaDrill
T1C0.305
; #@! TA.AperFunction,Plated,PTH,ViaDrill
T2C0.508
; #@! TA.AperFunction,Plated,PTH,ComponentDrill
T3C1.020
; #@! TA.AperFunction,Plated,PTH,ComponentDrill
T4C1.150
; #@! TA.AperFunction,Plated,PTH,ComponentDrill
T5C1.200
; #@! TA.AperFunction,Plated,PTH,ComponentDrill
T6C1.290
; #@! TA.AperFunction,Plated,PTH,ComponentDrill
T7C1.400
%
G90
G05
T1
X74.193Y-169.672
X75.921Y-141.884
X75.946Y-143.535
X76.022Y-145.059
X77.241Y-159.156
X77.495Y-171.145
X77.927Y-140.64
X78.08Y-137.439
X78.207Y-163.881
X78.207Y-165.252
X80.797Y-128.829
X80.95Y-157.251
X81.026Y-151.714
X81.94Y-160.909
X82.067Y-163.855
X82.144Y-135.865
X82.474Y-128.93
X82.701Y-157.582
X83.16Y-139.014
X84.074Y-128.93
X84.658Y-135.661
X84.938Y-138.913
X85.496Y-128.118
X87.909Y-136.804
X88.087Y-151.841
X90.018Y-178.232
X90.576Y-125.324
X90.83Y-137.541
X91.186Y-151.46
X91.186Y-152.298
X91.796Y-144.323
X92.735Y-165.354
X92.837Y-135.484
X93.066Y-130.048
X93.243Y-139.243
X95.047Y-160.68
X95.123Y-134.95
X95.174Y-165.1
X95.199Y-129.083
X95.225Y-125.273
X95.707Y-174.817
X96.241Y-134.976
X97.206Y-167.157
X97.282Y-134.899
X97.511Y-153.289
X97.536Y-165.557
X97.892Y-172.618
X98.069Y-160.706
X98.501Y-140.03
X98.527Y-136.677
X99.136Y-144.196
X99.196Y-157.328
X99.212Y-158.09
X99.619Y-167.792
X100.406Y-125.476
X100.711Y-150.317
X100.813Y-153.619
X100.863Y-162.941
X101.244Y-161.366
X102.057Y-166.878
X103.632Y-153.822
X104.496Y-102.21
X106.07Y-143.891
X106.604Y-125.527
X106.756Y-150.622
X106.858Y-160.198
X107.417Y-169.748
X107.442Y-166.827
X107.62Y-137.795
X108.229Y-103.429
X108.382Y-165.506
X108.407Y-169.752
X108.941Y-97.155
X108.966Y-131.877
X109.195Y-95.631
X109.499Y-122.276
X109.601Y-147.117
X109.703Y-137.592
X109.931Y-128.473
X109.957Y-143.281
X110.16Y-116.129
X110.261Y-141.402
X110.287Y-131.953
X110.744Y-174.219
X110.973Y-125.044
X111.074Y-151.206
X111.176Y-152.095
X111.506Y-131.877
X111.684Y-120.599
X112.065Y-154.838
X112.141Y-110.668
X112.166Y-111.455
X112.42Y-136.246
X112.624Y-113.665
X112.674Y-159.487
X113.055Y-95.123
X113.182Y-166.497
X113.208Y-168.224
X114.96Y-138.709
X115.011Y-140.157
X115.219Y-123.638
X115.24Y-119.583
X115.976Y-140.03
X116.916Y-101.803
X117.17Y-115.291
X117.627Y-108.687
X118.593Y-167.31
X118.643Y-137.16
X118.694Y-131.216
X119.177Y-138.862
X120.066Y-137.185
X120.929Y-172.368
X121.133Y-131.039
X121.133Y-138.913
X121.31Y-105.105
X121.437Y-148.412
X121.564Y-110.566
X121.691Y-137.185
X121.844Y-172.39
X122.53Y-169.697
X123.012Y-166.141
X123.419Y-99.902
X124.714Y-149.25
X124.739Y-99.949
X124.816Y-151.943
X124.892Y-155.219
X125.273Y-130.962
X125.324Y-146.914
X126.009Y-143.739
X126.111Y-139.878
X128.016Y-147.244
X128.016Y-148.031
X128.143Y-135.636
X128.651Y-157.328
X128.829Y-131.318
X129.057Y-135.56
X129.565Y-99.847
X129.921Y-135.585
X131.14Y-166.014
X131.394Y-100.813
X133.045Y-101.702
X135.941Y-145.694
X136.195Y-162.077
X136.322Y-175.539
X136.347Y-127.66
X136.5Y-159.385
X136.728Y-143.485
X136.754Y-169.621
X137.135Y-156.032
X137.262Y-165.913
X139.497Y-150.673
X139.497Y-181.813
X139.548Y-149.809
X140.056Y-133.172
X140.132Y-134.112
X140.157Y-138.278
X140.792Y-183.617
X142.799Y-106.883
X142.824Y-103.657
X142.875Y-111.963
X145.059Y-178.003
X145.415Y-165.735
X145.542Y-139.37
X145.542Y-140.233
X146.583Y-159.664
X147.193Y-151.206
X147.269Y-125.07
X147.523Y-138.151
X147.752Y-140.437
X148.031Y-135.915
X151.257Y-151.486
X151.638Y-128.041
X152.552Y-125.451
X153.162Y-128.118
X153.238Y-157.556
X153.256Y-156.743
X153.441Y-136.169
X153.873Y-139.268
X154.28Y-160.757
X154.813Y-143.764
X154.813Y-149.301
X154.915Y-128.016
X156.007Y-166.929
X156.464Y-142.011
X156.464Y-151.13
X157.531Y-145.466
X158.369Y-136.601
X160.452Y-142.367
X160.934Y-136.373
X162.077Y-116.764
X162.357Y-144.196
X162.382Y-145.009
X162.56Y-122.301
X163.779Y-170.18
X163.881Y-165.329
X164.262Y-135.992
X164.567Y-157.988
X165.1Y-139.446
X165.354Y-133.909
X166.395Y-133.934
X167.31Y-133.934
X168.021Y-108.255
X168.046Y-105.004
X168.783Y-122.149
X169.824Y-136.144
X170.79Y-156.845
X170.79Y-157.658
X172.644Y-149.428
X173.406Y-122.809
X173.888Y-147.447
X174.066Y-119.075
X175.565Y-158.775
X176.047Y-154.203
X177.114Y-173.736
X178.112Y-156.496
X178.156Y-161.95
X178.562Y-167.919
X178.765Y-169.596
X178.791Y-149.403
X178.791Y-165.608
X178.918Y-126.848
X178.994Y-173.253
X179.172Y-164.643
X179.451Y-122.072
X179.857Y-166.878
X179.883Y-169.578
X180.111Y-114.681
X180.124Y-162.598
X180.162Y-134.493
X180.518Y-98.552
X180.594Y-127.838
X180.696Y-102.921
X181.178Y-94.767
X181.381Y-174.015
X181.839Y-127.838
X181.991Y-139.014
X182.321Y-133.528
X182.651Y-116.891
X183.058Y-149.86
X183.083Y-127.838
X183.464Y-108.128
X183.49Y-145.313
X183.82Y-123.723
X183.845Y-149.86
X183.947Y-176.251
X184.125Y-154.229
X184.404Y-94.513
X184.48Y-103.759
X184.506Y-99.466
X184.582Y-108.102
X184.785Y-167.081
X185.877Y-135.661
X185.903Y-119.913
X186.157Y-115.773
X187.706Y-136.195
X187.706Y-137.109
X187.96Y-99.67
X188.189Y-104.623
X188.722Y-157.836
X188.773Y-161.595
X189.027Y-167.157
X189.408Y-107.569
X190.475Y-133.96
X191.262Y-153.289
X192.1Y-102.692
X192.151Y-146.355
X192.43Y-108.331
X193.015Y-141.605
X193.04Y-105.054
X193.269Y-171.444
X193.777Y-133.426
X193.802Y-134.315
X193.878Y-177.648
X194.081Y-171.45
X194.437Y-97.108
X194.97Y-168.377
X195.428Y-97.104
X197.155Y-142.646
X197.637Y-153.518
X197.688Y-150.978
X197.942Y-148.361
X199.441Y-134.798
X201.016Y-175.514
X201.168Y-147.066
X201.168Y-147.803
X201.498Y-96.749
X201.524Y-156.464
X202.108Y-131.42
X202.12Y-134.696
X203.835Y-165.633
X204.699Y-98.882
X207.772Y-100.94
X208.991Y-173.101
X210.236Y-161.265
X210.566Y-168.681
X210.591Y-164.363
X212.522Y-132.842
X212.674Y-131.14
X212.776Y-128.295
X213.03Y-156.21
X213.081Y-135.484
X213.384Y-150.073
X213.411Y-132.842
X214.224Y-150.012
X215.24Y-185.141
X215.316Y-182.499
X217.932Y-147.523
X219.758Y-145.694
X219.761Y-146.533
X220.396Y-153.289
X220.472Y-148.463
X220.726Y-157.963
X221.437Y-124.13
X221.539Y-120.498
X221.717Y-160.096
X221.869Y-140.157
X221.996Y-129.565
X222.479Y-126.975
X222.555Y-107.544
X222.682Y-109.22
X223.342Y-126.974
X224.18Y-133.604
X225.577Y-124.333
X226.289Y-176.987
X227.787Y-133.553
X228.059Y-155.727
X228.067Y-156.566
X228.524Y-123.85
X229.692Y-140.233
X229.743Y-136.271
X229.794Y-167.361
X231.597Y-122.682
X233.045Y-160.782
X233.248Y-168.021
X234.01Y-134.595
X234.848Y-139.649
X234.95Y-142.469
X235.915Y-142.469
X238.252Y-137.058
X238.735Y-158.826
X238.76Y-133.452
X238.76Y-153.34
X239.954Y-120.447
X241.097Y-170.536
X242.595Y-125.451
X243.154Y-130.581
X243.332Y-120.574
X243.738Y-172.263
X243.891Y-130.563
X244.551Y-164.744
X245.11Y-155.88
X245.135Y-154.94
X245.44Y-174.594
X245.516Y-120.345
X246.431Y-131.013
X246.482Y-133.198
X247.371Y-164.617
X247.675Y-139.471
X248.895Y-116.281
X249.174Y-103.937
X249.326Y-107.975
X249.682Y-144.018
X249.733Y-146.05
X249.745Y-157.619
X249.809Y-120.345
X250.825Y-174.523
X251.892Y-177.343
X251.943Y-147.244
X251.968Y-153.441
X251.993Y-143.485
X252.171Y-139.268
X252.298Y-113.665
X252.298Y-149.962
X252.349Y-164.236
X252.374Y-171.018
X253.086Y-159.715
X253.111Y-95.123
X253.403Y-168.465
X253.416Y-101.549
X253.416Y-119.99
X253.67Y-165.583
X253.746Y-128.016
X253.797Y-135.433
X254.356Y-168.453
X254.787Y-115.291
X254.813Y-132.359
X254.813Y-133.172
X255.88Y-94.742
X256.108Y-141.021
X256.108Y-174.32
X256.616Y-108.433
X256.62Y-107.518
X256.718Y-134.849
X256.819Y-176.987
X257.302Y-145.186
X257.581Y-149.86
X257.607Y-151.181
X257.734Y-126.924
X258.013Y-123.419
X258.293Y-119.05
X258.674Y-115.011
X259.359Y-98.781
X259.41Y-165.379
X261.188Y-105.41
X261.417Y-157.912
X261.7Y-137.77
X261.722Y-136.779
X262.382Y-119.482
X262.484Y-176.073
X262.941Y-165.227
X263.169Y-160.655
X265.151Y-101.905
X265.506Y-106.553
X265.582Y-126.975
X265.862Y-104.191
X266.522Y-133.68
X266.598Y-146.431
X267.335Y-97.463
X267.589Y-169.98
X268.224Y-133.756
X268.376Y-97.46
X268.453Y-170.002
X269.519Y-152.552
X270.256Y-135.179
X270.434Y-130.607
X270.586Y-126.746
X271.145Y-97.13
X272.771Y-148.742
X273.202Y-150.368
X273.431Y-164.668
X273.533Y-98.603
X273.736Y-148.746
X274.041Y-134.391
X274.168Y-131.42
X274.345Y-175.184
X274.447Y-144.475
X276.606Y-164.516
X276.758Y-136.703
X277.368Y-126.594
X277.393Y-127.483
X278.486Y-154.407
X279.451Y-136.881
X280.289Y-178.816
X281.432Y-172.949
X282.016Y-147.447
X284.404Y-147.447
X284.658Y-142.316
X284.861Y-139.192
X285.42Y-132.537
X285.42Y-133.528
X286.075Y-151.816
X286.08Y-152.654
X286.461Y-123.927
X286.741Y-120.929
X286.918Y-118.948
X288.569Y-107.264
X288.569Y-137.439
X288.646Y-103.276
X288.646Y-105.105
X288.9Y-132.436
X288.95Y-147.422
X289.052Y-134.62
X289.103Y-151.435
X289.306Y-128.778
X289.458Y-126.238
X291.516Y-160.172
X291.922Y-155.499
X292.405Y-158.217
X292.43Y-141.681
X292.456Y-143.637
X292.659Y-137.592
X293.116Y-140.995
X293.522Y-128.372
X294.488Y-128.371
X294.767Y-134.849
X298.196Y-134.391
X298.755Y-162.357
X299.288Y-156.337
X299.314Y-155.448
X299.923Y-125.705
X301.142Y-158.775
X301.168Y-138.455
X301.65Y-142.088
X301.727Y-156.337
X301.879Y-124.384
X302.616Y-146.812
X303.124Y-135.636
X303.479Y-150.241
X304.343Y-146.533
X304.673Y-141.91
X304.673Y-143.51
X305.016Y-147.206
X305.308Y-122.53
X306.629Y-136.5
X307.797Y-143.18
X308.483Y-138.887
X309.065Y-154.875
X309.067Y-121.336
X309.448Y-133.172
X310.947Y-133.198
X312.191Y-135.331
X312.42Y-133.045
X315.239Y-121.285
X315.544Y-134.95
X316.004Y-156.163
X316.027Y-156.896
X317.271Y-165.913
X317.957Y-121.336
X318.008Y-160.731
X318.059Y-141.859
X318.313Y-137.82
X318.821Y-156.947
X320.751Y-155.067
X321.691Y-110.058
X321.843Y-119.38
X323.088Y-143.104
X323.291Y-112.547
X323.342Y-127.305
X323.367Y-126.467
X323.596Y-149.174
X323.85Y-121.133
X323.977Y-156.718
X323.977Y-158.801
X324.104Y-171.069
X324.256Y-95.555
X324.587Y-173.761
X324.637Y-152.273
X324.739Y-169.24
X324.841Y-135.484
X324.841Y-161.366
X324.917Y-165.43
X325.399Y-99.771
X325.628Y-169.244
X326.085Y-102.921
X326.542Y-94.183
X326.669Y-139.878
X327.787Y-149.936
X328.295Y-120.269
X328.346Y-94.386
X328.447Y-184.201
X328.6Y-145.364
X328.676Y-136.068
X328.701Y-149.914
X328.778Y-99.162
X328.778Y-116.18
X330.175Y-165.049
X331.419Y-119.964
X331.546Y-135.509
X332.791Y-136.804
X332.804Y-137.719
X332.918Y-98.501
X333.248Y-120.98
X333.299Y-105.362
X333.908Y-107.366
X333.908Y-132.436
X334.061Y-105.385
X334.416Y-99.365
X334.442Y-164.846
X334.493Y-181.966
X335.61Y-132.41
X335.89Y-177.165
X337.185Y-132.41
X337.337Y-146.533
X337.896Y-177.724
X338.277Y-103.175
X338.404Y-164.617
X338.455Y-135.153
X338.963Y-169.266
X339.776Y-98.886
X339.903Y-169.215
X340.436Y-172.237
X340.589Y-98.882
X342.214Y-135.306
X342.316Y-149.2
X342.824Y-120.904
X342.875Y-148.692
X343.408Y-164.821
X343.56Y-181.407
X343.611Y-129.997
X343.865Y-124.638
X344.526Y-129.989
X344.754Y-142.443
X346.481Y-135.255
X346.812Y-124.003
X348.844Y-116.637
X349.225Y-181.331
X349.275Y-165.202
X350.952Y-165.176
X352.781Y-176.632
X352.958Y-132.791
X353.009Y-168.707
X353.06Y-138.963
X353.162Y-173.685
X353.746Y-142.113
X353.789Y-129.108
X356.159Y-146.634
X356.892Y-127.943
X356.908Y-146.647
T2
X92.456Y-140.97
X96.012Y-146.812
X98.806Y-164.084
X104.902Y-164.084
X107.696Y-144.272
X107.696Y-147.574
X109.22Y-124.46
X110.732Y-145.288
X110.744Y-149.086
X112.522Y-117.856
X114.554Y-147.828
X114.554Y-155.448
X114.808Y-134.112
X114.833Y-128.93
X116.078Y-120.65
X116.586Y-149.098
X116.586Y-155.448
X117.221Y-117.688
X120.384Y-146.558
X120.396Y-150.2
X123.19Y-144.526
X123.19Y-147.549
X124.333Y-163.449
X129.54Y-146.05
X129.54Y-151.13
X131.318Y-129.286
X133.675Y-135.128
X163.576Y-142.24
X167.64Y-146.558
X169.24Y-164.084
X177.292Y-163.322
X179.578Y-141.986
X179.578Y-146.05
X180.848Y-118.364
X182.626Y-143.027
X182.626Y-148.336
X183.134Y-114.046
X186.182Y-124.968
X186.182Y-130.048
X186.412Y-153.162
X186.55Y-145.796
X186.944Y-116.84
X187.96Y-113.871
X188.722Y-146.558
X188.722Y-153.162
X192.71Y-144.247
X193.294Y-149.352
X195.326Y-141.986
X195.326Y-146.05
X197.739Y-163.449
X202.692Y-145.796
X202.946Y-150.368
X204.724Y-128.778
X205.74Y-133.858
X237.109Y-139.293
X241.427Y-144.881
X242.697Y-164.058
X250.825Y-162.408
X253.619Y-117.449
X253.619Y-142.341
X253.619Y-146.278
X254.508Y-113.131
X256.184Y-142.951
X256.286Y-148.31
X259.237Y-116.132
X260.223Y-113.061
X260.604Y-125.323
X260.604Y-130.657
X260.604Y-144.627
X260.604Y-152.882
X263.144Y-145.897
X263.398Y-152.882
X267.437Y-144.297
X267.462Y-149.199
X270.256Y-142.722
X270.256Y-146.278
X272.796Y-161.899
X278.376Y-142.857
X278.376Y-147.937
X280.281Y-124.696
X281.297Y-129.522
X307.975Y-141.159
X312.674Y-145.985
X313.944Y-163.931
X322.072Y-163.678
X324.723Y-142.548
X324.723Y-146.104
X324.866Y-118.491
X325.755Y-114.091
X327.136Y-148.39
X327.457Y-143.027
X329.402Y-117.233
X329.819Y-125.222
X329.819Y-129.794
X330.327Y-113.919
X331.454Y-153.089
X331.581Y-144.834
X334.248Y-145.977
X334.502Y-153.089
X338.226Y-144.247
X338.439Y-148.898
X341.106Y-142.294
X341.106Y-145.723
X342.9Y-162.433
X347.345Y-141.96
X347.853Y-147.294
X349.377Y-123.698
X350.012Y-128.651
T3
X69.342Y-157.988
X71.882Y-150.114
X71.882Y-152.654
X71.882Y-157.988
X82.804Y-111.887
X85.344Y-111.887
X91.973Y-156.972
X91.973Y-159.512
X98.298Y-122.682
X100.838Y-122.682
X100.838Y-131.064
X100.838Y-133.604
X103.022Y-107.137
X103.022Y-109.677
X108.712Y-91.44
X110.998Y-162.56
X111.252Y-91.44
X113.538Y-162.56
X118.872Y-162.56
X121.412Y-162.56
X123.19Y-108.712
X123.19Y-124.206
X125.73Y-108.712
X125.73Y-124.206
X126.263Y-167.538
X126.263Y-170.078
X126.746Y-160.782
X129.286Y-160.782
X140.208Y-159.893
X142.706Y-151.892
X142.706Y-154.432
X142.748Y-159.893
X143.256Y-130.429
X145.796Y-130.429
X158.369Y-111.125
X159.512Y-155.448
X159.512Y-157.988
X160.909Y-111.125
X171.323Y-97.663
X171.704Y-128.27
X171.704Y-130.81
X172.593Y-114.046
X173.863Y-97.663
X175.133Y-114.046
X180.086Y-91.44
X182.626Y-91.44
X183.388Y-162.052
X185.928Y-162.052
X191.77Y-162.052
X193.04Y-121.793
X194.31Y-162.052
X195.58Y-121.793
X198.755Y-109.728
X199.136Y-168.148
X199.136Y-170.688
X199.517Y-160.655
X201.295Y-109.728
X202.057Y-160.655
X213.741Y-161.417
X215.773Y-128.372
X216.281Y-161.417
X216.535Y-153.39
X216.535Y-155.93
X217.551Y-92.456
X217.932Y-104.267
X218.313Y-128.372
X218.44Y-115.062
X220.091Y-92.456
X220.472Y-104.267
X220.98Y-115.062
X235.204Y-154.66
X235.204Y-157.2
X237.363Y-107.108
X239.903Y-107.108
X244.094Y-97.282
X246.126Y-112.522
X246.253Y-124.942
X246.253Y-127.482
X246.634Y-97.282
X248.666Y-112.522
X251.968Y-91.541
X254.508Y-91.541
X257.81Y-161.391
X260.35Y-161.391
X266.7Y-161.391
X267.97Y-121.64
X269.24Y-161.391
X269.621Y-105.029
X270.51Y-121.64
X272.161Y-105.029
X272.923Y-168.275
X272.923Y-170.815
X274.739Y-159.613
X277.279Y-159.613
X285.623Y-161.925
X288.036Y-154.279
X288.036Y-156.819
X288.163Y-161.925
X293.243Y-124.714
X295.783Y-124.714
X306.959Y-107.188
X307.416Y-154.838
X307.416Y-157.378
X309.499Y-107.188
X316.357Y-113.919
X317.119Y-96.647
X317.627Y-126.927
X317.627Y-129.467
X318.897Y-113.919
X319.659Y-96.647
X324.993Y-91.44
X327.533Y-91.44
X329.041Y-160.926
X331.581Y-160.926
X336.804Y-122.936
X337.296Y-160.926
X339.344Y-122.936
X339.836Y-160.926
X340.614Y-112.014
X343.154Y-112.014
X343.916Y-168.021
X343.916Y-170.561
X345.694Y-159.867
X348.234Y-159.867
X355.346Y-118.11
X355.346Y-120.65
T4
X103.505Y-187.915
X106.045Y-187.915
X108.585Y-187.915
X111.125Y-187.915
X115.164Y-112.954
X117.704Y-112.954
X120.244Y-112.954
X122.784Y-112.954
X131.75Y-168.732
X131.75Y-171.272
X131.75Y-173.812
X131.75Y-176.352
X175.26Y-187.96
X177.8Y-187.96
X180.34Y-187.96
X182.88Y-187.96
X185.928Y-110.49
X188.468Y-110.49
X191.008Y-110.49
X193.548Y-110.49
X204.216Y-168.402
X204.216Y-170.942
X204.216Y-173.482
X204.216Y-176.022
X248.158Y-188.214
X250.698Y-188.214
X253.238Y-188.214
X255.778Y-188.214
X258.318Y-109.829
X260.858Y-109.829
X263.398Y-109.829
X265.938Y-109.829
X277.495Y-167.614
X277.495Y-170.154
X277.495Y-172.694
X277.495Y-175.234
X320.421Y-188.214
X322.961Y-188.214
X325.501Y-188.214
X328.041Y-188.214
X328.295Y-110.363
X330.835Y-110.363
X333.375Y-110.363
X335.915Y-110.363
X348.234Y-168.275
X348.234Y-170.815
X348.234Y-173.355
X348.234Y-175.895
T5
X79.486Y-175.5
X80.486Y-179.6
X82.786Y-167.5
X84.086Y-175.5
X87.886Y-171.3
X91.886Y-175.5
X95.186Y-167.5
X96.336Y-180.9
X150.922Y-175.5
X151.922Y-179.6
X154.222Y-167.5
X155.522Y-175.5
X159.322Y-171.3
X163.322Y-175.5
X166.622Y-167.5
X167.772Y-180.9
X224.157Y-175.474
X225.157Y-179.574
X227.457Y-167.474
X228.757Y-175.474
X232.557Y-171.274
X236.557Y-175.474
X239.857Y-167.474
X241.007Y-180.874
X296.205Y-175.422
X297.205Y-179.522
X299.505Y-167.422
X300.805Y-175.422
X304.605Y-171.222
X308.605Y-175.422
X311.905Y-167.422
X313.055Y-180.822
T6
X72.644Y-113.919
X72.644Y-116.459
X72.644Y-118.999
X131.572Y-115.228
X134.112Y-115.228
X136.652Y-115.228
X148.209Y-112.395
X148.209Y-114.935
X148.209Y-117.475
X207.264Y-114.935
X209.804Y-114.935
X212.344Y-114.935
X227.457Y-108.886
X227.457Y-111.426
X227.457Y-113.966
X277.749Y-109.855
X280.289Y-109.855
X282.829Y-109.855
X296.926Y-108.712
X296.926Y-111.252
X296.926Y-113.792
X345.186Y-105.791
X347.726Y-105.791
X350.266Y-105.791
T7
X81.636Y-171.3
X94.136Y-171.9
X119.319Y-185.5
X124.319Y-185.5
X129.319Y-185.5
X153.072Y-171.3
X165.572Y-171.9
X191.222Y-185.319
X196.222Y-185.319
X201.222Y-185.319
X226.307Y-171.274
X238.807Y-171.874
X263.972Y-184.599
X268.972Y-184.599
X273.972Y-184.599
X298.355Y-171.222
X310.855Y-171.822
X336.423Y-185.42
X341.423Y-185.42
X346.423Y-185.42
M30
